SplineFontDB: 3.0
FontName: CourierPrimeCode-Regular
FullName: CourierPrimeCode-Regular
FamilyName: Courier Prime Code
Weight: Book
Copyright: Copyright (c) 2015 Quote-Unquote Apps.
Version: 3.0318
ItalicAngle: 0
UnderlinePosition: -250
UnderlineWidth: 130
Ascent: 1638
Descent: 410
InvalidEm: 0
sfntRevision: 0x0003049b
LayerCount: 2
Layer: 0 1 "Back" 1
Layer: 1 1 "Fore" 0
XUID: [1021 283 1905561628 8226911]
StyleMap: 0x0040
FSType: 8
OS2Version: 3
OS2_WeightWidthSlopeOnly: 0
OS2_UseTypoMetrics: 0
CreationTime: 1444714884
ModificationTime: 1444714970
PfmFamily: 81
TTFWeight: 400
TTFWidth: 5
LineGap: 0
VLineGap: 0
Panose: 0 0 5 9 0 0 0 0 0 0
OS2TypoAscent: 1421
OS2TypoAOffset: 0
OS2TypoDescent: -643
OS2TypoDOffset: 0
OS2TypoLinegap: 194
OS2WinAscent: 1797
OS2WinAOffset: 0
OS2WinDescent: 839
OS2WinDOffset: 0
HheadAscent: 1421
HheadAOffset: 0
HheadDescent: -643
HheadDOffset: 0
OS2SubXSize: 1331
OS2SubYSize: 1228
OS2SubXOff: 0
OS2SubYOff: 153
OS2SupXSize: 1331
OS2SupYSize: 1228
OS2SupXOff: 0
OS2SupYOff: 716
OS2StrikeYSize: 130
OS2StrikeYPos: 554
OS2CapHeight: 1187
OS2XHeight: 924
OS2Vendor: 'QUQA'
OS2CodePages: 20000093.00000000
OS2UnicodeRanges: 00000007.00000000.00000000.00000000
Lookup: 1 0 0 "'aalt' Access All Alternates lookup 0" { "'aalt' Access All Alternates lookup 0 subtable"  } ['aalt' ('DFLT' <'dflt' > 'grek' <'dflt' > 'latn' <'CAT ' 'MOL ' 'ROM ' 'dflt' > ) ]
Lookup: 1 0 0 "'locl' Localized Forms in Latin lookup 1" { "'locl' Localized Forms in Latin lookup 1 subtable"  } ['locl' ('latn' <'ROM ' > ) ]
Lookup: 1 0 0 "'locl' Localized Forms in Latin lookup 2" { "'locl' Localized Forms in Latin lookup 2 subtable"  } ['locl' ('latn' <'MOL ' > ) ]
Lookup: 6 0 0 "'locl' Localized Forms in Latin lookup 3" { "'locl' Localized Forms in Latin lookup 3 contextual 0"  "'locl' Localized Forms in Latin lookup 3 contextual 1"  } ['locl' ('latn' <'CAT ' > ) ]

StartChar: .notdef
Encoding: 65536 -1 0
Width: 1132
Flags: W
LayerCount: 2
Fore
SplineSet
928 -643 m 1,0,-1
 211 -643 l 1,1,-1
 211 1621 l 1,2,-1
 928 1621 l 1,3,-1
 928 -643 l 1,0,-1
380 1469 m 1,4,-1
 380 1395 l 1,5,-1
 528 1395 l 1,6,-1
 528 1311 l 1,7,-1
 378 1311 l 1,8,-1
 378 1236 l 1,9,-1
 754 1236 l 1,10,-1
 754 1311 l 1,11,-1
 604 1311 l 1,12,-1
 604 1395 l 1,13,-1
 754 1395 l 1,14,-1
 754 1469 l 1,15,-1
 380 1469 l 1,4,-1
378 1177 m 1,16,-1
 378 942 l 1,17,-1
 754 942 l 1,18,-1
 754 1019 l 1,19,-1
 604 1019 l 1,20,-1
 604 1177 l 1,21,-1
 378 1177 l 1,16,-1
528 1019 m 1,22,-1
 453 1019 l 1,23,-1
 453 1100 l 1,24,-1
 528 1100 l 1,25,-1
 528 1019 l 1,22,-1
378 881 m 1,26,-1
 378 806 l 1,27,-1
 528 806 l 1,28,-1
 528 722 l 1,29,-1
 378 722 l 1,30,-1
 378 647 l 1,31,-1
 604 647 l 1,32,-1
 604 806 l 1,33,-1
 754 806 l 1,34,-1
 754 881 l 1,35,-1
 378 881 l 1,26,-1
679 745 m 1,36,-1
 679 595 l 1,37,-1
 378 595 l 1,38,-1
 378 518 l 1,39,-1
 754 518 l 1,40,-1
 754 745 l 1,41,-1
 679 745 l 1,36,-1
528 469 m 1,42,-1
 528 342 l 1,43,-1
 604 342 l 1,44,-1
 604 394 l 1,45,-1
 679 394 l 1,46,-1
 679 288 l 1,47,-1
 453 288 l 1,48,-1
 453 469 l 1,49,-1
 378 469 l 1,50,-1
 378 213 l 1,51,-1
 754 213 l 1,52,-1
 754 469 l 1,53,-1
 528 469 l 1,42,-1
378 77 m 1,54,-1
 378 -179 l 1,55,-1
 754 -179 l 1,56,-1
 754 77 l 1,57,-1
 378 77 l 1,54,-1
679 -104 m 1,58,-1
 453 -104 l 1,59,-1
 453 2 l 1,60,-1
 679 2 l 1,61,-1
 679 -104 l 1,58,-1
378 -231 m 1,62,-1
 378 -306 l 1,63,-1
 537 -306 l 1,64,-1
 378 -412 l 1,65,-1
 378 -487 l 1,66,-1
 754 -487 l 1,67,-1
 754 -412 l 1,68,-1
 523 -412 l 1,69,-1
 681 -306 l 1,70,-1
 754 -306 l 1,71,-1
 754 -231 l 1,72,-1
 378 -231 l 1,62,-1
EndSplineSet
EndChar

StartChar: A
Encoding: 65 65 2
Width: 1228
Flags: W
LayerCount: 2
Fore
SplineSet
1124 53 m 0,1,2
 1124 34 1124 34 1110.5 21 c 128,-1,3
 1097 8 1097 8 1067 -2 c 0,4,5
 1041 -10 1041 -10 1027 -10 c 0,6,7
 1007 -10 1007 -10 994 1 c 128,-1,8
 981 12 981 12 973 36 c 2,9,-1
 864 330 l 1,10,-1
 360 330 l 1,11,-1
 251 36 l 2,12,13
 243 12 243 12 230 1 c 128,-1,14
 217 -10 217 -10 197 -10 c 0,15,16
 183 -10 183 -10 157 -2 c 0,17,18
 127 8 127 8 113.5 21 c 128,-1,19
 100 34 100 34 100 53 c 0,20,21
 100 66 100 66 106 84 c 2,22,-1
 500 1144 l 2,23,24
 513 1179 513 1179 539 1194 c 128,-1,25
 565 1209 565 1209 612 1209 c 256,26,27
 659 1209 659 1209 685 1194 c 128,-1,28
 711 1179 711 1179 724 1144 c 2,29,-1
 1118 84 l 2,30,0
 1124 66 1124 66 1124 53 c 0,1,2
412 474 m 1,31,-1
 811 474 l 1,32,-1
 614 1043 l 1,33,-1
 610 1043 l 1,34,-1
 412 474 l 1,31,-1
EndSplineSet
Substitution2: "Single Substitution lookup 9 subtable" ordfeminine
Substitution2: "'aalt' Access All Alternates lookup 0 subtable" ordfeminine
EndChar

StartChar: Aogonek
Encoding: 260 260 9
Width: 1228
Flags: W
LayerCount: 2
Fore
SplineSet
1164 -393 m 0,1,2
 1164 -415 1164 -415 1155.5 -427.5 c 128,-1,3
 1147 -440 1147 -440 1130 -446 c 0,4,5
 1055 -472 1055 -472 966 -472 c 0,6,7
 873 -472 873 -472 819.5 -420 c 128,-1,8
 766 -368 766 -368 766 -281 c 0,9,10
 766 -200 766 -200 814.5 -125 c 128,-1,11
 863 -50 863 -50 954 28 c 1,12,-1
 976 28 l 1,13,-1
 973 36 l 1,14,-1
 864 330 l 1,15,-1
 360 330 l 1,16,-1
 251 36 l 2,17,18
 243 12 243 12 230 1 c 128,-1,19
 217 -10 217 -10 197 -10 c 0,20,21
 183 -10 183 -10 157 -2 c 0,22,23
 127 8 127 8 113.5 21 c 128,-1,24
 100 34 100 34 100 53 c 0,25,26
 100 66 100 66 106 84 c 2,27,-1
 500 1144 l 2,28,29
 513 1179 513 1179 539 1194 c 128,-1,30
 565 1209 565 1209 612 1209 c 256,31,32
 659 1209 659 1209 685 1194 c 128,-1,33
 711 1179 711 1179 724 1144 c 2,34,-1
 1118 84 l 2,35,36
 1125 63 1125 63 1125 53 c 0,37,38
 1125 39 1125 39 1117 28 c 1,39,-1
 1119 28 l 1,40,41
 1013 -66 1013 -66 967.5 -133 c 128,-1,42
 922 -200 922 -200 922 -260 c 0,43,44
 922 -295 922 -295 943 -314 c 128,-1,45
 964 -333 964 -333 999 -333 c 0,46,47
 1051 -333 1051 -333 1112 -316 c 0,48,49
 1120 -314 1120 -314 1123 -314 c 0,50,51
 1153 -314 1153 -314 1162 -368 c 0,52,0
 1164 -386 1164 -386 1164 -393 c 0,1,2
412 474 m 1,53,-1
 811 474 l 1,54,-1
 614 1043 l 1,55,-1
 610 1043 l 1,56,-1
 412 474 l 1,53,-1
EndSplineSet
EndChar

StartChar: AE
Encoding: 198 198 12
Width: 1228
Flags: W
LayerCount: 2
Fore
SplineSet
1155.5 127.5 m 128,-1,1
 1170 111 1170 111 1170 72 c 256,2,3
 1170 33 1170 33 1155.5 16.5 c 128,-1,4
 1141 0 1141 0 1107 0 c 2,5,-1
 679 0 l 1,6,-1
 638 0 l 2,7,8
 604 0 604 0 589.5 15.5 c 128,-1,9
 575 31 575 31 575 68 c 2,10,-1
 575 370 l 1,11,-1
 301 370 l 1,12,-1
 171 36 l 2,13,14
 162 12 162 12 149 1 c 128,-1,15
 136 -10 136 -10 116 -10 c 0,16,17
 102 -10 102 -10 76 -2 c 0,18,19
 47 7 47 7 33.5 20 c 128,-1,20
 20 33 20 33 20 52 c 0,21,22
 20 67 20 67 27 84 c 2,23,-1
 430 1119 l 2,24,25
 444 1156 444 1156 464.5 1171.5 c 128,-1,26
 485 1187 485 1187 519 1187 c 2,27,-1
 624 1187 l 1,28,-1
 725 1187 l 1,29,-1
 1087 1187 l 2,30,31
 1121 1187 1121 1187 1135.5 1170.5 c 128,-1,32
 1150 1154 1150 1154 1150 1115 c 256,33,34
 1150 1076 1150 1076 1135.5 1059.5 c 128,-1,35
 1121 1043 1121 1043 1087 1043 c 2,36,-1
 725 1043 l 1,37,-1
 725 684 l 1,38,-1
 1042 684 l 2,39,40
 1076 684 1076 684 1090.5 667.5 c 128,-1,41
 1105 651 1105 651 1105 612 c 256,42,43
 1105 573 1105 573 1090.5 556.5 c 128,-1,44
 1076 540 1076 540 1042 540 c 2,45,-1
 725 540 l 1,46,-1
 725 144 l 1,47,-1
 1107 144 l 2,48,0
 1141 144 1141 144 1155.5 127.5 c 128,-1,1
575 514 m 1,49,-1
 575 1043 l 1,50,-1
 550 1043 l 1,51,-1
 355 514 l 1,52,-1
 575 514 l 1,49,-1
EndSplineSet
EndChar

StartChar: B
Encoding: 66 66 13
Width: 1228
Flags: W
LayerCount: 2
Fore
SplineSet
843 1145.5 m 128,-1,1
 925 1104 925 1104 966.5 1030 c 128,-1,2
 1008 956 1008 956 1008 858 c 0,3,4
 1008 779 1008 779 973 719.5 c 128,-1,5
 938 660 938 660 874 623 c 1,6,7
 970 587 970 587 1022 514.5 c 128,-1,8
 1074 442 1074 442 1074 336 c 0,9,10
 1074 231 1074 231 1029 155.5 c 128,-1,11
 984 80 984 80 898 40 c 128,-1,12
 812 0 812 0 690 0 c 2,13,-1
 268 0 l 2,14,15
 234 0 234 0 219.5 15.5 c 128,-1,16
 205 31 205 31 205 68 c 2,17,-1
 205 1119 l 2,18,19
 205 1156 205 1156 219.5 1171.5 c 128,-1,20
 234 1187 234 1187 268 1187 c 2,21,-1
 644 1187 l 2,22,0
 761 1187 761 1187 843 1145.5 c 128,-1,1
355 1043 m 1,23,-1
 355 675 l 1,24,-1
 622 675 l 2,25,26
 737 675 737 675 795.5 722.5 c 128,-1,27
 854 770 854 770 854 858 c 0,28,29
 854 1043 854 1043 622 1043 c 2,30,-1
 355 1043 l 1,23,-1
355 531 m 1,31,-1
 355 144 l 1,32,-1
 670 144 l 2,33,34
 789 144 789 144 854.5 192.5 c 128,-1,35
 920 241 920 241 920 336 c 0,36,37
 920 434 920 434 855.5 482.5 c 128,-1,38
 791 531 791 531 665 531 c 2,39,-1
 355 531 l 1,31,-1
EndSplineSet
EndChar

StartChar: C
Encoding: 67 67 14
Width: 1228
Flags: W
LayerCount: 2
Fore
SplineSet
855 1184.5 m 128,-1,1
 946 1160 946 1160 1037 1108 c 0,2,3
 1074 1086 1074 1086 1074 1052 c 0,4,5
 1074 1033 1074 1033 1061 1004 c 0,6,7
 1040 960 1040 960 1008 960 c 0,8,9
 994 960 994 960 974 971 c 0,10,11
 823 1061 823 1061 664 1061 c 0,12,13
 556 1061 556 1061 474.5 1004 c 128,-1,14
 393 947 393 947 348.5 841.5 c 128,-1,15
 304 736 304 736 304 594 c 256,16,17
 304 452 304 452 348.5 346 c 128,-1,18
 393 240 393 240 474.5 183 c 128,-1,19
 556 126 556 126 664 126 c 0,20,21
 823 126 823 126 974 216 c 0,22,23
 994 227 994 227 1008 227 c 0,24,25
 1040 227 1040 227 1061 183 c 0,26,27
 1074 154 1074 154 1074 135 c 0,28,29
 1074 101 1074 101 1037 79 c 0,30,31
 946 27 946 27 855 2.5 c 128,-1,32
 764 -22 764 -22 664 -22 c 0,33,34
 511 -22 511 -22 394.5 54.5 c 128,-1,35
 278 131 278 131 214 271 c 128,-1,36
 150 411 150 411 150 594 c 256,37,38
 150 777 150 777 214 916.5 c 128,-1,39
 278 1056 278 1056 394.5 1132.5 c 128,-1,40
 511 1209 511 1209 664 1209 c 0,41,0
 764 1209 764 1209 855 1184.5 c 128,-1,1
EndSplineSet
EndChar

StartChar: Ccedilla
Encoding: 199 199 17
Width: 1228
Flags: W
LayerCount: 2
Fore
SplineSet
1008 227 m 0,1,2
 1040 227 1040 227 1061 183 c 0,3,4
 1074 154 1074 154 1074 135 c 0,5,6
 1074 101 1074 101 1037 79 c 0,7,8
 881 -9 881 -9 713 -21 c 1,9,-1
 713 -113 l 1,10,11
 814 -112 814 -112 865 -159 c 128,-1,12
 916 -206 916 -206 916 -281 c 0,13,14
 916 -368 916 -368 854 -420 c 128,-1,15
 792 -472 792 -472 671 -472 c 0,16,17
 603 -472 603 -472 539 -460 c 128,-1,18
 475 -448 475 -448 424 -424 c 0,19,20
 401 -414 401 -414 401 -389 c 0,21,22
 401 -375 401 -375 409 -354 c 0,23,24
 426 -309 426 -309 455 -309 c 0,25,26
 463 -309 463 -309 468 -311 c 0,27,28
 511 -327 511 -327 562.5 -338 c 128,-1,29
 614 -349 614 -349 661 -349 c 0,30,31
 712 -349 712 -349 741 -332.5 c 128,-1,32
 770 -316 770 -316 770 -285 c 0,33,34
 770 -252 770 -252 743 -236 c 128,-1,35
 716 -220 716 -220 654 -220 c 2,36,-1
 615 -221 l 2,37,38
 600 -221 600 -221 590.5 -210.5 c 128,-1,39
 581 -200 581 -200 581 -177 c 2,40,-1
 581 -16 l 1,41,42
 451 4 451 4 353.5 85 c 128,-1,43
 256 166 256 166 203 297 c 128,-1,44
 150 428 150 428 150 594 c 0,45,46
 150 777 150 777 214 916.5 c 128,-1,47
 278 1056 278 1056 394.5 1132.5 c 128,-1,48
 511 1209 511 1209 664 1209 c 0,49,50
 764 1209 764 1209 855 1184.5 c 128,-1,51
 946 1160 946 1160 1037 1108 c 0,52,53
 1074 1086 1074 1086 1074 1052 c 0,54,55
 1074 1033 1074 1033 1061 1004 c 0,56,57
 1040 960 1040 960 1008 960 c 0,58,59
 994 960 994 960 974 971 c 0,60,61
 823 1061 823 1061 664 1061 c 0,62,63
 556 1061 556 1061 474.5 1004 c 128,-1,64
 393 947 393 947 348.5 841.5 c 128,-1,65
 304 736 304 736 304 594 c 256,66,67
 304 452 304 452 348.5 346 c 128,-1,68
 393 240 393 240 474.5 183 c 128,-1,69
 556 126 556 126 664 126 c 0,70,71
 823 126 823 126 974 216 c 0,72,0
 994 227 994 227 1008 227 c 0,1,2
EndSplineSet
EndChar

StartChar: D
Encoding: 68 68 20
Width: 1228
Flags: W
LayerCount: 2
Fore
SplineSet
850 1115.5 m 128,-1,1
 969 1044 969 1044 1034.5 909.5 c 128,-1,2
 1100 775 1100 775 1100 593 c 256,3,4
 1100 411 1100 411 1034.5 277 c 128,-1,5
 969 143 969 143 850 71.5 c 128,-1,6
 731 0 731 0 574 0 c 2,7,-1
 238 0 l 2,8,9
 204 0 204 0 189.5 15.5 c 128,-1,10
 175 31 175 31 175 68 c 2,11,-1
 175 1119 l 2,12,13
 175 1156 175 1156 189.5 1171.5 c 128,-1,14
 204 1187 204 1187 238 1187 c 2,15,-1
 574 1187 l 2,16,0
 731 1187 731 1187 850 1115.5 c 128,-1,1
325 1043 m 1,17,-1
 325 144 l 1,18,-1
 555 144 l 2,19,20
 675 144 675 144 762.5 194.5 c 128,-1,21
 850 245 850 245 898 346 c 128,-1,22
 946 447 946 447 946 593 c 256,23,24
 946 739 946 739 898 840 c 128,-1,25
 850 941 850 941 762.5 992 c 128,-1,26
 675 1043 675 1043 555 1043 c 2,27,-1
 325 1043 l 1,17,-1
EndSplineSet
EndChar

StartChar: Eth
Encoding: 208 208 21
Width: 1228
Flags: W
LayerCount: 2
Fore
SplineSet
870 1115.5 m 128,-1,1
 989 1044 989 1044 1054.5 909.5 c 128,-1,2
 1120 775 1120 775 1120 593 c 256,3,4
 1120 411 1120 411 1054.5 277 c 128,-1,5
 989 143 989 143 870 71.5 c 128,-1,6
 751 0 751 0 594 0 c 2,7,-1
 288 0 l 2,8,9
 254 0 254 0 239.5 15.5 c 128,-1,10
 225 31 225 31 225 68 c 2,11,-1
 225 540 l 1,12,-1
 113 540 l 2,13,14
 79 540 79 540 64.5 556.5 c 128,-1,15
 50 573 50 573 50 612 c 256,16,17
 50 651 50 651 64.5 667.5 c 128,-1,18
 79 684 79 684 113 684 c 2,19,-1
 225 684 l 1,20,-1
 225 1119 l 2,21,22
 225 1156 225 1156 239.5 1171.5 c 128,-1,23
 254 1187 254 1187 288 1187 c 2,24,-1
 594 1187 l 2,25,0
 751 1187 751 1187 870 1115.5 c 128,-1,1
782.5 194.5 m 128,-1,27
 870 245 870 245 918 346 c 128,-1,28
 966 447 966 447 966 593 c 256,29,30
 966 739 966 739 918 840 c 128,-1,31
 870 941 870 941 782.5 992 c 128,-1,32
 695 1043 695 1043 575 1043 c 2,33,-1
 375 1043 l 1,34,-1
 375 684 l 1,35,-1
 595 684 l 2,36,37
 629 684 629 684 643.5 667.5 c 128,-1,38
 658 651 658 651 658 612 c 256,39,40
 658 573 658 573 643.5 556.5 c 128,-1,41
 629 540 629 540 595 540 c 2,42,-1
 375 540 l 1,43,-1
 375 144 l 1,44,-1
 575 144 l 2,45,26
 695 144 695 144 782.5 194.5 c 128,-1,27
EndSplineSet
EndChar

StartChar: E
Encoding: 69 69 24
Width: 1228
Flags: W
LayerCount: 2
Fore
SplineSet
1025.5 127.5 m 128,-1,1
 1040 111 1040 111 1040 72 c 256,2,3
 1040 33 1040 33 1025.5 16.5 c 128,-1,4
 1011 0 1011 0 977 0 c 2,5,-1
 329 0 l 1,6,-1
 288 0 l 2,7,8
 254 0 254 0 239.5 15.5 c 128,-1,9
 225 31 225 31 225 68 c 2,10,-1
 225 1119 l 2,11,12
 225 1156 225 1156 239.5 1171.5 c 128,-1,13
 254 1187 254 1187 288 1187 c 2,14,-1
 375 1187 l 1,15,-1
 957 1187 l 2,16,17
 991 1187 991 1187 1005.5 1170.5 c 128,-1,18
 1020 1154 1020 1154 1020 1115 c 256,19,20
 1020 1076 1020 1076 1005.5 1059.5 c 128,-1,21
 991 1043 991 1043 957 1043 c 2,22,-1
 375 1043 l 1,23,-1
 375 684 l 1,24,-1
 832 684 l 2,25,26
 866 684 866 684 880.5 667.5 c 128,-1,27
 895 651 895 651 895 612 c 256,28,29
 895 573 895 573 880.5 556.5 c 128,-1,30
 866 540 866 540 832 540 c 2,31,-1
 375 540 l 1,32,-1
 375 144 l 1,33,-1
 977 144 l 2,34,0
 1011 144 1011 144 1025.5 127.5 c 128,-1,1
EndSplineSet
EndChar

StartChar: Eogonek
Encoding: 280 280 33
Width: 1228
Flags: W
LayerCount: 2
Fore
SplineSet
1049 -393 m 0,1,2
 1049 -415 1049 -415 1040.5 -427.5 c 128,-1,3
 1032 -440 1032 -440 1015 -446 c 0,4,5
 940 -472 940 -472 851 -472 c 0,6,7
 758 -472 758 -472 704.5 -420 c 128,-1,8
 651 -368 651 -368 651 -281 c 0,9,10
 651 -208 651 -208 691 -139 c 128,-1,11
 731 -70 731 -70 807 0 c 1,12,-1
 329 0 l 1,13,-1
 288 0 l 2,14,15
 254 0 254 0 239.5 15.5 c 128,-1,16
 225 31 225 31 225 68 c 2,17,-1
 225 1119 l 2,18,19
 225 1156 225 1156 239.5 1171.5 c 128,-1,20
 254 1187 254 1187 288 1187 c 2,21,-1
 375 1187 l 1,22,-1
 957 1187 l 2,23,24
 991 1187 991 1187 1005.5 1170.5 c 128,-1,25
 1020 1154 1020 1154 1020 1115 c 256,26,27
 1020 1076 1020 1076 1005.5 1059.5 c 128,-1,28
 991 1043 991 1043 957 1043 c 2,29,-1
 375 1043 l 1,30,-1
 375 684 l 1,31,-1
 832 684 l 2,32,33
 866 684 866 684 880.5 667.5 c 128,-1,34
 895 651 895 651 895 612 c 256,35,36
 895 573 895 573 880.5 556.5 c 128,-1,37
 866 540 866 540 832 540 c 2,38,-1
 375 540 l 1,39,-1
 375 144 l 1,40,-1
 977 144 l 2,41,42
 1011 144 1011 144 1025.5 127.5 c 128,-1,43
 1040 111 1040 111 1040 72 c 256,44,45
 1040 33 1040 33 1025.5 16.5 c 128,-1,46
 1011 0 1011 0 977 0 c 2,47,-1
 973 0 l 1,48,49
 884 -83 884 -83 845.5 -144 c 128,-1,50
 807 -205 807 -205 807 -260 c 0,51,52
 807 -295 807 -295 828 -314 c 128,-1,53
 849 -333 849 -333 884 -333 c 0,54,55
 936 -333 936 -333 997 -316 c 0,56,57
 1005 -314 1005 -314 1008 -314 c 0,58,59
 1038 -314 1038 -314 1047 -368 c 0,60,0
 1049 -386 1049 -386 1049 -393 c 0,1,2
EndSplineSet
EndChar

StartChar: F
Encoding: 70 70 34
Width: 1228
Flags: W
LayerCount: 2
Fore
SplineSet
1025.5 1170.5 m 128,-1,1
 1040 1154 1040 1154 1040 1115 c 256,2,3
 1040 1076 1040 1076 1025.5 1059.5 c 128,-1,4
 1011 1043 1011 1043 977 1043 c 2,5,-1
 395 1043 l 1,6,-1
 395 644 l 1,7,-1
 862 644 l 2,8,9
 896 644 896 644 910.5 627.5 c 128,-1,10
 925 611 925 611 925 572 c 256,11,12
 925 533 925 533 910.5 516.5 c 128,-1,13
 896 500 896 500 862 500 c 2,14,-1
 395 500 l 1,15,-1
 395 55 l 2,16,17
 395 20 395 20 378.5 5 c 128,-1,18
 362 -10 362 -10 321 -10 c 2,19,-1
 319 -10 l 2,20,21
 278 -10 278 -10 261.5 5 c 128,-1,22
 245 20 245 20 245 55 c 2,23,-1
 245 1119 l 2,24,25
 245 1156 245 1156 260.5 1171.5 c 128,-1,26
 276 1187 276 1187 308 1187 c 2,27,-1
 395 1187 l 1,28,-1
 977 1187 l 2,29,0
 1011 1187 1011 1187 1025.5 1170.5 c 128,-1,1
EndSplineSet
EndChar

StartChar: G
Encoding: 71 71 35
Width: 1228
Flags: W
LayerCount: 2
Fore
SplineSet
1068.5 578.5 m 128,-1,1
 1083 563 1083 563 1083 526 c 2,2,-1
 1083 143 l 2,3,4
 1083 94 1083 94 1047 74 c 0,5,6
 965 27 965 27 858 2.5 c 128,-1,7
 751 -22 751 -22 634 -22 c 0,8,9
 478 -22 478 -22 359 54.5 c 128,-1,10
 240 131 240 131 175 271 c 128,-1,11
 110 411 110 411 110 594 c 0,12,13
 110 776 110 776 178.5 915.5 c 128,-1,14
 247 1055 247 1055 368.5 1132 c 128,-1,15
 490 1209 490 1209 644 1209 c 0,16,17
 747 1209 747 1209 836.5 1187.5 c 128,-1,18
 926 1166 926 1166 1015 1118 c 0,19,20
 1053 1097 1053 1097 1053 1061 c 0,21,22
 1053 1042 1053 1042 1042 1015 c 0,23,24
 1022 970 1022 970 989 970 c 0,25,26
 973 970 973 970 955 980 c 0,27,28
 813 1061 813 1061 644 1061 c 0,29,30
 535 1061 535 1061 449 1004 c 128,-1,31
 363 947 363 947 313.5 841 c 128,-1,32
 264 735 264 735 264 594 c 0,33,34
 264 452 264 452 310 346 c 128,-1,35
 356 240 356 240 440 183 c 128,-1,36
 524 126 524 126 634 126 c 0,37,38
 809 126 809 126 933 183 c 1,39,-1
 933 450 l 1,40,-1
 666 450 l 2,41,42
 632 450 632 450 617.5 466.5 c 128,-1,43
 603 483 603 483 603 522 c 256,44,45
 603 561 603 561 617.5 577.5 c 128,-1,46
 632 594 632 594 666 594 c 2,47,-1
 992 594 l 1,48,-1
 1020 594 l 2,49,0
 1054 594 1054 594 1068.5 578.5 c 128,-1,1
EndSplineSet
EndChar

StartChar: H
Encoding: 72 72 40
Width: 1228
Flags: W
LayerCount: 2
Fore
SplineSet
1036.5 1182 m 128,-1,1
 1053 1167 1053 1167 1053 1132 c 2,2,-1
 1053 55 l 2,3,4
 1053 20 1053 20 1036.5 5 c 128,-1,5
 1020 -10 1020 -10 979 -10 c 2,6,-1
 977 -10 l 2,7,8
 936 -10 936 -10 919.5 5 c 128,-1,9
 903 20 903 20 903 55 c 2,10,-1
 903 540 l 1,11,-1
 325 540 l 1,12,-1
 325 55 l 2,13,14
 325 20 325 20 308.5 5 c 128,-1,15
 292 -10 292 -10 251 -10 c 2,16,-1
 249 -10 l 2,17,18
 208 -10 208 -10 191.5 5 c 128,-1,19
 175 20 175 20 175 55 c 2,20,-1
 175 1132 l 2,21,22
 175 1167 175 1167 191.5 1182 c 128,-1,23
 208 1197 208 1197 249 1197 c 2,24,-1
 251 1197 l 2,25,26
 292 1197 292 1197 308.5 1182 c 128,-1,27
 325 1167 325 1167 325 1132 c 2,28,-1
 325 684 l 1,29,-1
 903 684 l 1,30,-1
 903 1132 l 2,31,32
 903 1167 903 1167 919.5 1182 c 128,-1,33
 936 1197 936 1197 977 1197 c 2,34,-1
 979 1197 l 2,35,0
 1020 1197 1020 1197 1036.5 1182 c 128,-1,1
EndSplineSet
EndChar

StartChar: Hbar
Encoding: 294 294 41
Width: 1228
Flags: W
LayerCount: 2
Fore
SplineSet
1183.5 957.5 m 128,-1,1
 1198 941 1198 941 1198 902 c 256,2,3
 1198 863 1198 863 1183.5 846.5 c 128,-1,4
 1169 830 1169 830 1135 830 c 2,5,-1
 1053 830 l 1,6,-1
 1053 55 l 2,7,8
 1053 20 1053 20 1036.5 5 c 128,-1,9
 1020 -10 1020 -10 979 -10 c 2,10,-1
 977 -10 l 2,11,12
 936 -10 936 -10 919.5 5 c 128,-1,13
 903 20 903 20 903 55 c 2,14,-1
 903 540 l 1,15,-1
 325 540 l 1,16,-1
 325 55 l 2,17,18
 325 20 325 20 308.5 5 c 128,-1,19
 292 -10 292 -10 251 -10 c 2,20,-1
 249 -10 l 2,21,22
 208 -10 208 -10 191.5 5 c 128,-1,23
 175 20 175 20 175 55 c 2,24,-1
 175 830 l 1,25,-1
 93 830 l 2,26,27
 59 830 59 830 44.5 846.5 c 128,-1,28
 30 863 30 863 30 902 c 256,29,30
 30 941 30 941 44.5 957.5 c 128,-1,31
 59 974 59 974 93 974 c 2,32,-1
 175 974 l 1,33,-1
 175 1132 l 2,34,35
 175 1167 175 1167 191.5 1182 c 128,-1,36
 208 1197 208 1197 249 1197 c 2,37,-1
 251 1197 l 2,38,39
 292 1197 292 1197 308.5 1182 c 128,-1,40
 325 1167 325 1167 325 1132 c 2,41,-1
 325 974 l 1,42,-1
 903 974 l 1,43,-1
 903 1132 l 2,44,45
 903 1167 903 1167 919.5 1182 c 128,-1,46
 936 1197 936 1197 977 1197 c 2,47,-1
 979 1197 l 2,48,49
 1020 1197 1020 1197 1036.5 1182 c 128,-1,50
 1053 1167 1053 1167 1053 1132 c 2,51,-1
 1053 974 l 1,52,-1
 1135 974 l 2,53,0
 1169 974 1169 974 1183.5 957.5 c 128,-1,1
903 830 m 1,54,-1
 325 830 l 1,55,-1
 325 684 l 1,56,-1
 903 684 l 1,57,-1
 903 830 l 1,54,-1
EndSplineSet
EndChar

StartChar: I
Encoding: 73 73 43
Width: 1228
Flags: W
LayerCount: 2
Fore
SplineSet
1013.5 127.5 m 128,-1,1
 1028 111 1028 111 1028 72 c 256,2,3
 1028 33 1028 33 1013.5 16.5 c 128,-1,4
 999 0 999 0 965 0 c 2,5,-1
 263 0 l 2,6,7
 229 0 229 0 214.5 16.5 c 128,-1,8
 200 33 200 33 200 72 c 256,9,10
 200 111 200 111 214.5 127.5 c 128,-1,11
 229 144 229 144 263 144 c 2,12,-1
 539 144 l 1,13,-1
 539 1043 l 1,14,-1
 283 1043 l 2,15,16
 249 1043 249 1043 234.5 1059.5 c 128,-1,17
 220 1076 220 1076 220 1115 c 256,18,19
 220 1154 220 1154 234.5 1170.5 c 128,-1,20
 249 1187 249 1187 283 1187 c 2,21,-1
 945 1187 l 2,22,23
 979 1187 979 1187 993.5 1170.5 c 128,-1,24
 1008 1154 1008 1154 1008 1115 c 256,25,26
 1008 1076 1008 1076 993.5 1059.5 c 128,-1,27
 979 1043 979 1043 945 1043 c 2,28,-1
 689 1043 l 1,29,-1
 689 144 l 1,30,-1
 965 144 l 2,31,0
 999 144 999 144 1013.5 127.5 c 128,-1,1
EndSplineSet
EndChar

StartChar: IJ
Encoding: 306 306 44
Width: 1228
Flags: W
LayerCount: 2
Fore
SplineSet
312.5 1182 m 128,-1,1
 329 1167 329 1167 329 1132 c 2,2,-1
 329 55 l 2,3,4
 329 20 329 20 312.5 5 c 128,-1,5
 296 -10 296 -10 255 -10 c 2,6,-1
 253 -10 l 2,7,8
 212 -10 212 -10 195.5 5 c 128,-1,9
 179 20 179 20 179 55 c 2,10,-1
 179 1132 l 2,11,12
 179 1167 179 1167 195.5 1182 c 128,-1,13
 212 1197 212 1197 253 1197 c 2,14,-1
 255 1197 l 2,15,0
 296 1197 296 1197 312.5 1182 c 128,-1,1
1037.5 1182 m 128,-1,17
 1054 1167 1054 1167 1054 1132 c 2,18,-1
 1054 253 l 2,19,20
 1054 119 1054 119 983.5 48.5 c 128,-1,21
 913 -22 913 -22 781 -22 c 0,22,23
 726 -22 726 -22 662 -9 c 128,-1,24
 598 4 598 4 550 28 c 0,25,26
 511 48 511 48 511 81 c 0,27,28
 511 98 511 98 522 125 c 0,29,30
 543 174 543 174 579 174 c 0,31,32
 591 174 591 174 607 167 c 0,33,34
 646 148 646 148 692 137 c 128,-1,35
 738 126 738 126 782 126 c 0,36,37
 845 126 845 126 874.5 163 c 128,-1,38
 904 200 904 200 904 283 c 2,39,-1
 904 1132 l 2,40,41
 904 1167 904 1167 920.5 1182 c 128,-1,42
 937 1197 937 1197 978 1197 c 2,43,-1
 980 1197 l 2,44,16
 1021 1197 1021 1197 1037.5 1182 c 128,-1,17
EndSplineSet
EndChar

StartChar: Iogonek
Encoding: 302 302 52
Width: 1228
Flags: W
LayerCount: 2
Fore
SplineSet
1013.5 127.5 m 128,-1,1
 1028 111 1028 111 1028 72 c 256,2,3
 1028 33 1028 33 1013.5 16.5 c 128,-1,4
 999 0 999 0 965 0 c 2,5,-1
 693 0 l 1,6,7
 604 -83 604 -83 565.5 -144 c 128,-1,8
 527 -205 527 -205 527 -260 c 0,9,10
 527 -295 527 -295 548 -314 c 128,-1,11
 569 -333 569 -333 604 -333 c 0,12,13
 656 -333 656 -333 717 -316 c 0,14,15
 725 -314 725 -314 728 -314 c 0,16,17
 758 -314 758 -314 767 -368 c 0,18,19
 769 -386 769 -386 769 -393 c 0,20,21
 769 -415 769 -415 760.5 -427.5 c 128,-1,22
 752 -440 752 -440 735 -446 c 0,23,24
 660 -472 660 -472 571 -472 c 0,25,26
 478 -472 478 -472 424.5 -420 c 128,-1,27
 371 -368 371 -368 371 -281 c 0,28,29
 371 -208 371 -208 411 -139 c 128,-1,30
 451 -70 451 -70 527 0 c 1,31,-1
 263 0 l 2,32,33
 229 0 229 0 214.5 16.5 c 128,-1,34
 200 33 200 33 200 72 c 256,35,36
 200 111 200 111 214.5 127.5 c 128,-1,37
 229 144 229 144 263 144 c 2,38,-1
 539 144 l 1,39,-1
 539 1043 l 1,40,-1
 283 1043 l 2,41,42
 249 1043 249 1043 234.5 1059.5 c 128,-1,43
 220 1076 220 1076 220 1115 c 256,44,45
 220 1154 220 1154 234.5 1170.5 c 128,-1,46
 249 1187 249 1187 283 1187 c 2,47,-1
 945 1187 l 2,48,49
 979 1187 979 1187 993.5 1170.5 c 128,-1,50
 1008 1154 1008 1154 1008 1115 c 256,51,52
 1008 1076 1008 1076 993.5 1059.5 c 128,-1,53
 979 1043 979 1043 945 1043 c 2,54,-1
 689 1043 l 1,55,-1
 689 144 l 1,56,-1
 965 144 l 2,57,0
 999 144 999 144 1013.5 127.5 c 128,-1,1
EndSplineSet
EndChar

StartChar: J
Encoding: 74 74 54
Width: 1228
Flags: W
LayerCount: 2
Fore
SplineSet
938.5 1171.5 m 128,-1,1
 954 1156 954 1156 954 1119 c 2,2,-1
 954 333 l 2,3,4
 954 162 954 162 856.5 70 c 128,-1,5
 759 -22 759 -22 581 -22 c 0,6,7
 480 -22 480 -22 384.5 7.5 c 128,-1,8
 289 37 289 37 214 92 c 0,9,10
 184 115 184 115 184 144 c 0,11,12
 184 167 184 167 202 197 c 0,13,14
 228 236 228 236 258 236 c 0,15,16
 275 236 275 236 294 222 c 0,17,18
 356 175 356 175 430 150.5 c 128,-1,19
 504 126 504 126 582 126 c 0,20,21
 804 126 804 126 804 363 c 2,22,-1
 804 1043 l 1,23,-1
 443 1043 l 2,24,25
 409 1043 409 1043 394.5 1059.5 c 128,-1,26
 380 1076 380 1076 380 1115 c 256,27,28
 380 1154 380 1154 394.5 1170.5 c 128,-1,29
 409 1187 409 1187 443 1187 c 2,30,-1
 861 1187 l 1,31,-1
 891 1187 l 2,32,0
 923 1187 923 1187 938.5 1171.5 c 128,-1,1
EndSplineSet
EndChar

StartChar: K
Encoding: 75 75 56
Width: 1228
Flags: W
LayerCount: 2
Fore
SplineSet
1095 52 m 0,1,2
 1095 24 1095 24 1052 0 c 0,3,4
 1019 -19 1019 -19 997 -19 c 0,5,6
 972 -19 972 -19 953 6 c 2,7,-1
 539 550 l 1,8,-1
 365 366 l 1,9,-1
 365 55 l 2,10,11
 365 20 365 20 348.5 5 c 128,-1,12
 332 -10 332 -10 291 -10 c 2,13,-1
 289 -10 l 2,14,15
 248 -10 248 -10 231.5 5 c 128,-1,16
 215 20 215 20 215 55 c 2,17,-1
 215 1132 l 2,18,19
 215 1167 215 1167 231.5 1182 c 128,-1,20
 248 1197 248 1197 289 1197 c 2,21,-1
 291 1197 l 2,22,23
 332 1197 332 1197 348.5 1182 c 128,-1,24
 365 1167 365 1167 365 1132 c 2,25,-1
 365 584 l 1,26,-1
 936 1191 l 2,27,28
 952 1208 952 1208 976 1208 c 0,29,30
 1004 1208 1004 1208 1036 1187 c 0,31,32
 1075 1162 1075 1162 1075 1136 c 0,33,34
 1075 1116 1075 1116 1053 1094 c 2,35,-1
 644 661 l 1,36,-1
 1078 92 l 2,37,0
 1095 69 1095 69 1095 52 c 0,1,2
EndSplineSet
EndChar

StartChar: L
Encoding: 76 76 58
Width: 1228
Flags: W
LayerCount: 2
Fore
SplineSet
1025.5 127.5 m 128,-1,1
 1040 111 1040 111 1040 72 c 256,2,3
 1040 33 1040 33 1025.5 16.5 c 128,-1,4
 1011 0 1011 0 977 0 c 2,5,-1
 349 0 l 1,6,-1
 308 0 l 2,7,8
 273 0 273 0 259 15.5 c 128,-1,9
 245 31 245 31 245 68 c 2,10,-1
 245 1132 l 2,11,12
 245 1167 245 1167 261.5 1182 c 128,-1,13
 278 1197 278 1197 319 1197 c 2,14,-1
 321 1197 l 2,15,16
 362 1197 362 1197 378.5 1182 c 128,-1,17
 395 1167 395 1167 395 1132 c 2,18,-1
 395 144 l 1,19,-1
 977 144 l 2,20,0
 1011 144 1011 144 1025.5 127.5 c 128,-1,1
EndSplineSet
EndChar

StartChar: Lslash
Encoding: 321 321 63
Width: 1228
Flags: W
LayerCount: 2
Fore
SplineSet
1025.5 127.5 m 128,-1,1
 1040 111 1040 111 1040 72 c 256,2,3
 1040 33 1040 33 1025.5 16.5 c 128,-1,4
 1011 0 1011 0 977 0 c 2,5,-1
 409 0 l 1,6,-1
 368 0 l 2,7,8
 333 0 333 0 319 15.5 c 128,-1,9
 305 31 305 31 305 68 c 2,10,-1
 305 448 l 1,11,-1
 169 356 l 2,12,13
 145 340 145 340 129 340 c 0,14,15
 103 340 103 340 78 377 c 0,16,17
 60 404 60 404 60 422 c 0,18,19
 60 447 60 447 92 468 c 2,20,-1
 305 613 l 1,21,-1
 305 1132 l 2,22,23
 305 1167 305 1167 321.5 1182 c 128,-1,24
 338 1197 338 1197 379 1197 c 2,25,-1
 381 1197 l 2,26,27
 422 1197 422 1197 438.5 1182 c 128,-1,28
 455 1167 455 1167 455 1132 c 2,29,-1
 455 715 l 1,30,-1
 661 855 l 2,31,32
 685 871 685 871 701 871 c 0,33,34
 727 871 727 871 752 834 c 0,35,36
 770 807 770 807 770 789 c 0,37,38
 770 764 770 764 738 743 c 2,39,-1
 455 551 l 1,40,-1
 455 144 l 1,41,-1
 977 144 l 2,42,0
 1011 144 1011 144 1025.5 127.5 c 128,-1,1
EndSplineSet
EndChar

StartChar: M
Encoding: 77 77 64
Width: 1228
Flags: W
LayerCount: 2
Fore
SplineSet
1033.5 1182.5 m 128,-1,1
 1052 1168 1052 1168 1053 1132 c 2,2,-1
 1083 55 l 2,3,4
 1084 20 1084 20 1067.5 5 c 128,-1,5
 1051 -10 1051 -10 1010 -10 c 2,6,-1
 1008 -10 l 2,7,8
 967 -10 967 -10 951 5 c 128,-1,9
 935 20 935 20 934 55 c 2,10,-1
 913 868 l 1,11,-1
 706 422 l 2,12,13
 690 387 690 387 669 372.5 c 128,-1,14
 648 358 648 358 614 358 c 256,15,16
 580 358 580 358 559 372.5 c 128,-1,17
 538 387 538 387 522 422 c 2,18,-1
 315 868 l 1,19,-1
 294 55 l 2,20,21
 293 20 293 20 277 5 c 128,-1,22
 261 -10 261 -10 220 -10 c 2,23,-1
 218 -10 l 2,24,25
 177 -10 177 -10 160.5 5 c 128,-1,26
 144 20 144 20 145 55 c 2,27,-1
 175 1132 l 2,28,29
 176 1168 176 1168 195 1182.5 c 128,-1,30
 214 1197 214 1197 251 1197 c 2,31,-1
 253 1197 l 2,32,33
 288 1197 288 1197 310.5 1181.5 c 128,-1,34
 333 1166 333 1166 349 1132 c 2,35,-1
 614 562 l 1,36,-1
 879 1132 l 2,37,38
 895 1166 895 1166 918 1181.5 c 128,-1,39
 941 1197 941 1197 976 1197 c 2,40,-1
 978 1197 l 2,41,0
 1015 1197 1015 1197 1033.5 1182.5 c 128,-1,1
EndSplineSet
EndChar

StartChar: N
Encoding: 78 78 65
Width: 1228
Flags: W
LayerCount: 2
Fore
SplineSet
1037 1182 m 128,-1,1
 1053 1167 1053 1167 1053 1132 c 2,2,-1
 1053 37 l 2,3,4
 1053 10 1053 10 1034.5 -6 c 128,-1,5
 1016 -22 1016 -22 978 -22 c 0,6,7
 951 -22 951 -22 931.5 -8 c 128,-1,8
 912 6 912 6 894 33 c 2,9,-1
 325 921 l 1,10,-1
 321 921 l 1,11,-1
 321 55 l 2,12,13
 321 20 321 20 305 5 c 128,-1,14
 289 -10 289 -10 249 -10 c 2,15,-1
 247 -10 l 2,16,17
 207 -10 207 -10 191 5 c 128,-1,18
 175 20 175 20 175 55 c 2,19,-1
 175 1132 l 2,20,21
 175 1167 175 1167 192 1182 c 128,-1,22
 209 1197 209 1197 250 1197 c 2,23,-1
 277 1197 l 2,24,25
 320 1197 320 1197 339 1169 c 2,26,-1
 903 287 l 1,27,-1
 907 287 l 1,28,-1
 907 1132 l 2,29,30
 907 1167 907 1167 923 1182 c 128,-1,31
 939 1197 939 1197 979 1197 c 2,32,-1
 981 1197 l 2,33,0
 1021 1197 1021 1197 1037 1182 c 128,-1,1
EndSplineSet
EndChar

StartChar: Eng
Encoding: 330 330 69
Width: 1228
Flags: W
LayerCount: 2
Fore
SplineSet
1037 1182 m 128,-1,1
 1053 1167 1053 1167 1053 1132 c 2,2,-1
 1053 -135 l 2,3,4
 1053 -269 1053 -269 982.5 -339.5 c 128,-1,5
 912 -410 912 -410 780 -410 c 0,6,7
 722 -410 722 -410 662 -396.5 c 128,-1,8
 602 -383 602 -383 549 -360 c 0,9,10
 510 -343 510 -343 510 -308 c 0,11,12
 510 -292 510 -292 521 -265 c 0,13,14
 542 -218 542 -218 576 -218 c 0,15,16
 591 -218 591 -218 604 -224 c 0,17,18
 700 -264 700 -264 781 -264 c 0,19,20
 844 -264 844 -264 873.5 -227 c 128,-1,21
 903 -190 903 -190 903 -107 c 2,22,-1
 903 19 l 1,23,-1
 325 921 l 1,24,-1
 321 921 l 1,25,-1
 321 55 l 2,26,27
 321 20 321 20 305 5 c 128,-1,28
 289 -10 289 -10 249 -10 c 2,29,-1
 247 -10 l 2,30,31
 207 -10 207 -10 191 5 c 128,-1,32
 175 20 175 20 175 55 c 2,33,-1
 175 1132 l 2,34,35
 175 1167 175 1167 192 1182 c 128,-1,36
 209 1197 209 1197 250 1197 c 2,37,-1
 277 1197 l 2,38,39
 320 1197 320 1197 339 1169 c 2,40,-1
 903 287 l 1,41,-1
 907 287 l 1,42,-1
 907 1132 l 2,43,44
 907 1167 907 1167 923 1182 c 128,-1,45
 939 1197 939 1197 979 1197 c 2,46,-1
 981 1197 l 2,47,0
 1021 1197 1021 1197 1037 1182 c 128,-1,1
EndSplineSet
EndChar

StartChar: O
Encoding: 79 79 71
Width: 1228
Flags: W
LayerCount: 2
Fore
SplineSet
889 1132.5 m 128,-1,1
 1008 1056 1008 1056 1073 916 c 128,-1,2
 1138 776 1138 776 1138 593 c 256,3,4
 1138 410 1138 410 1073 270.5 c 128,-1,5
 1008 131 1008 131 889 54.5 c 128,-1,6
 770 -22 770 -22 614 -22 c 256,7,8
 458 -22 458 -22 339 54.5 c 128,-1,9
 220 131 220 131 155 270.5 c 128,-1,10
 90 410 90 410 90 593 c 256,11,12
 90 776 90 776 155 916 c 128,-1,13
 220 1056 220 1056 339 1132.5 c 128,-1,14
 458 1209 458 1209 614 1209 c 256,15,0
 770 1209 770 1209 889 1132.5 c 128,-1,1
419 1004.5 m 128,-1,17
 335 948 335 948 289.5 842 c 128,-1,18
 244 736 244 736 244 593 c 256,19,20
 244 450 244 450 289.5 344.5 c 128,-1,21
 335 239 335 239 418.5 182.5 c 128,-1,22
 502 126 502 126 614 126 c 256,23,24
 726 126 726 126 809.5 182.5 c 128,-1,25
 893 239 893 239 938.5 344.5 c 128,-1,26
 984 450 984 450 984 593 c 256,27,28
 984 736 984 736 938.5 842 c 128,-1,29
 893 948 893 948 809 1004.5 c 128,-1,30
 725 1061 725 1061 614 1061 c 256,31,16
 503 1061 503 1061 419 1004.5 c 128,-1,17
EndSplineSet
Substitution2: "Single Substitution lookup 9 subtable" ordmasculine
Substitution2: "'aalt' Access All Alternates lookup 0 subtable" ordmasculine
EndChar

StartChar: Oslash
Encoding: 216 216 79
Width: 1228
Flags: W
LayerCount: 2
Fore
SplineSet
1103 838 m 128,-1,1
 1138 727 1138 727 1138 593 c 0,2,3
 1138 410 1138 410 1073 270.5 c 128,-1,4
 1008 131 1008 131 889 54.5 c 128,-1,5
 770 -22 770 -22 614 -22 c 0,6,7
 452 -22 452 -22 329 61 c 1,8,-1
 252 -50 l 2,9,10
 229 -82 229 -82 205 -82 c 0,11,12
 187 -82 187 -82 158 -63 c 0,13,14
 121 -38 121 -38 121 -11 c 0,15,16
 121 6 121 6 137 30 c 2,17,-1
 225 157 l 1,18,19
 160 238 160 238 125 349 c 128,-1,20
 90 460 90 460 90 593 c 0,21,22
 90 776 90 776 155 916 c 128,-1,23
 220 1056 220 1056 339 1132.5 c 128,-1,24
 458 1209 458 1209 614 1209 c 0,25,26
 777 1209 777 1209 898 1126 c 1,27,-1
 976 1239 l 2,28,29
 999 1271 999 1271 1024 1271 c 0,30,31
 1043 1271 1043 1271 1071 1252 c 0,32,33
 1106 1227 1106 1227 1106 1200 c 0,34,35
 1106 1182 1106 1182 1091 1159 c 2,36,-1
 1002 1030 l 1,37,0
 1068 949 1068 949 1103 838 c 128,-1,1
317 290 m 1,39,-1
 812 1002 l 1,40,41
 729 1061 729 1061 614 1061 c 0,42,43
 503 1061 503 1061 419 1004.5 c 128,-1,44
 335 948 335 948 289.5 842 c 128,-1,45
 244 736 244 736 244 593 c 0,46,38
 244 411 244 411 317 290 c 1,39,-1
809.5 182.5 m 128,-1,48
 893 239 893 239 938.5 344.5 c 128,-1,49
 984 450 984 450 984 593 c 0,50,51
 984 775 984 775 910 898 c 1,52,-1
 415 185 l 1,53,54
 502 126 502 126 614 126 c 256,55,47
 726 126 726 126 809.5 182.5 c 128,-1,48
EndSplineSet
EndChar

StartChar: OE
Encoding: 338 338 81
Width: 1228
Flags: W
LayerCount: 2
Fore
SplineSet
1126.5 127.5 m 128,-1,1
 1141 111 1141 111 1141 72 c 256,2,3
 1141 33 1141 33 1126.5 16.5 c 128,-1,4
 1112 0 1112 0 1078 0 c 2,5,-1
 680 0 l 1,6,-1
 611 0 l 1,7,8
 452 -4 452 -4 333 66 c 128,-1,9
 214 136 214 136 149 271.5 c 128,-1,10
 84 407 84 407 84 593 c 256,11,12
 84 779 84 779 149 914.5 c 128,-1,13
 214 1050 214 1050 333 1120.5 c 128,-1,14
 452 1191 452 1191 611 1187 c 1,15,-1
 736 1187 l 1,16,-1
 1058 1187 l 2,17,18
 1092 1187 1092 1187 1106.5 1170.5 c 128,-1,19
 1121 1154 1121 1154 1121 1115 c 256,20,21
 1121 1076 1121 1076 1106.5 1059.5 c 128,-1,22
 1092 1043 1092 1043 1058 1043 c 2,23,-1
 736 1043 l 1,24,-1
 736 684 l 1,25,-1
 983 684 l 2,26,27
 1017 684 1017 684 1031.5 667.5 c 128,-1,28
 1046 651 1046 651 1046 612 c 256,29,30
 1046 573 1046 573 1031.5 556.5 c 128,-1,31
 1017 540 1017 540 983 540 c 2,32,-1
 736 540 l 1,33,-1
 736 144 l 1,34,-1
 1078 144 l 2,35,0
 1112 144 1112 144 1126.5 127.5 c 128,-1,1
281 349 m 128,-1,37
 324 248 324 248 402.5 194 c 128,-1,38
 481 140 481 140 586 136 c 1,39,-1
 586 1050 l 1,40,41
 481 1046 481 1046 402.5 992.5 c 128,-1,42
 324 939 324 939 281 837.5 c 128,-1,43
 238 736 238 736 238 593 c 256,44,36
 238 450 238 450 281 349 c 128,-1,37
EndSplineSet
EndChar

StartChar: P
Encoding: 80 80 82
Width: 1228
Flags: W
LayerCount: 2
Fore
SplineSet
874.5 1137 m 128,-1,1
 972 1087 972 1087 1022 997 c 128,-1,2
 1072 907 1072 907 1072 788 c 0,3,4
 1072 670 1072 670 1022 580.5 c 128,-1,5
 972 491 972 491 874.5 442 c 128,-1,6
 777 393 777 393 640 393 c 2,7,-1
 385 393 l 1,8,-1
 385 55 l 2,9,10
 385 20 385 20 368.5 5 c 128,-1,11
 352 -10 352 -10 311 -10 c 2,12,-1
 309 -10 l 2,13,14
 268 -10 268 -10 251.5 5 c 128,-1,15
 235 20 235 20 235 55 c 2,16,-1
 235 1119 l 2,17,18
 235 1156 235 1156 249.5 1171.5 c 128,-1,19
 264 1187 264 1187 298 1187 c 2,20,-1
 385 1187 l 1,21,-1
 640 1187 l 2,22,0
 777 1187 777 1187 874.5 1137 c 128,-1,1
841.5 602.5 m 128,-1,24
 918 668 918 668 918 788 c 0,25,26
 918 910 918 910 841.5 976.5 c 128,-1,27
 765 1043 765 1043 619 1043 c 2,28,-1
 385 1043 l 1,29,-1
 385 537 l 1,30,-1
 619 537 l 2,31,23
 765 537 765 537 841.5 602.5 c 128,-1,24
EndSplineSet
EndChar

StartChar: Thorn
Encoding: 222 222 83
Width: 1228
Flags: W
LayerCount: 2
Fore
SplineSet
887.5 900.5 m 128,-1,1
 974 855 974 855 1018 776.5 c 128,-1,2
 1062 698 1062 698 1062 598 c 0,3,4
 1062 499 1062 499 1018 421 c 128,-1,5
 974 343 974 343 888 298.5 c 128,-1,6
 802 254 802 254 680 254 c 2,7,-1
 385 254 l 1,8,-1
 385 55 l 2,9,10
 385 20 385 20 368.5 5 c 128,-1,11
 352 -10 352 -10 311 -10 c 2,12,-1
 309 -10 l 2,13,14
 268 -10 268 -10 251.5 5 c 128,-1,15
 235 20 235 20 235 55 c 2,16,-1
 235 1132 l 2,17,18
 235 1167 235 1167 251.5 1182 c 128,-1,19
 268 1197 268 1197 309 1197 c 2,20,-1
 311 1197 l 2,21,22
 352 1197 352 1197 368.5 1182 c 128,-1,23
 385 1167 385 1167 385 1132 c 2,24,-1
 385 946 l 1,25,-1
 680 946 l 2,26,0
 801 946 801 946 887.5 900.5 c 128,-1,1
840.5 449.5 m 128,-1,28
 904 501 904 501 904 598 c 0,29,30
 904 692 904 692 842 747 c 128,-1,31
 780 802 780 802 659 802 c 2,32,-1
 385 802 l 1,33,-1
 385 398 l 1,34,-1
 659 398 l 2,35,27
 777 398 777 398 840.5 449.5 c 128,-1,28
EndSplineSet
EndChar

StartChar: Q
Encoding: 81 81 84
Width: 1228
Flags: W
LayerCount: 2
Fore
SplineSet
1002 -54 m 2,0,1
 1017 -77 1017 -77 1017 -94 c 0,2,3
 1017 -123 1017 -123 974 -149 c 0,4,5
 945 -168 945 -168 924 -168 c 0,6,7
 897 -168 897 -168 876 -135 c 2,8,-1
 786 5 l 1,9,10
 707 -22 707 -22 614 -22 c 0,11,12
 458 -22 458 -22 339 54.5 c 128,-1,13
 220 131 220 131 155 270.5 c 128,-1,14
 90 410 90 410 90 593 c 256,15,16
 90 776 90 776 155 916 c 128,-1,17
 220 1056 220 1056 339 1132.5 c 128,-1,18
 458 1209 458 1209 614 1209 c 256,19,20
 770 1209 770 1209 889 1132.5 c 128,-1,21
 1008 1056 1008 1056 1073 916 c 128,-1,22
 1138 776 1138 776 1138 593 c 0,23,24
 1138 421 1138 421 1081 288 c 128,-1,25
 1024 155 1024 155 919 76 c 1,26,-1
 1002 -54 l 2,0,1
289.5 344.5 m 128,-1,28
 335 239 335 239 418.5 182.5 c 128,-1,29
 502 126 502 126 614 126 c 0,30,31
 662 126 662 126 702 136 c 1,32,-1
 597 300 l 2,33,34
 582 325 582 325 582 340 c 0,35,36
 582 368 582 368 625 396 c 0,37,38
 654 415 654 415 675 415 c 0,39,40
 701 415 701 415 723 381 c 2,41,-1
 837 203 l 1,42,43
 908 263 908 263 946 362.5 c 128,-1,44
 984 462 984 462 984 593 c 0,45,46
 984 736 984 736 938.5 842 c 128,-1,47
 893 948 893 948 809 1004.5 c 128,-1,48
 725 1061 725 1061 614 1061 c 256,49,50
 503 1061 503 1061 419 1004.5 c 128,-1,51
 335 948 335 948 289.5 842 c 128,-1,52
 244 736 244 736 244 593 c 256,53,27
 244 450 244 450 289.5 344.5 c 128,-1,28
EndSplineSet
EndChar

StartChar: R
Encoding: 82 82 85
Width: 1228
Flags: W
LayerCount: 2
Fore
SplineSet
1049 50 m 0,1,2
 1049 35 1049 35 1037.5 23 c 128,-1,3
 1026 11 1026 11 1002 0 c 0,4,5
 967 -15 967 -15 950 -15 c 0,6,7
 923 -15 923 -15 905 13 c 2,8,-1
 607 473 l 1,9,-1
 385 473 l 1,10,-1
 385 55 l 2,11,12
 385 20 385 20 368.5 5 c 128,-1,13
 352 -10 352 -10 311 -10 c 2,14,-1
 309 -10 l 2,15,16
 268 -10 268 -10 251.5 5 c 128,-1,17
 235 20 235 20 235 55 c 2,18,-1
 235 1119 l 2,19,20
 235 1156 235 1156 249.5 1171.5 c 128,-1,21
 264 1187 264 1187 298 1187 c 2,22,-1
 385 1187 l 1,23,-1
 620 1187 l 2,24,25
 753 1187 753 1187 845.5 1142.5 c 128,-1,26
 938 1098 938 1098 985 1017.5 c 128,-1,27
 1032 937 1032 937 1032 828 c 0,28,29
 1032 698 1032 698 965.5 610.5 c 128,-1,30
 899 523 899 523 771 490 c 1,31,-1
 1035 88 l 2,32,0
 1049 66 1049 66 1049 50 c 0,1,2
385 617 m 1,33,-1
 599 617 l 2,34,35
 878 617 878 617 878 828 c 0,36,37
 878 934 878 934 808.5 988.5 c 128,-1,38
 739 1043 739 1043 599 1043 c 2,39,-1
 385 1043 l 1,40,-1
 385 617 l 1,33,-1
EndSplineSet
EndChar

StartChar: S
Encoding: 83 83 89
Width: 1228
Flags: W
LayerCount: 2
Fore
SplineSet
988 1109 m 0,1,2
 1024 1088 1024 1088 1024 1053 c 0,3,4
 1024 1031 1024 1031 1011 1004 c 0,5,6
 991 959 991 959 956 959 c 0,7,8
 941 959 941 959 923 969 c 0,9,10
 769 1061 769 1061 578 1061 c 0,11,12
 459 1061 459 1061 392.5 1008 c 128,-1,13
 326 955 326 955 326 863 c 0,14,15
 326 823 326 823 345.5 795 c 128,-1,16
 365 767 365 767 403 748 c 0,17,18
 438 730 438 730 483.5 719 c 128,-1,19
 529 708 529 708 614 693 c 0,20,21
 696 679 696 679 751 666.5 c 128,-1,22
 806 654 806 654 856 634 c 0,23,24
 953 595 953 595 1007.5 523 c 128,-1,25
 1062 451 1062 451 1062 327 c 0,26,27
 1062 222 1062 222 1012.5 143.5 c 128,-1,28
 963 65 963 65 864.5 21.5 c 128,-1,29
 766 -22 766 -22 622 -22 c 0,30,31
 508 -22 508 -22 399 8.5 c 128,-1,32
 290 39 290 39 201 94 c 0,33,34
 167 115 167 115 167 149 c 0,35,36
 167 172 167 172 181 199 c 0,37,38
 204 243 204 243 236 243 c 0,39,40
 253 243 253 243 270 232 c 0,41,42
 345 184 345 184 436.5 155 c 128,-1,43
 528 126 528 126 622 126 c 0,44,45
 763 126 763 126 835.5 180.5 c 128,-1,46
 908 235 908 235 908 327 c 0,47,48
 908 389 908 389 876.5 428 c 128,-1,49
 845 467 845 467 787 492 c 0,50,51
 748 509 748 509 703 519.5 c 128,-1,52
 658 530 658 530 580 544 c 0,53,54
 496 559 496 559 440 572.5 c 128,-1,55
 384 586 384 586 336 608 c 0,56,57
 258 643 258 643 215 704 c 128,-1,58
 172 765 172 765 172 863 c 0,59,60
 172 970 172 970 223 1048 c 128,-1,61
 274 1126 274 1126 366 1167.5 c 128,-1,62
 458 1209 458 1209 578 1209 c 0,63,0
 813 1209 813 1209 988 1109 c 0,1,2
EndSplineSet
EndChar

StartChar: Scedilla
Encoding: 350 350 92
Width: 1228
Flags: W
LayerCount: 2
Fore
SplineSet
1018.5 153.5 m 128,-1,1
 975 78 975 78 887.5 32.5 c 128,-1,2
 800 -13 800 -13 673 -20 c 1,3,-1
 673 -113 l 1,4,5
 774 -112 774 -112 825 -159 c 128,-1,6
 876 -206 876 -206 876 -281 c 0,7,8
 876 -368 876 -368 814 -420 c 128,-1,9
 752 -472 752 -472 631 -472 c 0,10,11
 563 -472 563 -472 499 -460 c 128,-1,12
 435 -448 435 -448 384 -424 c 0,13,14
 361 -414 361 -414 361 -389 c 0,15,16
 361 -375 361 -375 369 -354 c 0,17,18
 386 -309 386 -309 415 -309 c 0,19,20
 423 -309 423 -309 428 -311 c 0,21,22
 471 -327 471 -327 522.5 -338 c 128,-1,23
 574 -349 574 -349 621 -349 c 0,24,25
 672 -349 672 -349 701 -332.5 c 128,-1,26
 730 -316 730 -316 730 -285 c 0,27,28
 730 -252 730 -252 703 -236 c 128,-1,29
 676 -220 676 -220 614 -220 c 2,30,-1
 575 -221 l 2,31,32
 560 -221 560 -221 550.5 -210.5 c 128,-1,33
 541 -200 541 -200 541 -177 c 2,34,-1
 541 -18 l 1,35,36
 449 -9 449 -9 361.5 20 c 128,-1,37
 274 49 274 49 201 94 c 0,38,39
 167 115 167 115 167 149 c 0,40,41
 167 172 167 172 181 199 c 0,42,43
 204 243 204 243 236 243 c 0,44,45
 253 243 253 243 270 232 c 0,46,47
 345 184 345 184 436.5 155 c 128,-1,48
 528 126 528 126 622 126 c 0,49,50
 763 126 763 126 835.5 180.5 c 128,-1,51
 908 235 908 235 908 327 c 0,52,53
 908 389 908 389 876.5 428 c 128,-1,54
 845 467 845 467 787 492 c 0,55,56
 748 509 748 509 703 519.5 c 128,-1,57
 658 530 658 530 580 544 c 0,58,59
 496 559 496 559 440 572.5 c 128,-1,60
 384 586 384 586 336 608 c 0,61,62
 258 643 258 643 215 704 c 128,-1,63
 172 765 172 765 172 863 c 0,64,65
 172 970 172 970 223 1048 c 128,-1,66
 274 1126 274 1126 366 1167.5 c 128,-1,67
 458 1209 458 1209 578 1209 c 0,68,69
 813 1209 813 1209 988 1109 c 0,70,71
 1024 1088 1024 1088 1024 1053 c 0,72,73
 1024 1031 1024 1031 1011 1004 c 0,74,75
 991 959 991 959 956 959 c 0,76,77
 941 959 941 959 923 969 c 0,78,79
 769 1061 769 1061 578 1061 c 0,80,81
 459 1061 459 1061 392.5 1008 c 128,-1,82
 326 955 326 955 326 863 c 0,83,84
 326 823 326 823 345.5 795 c 128,-1,85
 365 767 365 767 403 748 c 0,86,87
 438 730 438 730 483.5 719 c 128,-1,88
 529 708 529 708 614 693 c 0,89,90
 696 679 696 679 751 666.5 c 128,-1,91
 806 654 806 654 856 634 c 0,92,93
 953 595 953 595 1007.5 523 c 128,-1,94
 1062 451 1062 451 1062 327 c 0,95,0
 1062 229 1062 229 1018.5 153.5 c 128,-1,1
EndSplineSet
Substitution2: "'locl' Localized Forms in Latin lookup 2 subtable" Scommaaccent
Substitution2: "'locl' Localized Forms in Latin lookup 1 subtable" Scommaaccent
Substitution2: "'aalt' Access All Alternates lookup 0 subtable" Scommaaccent
EndChar

StartChar: T
Encoding: 84 84 95
Width: 1228
Flags: W
LayerCount: 2
Fore
SplineSet
1091.5 1170.5 m 128,-1,1
 1106 1154 1106 1154 1106 1115 c 256,2,3
 1106 1076 1106 1076 1091.5 1059.5 c 128,-1,4
 1077 1043 1077 1043 1043 1043 c 2,5,-1
 689 1043 l 1,6,-1
 689 55 l 2,7,8
 689 20 689 20 672.5 5 c 128,-1,9
 656 -10 656 -10 615 -10 c 2,10,-1
 613 -10 l 2,11,12
 572 -10 572 -10 555.5 5 c 128,-1,13
 539 20 539 20 539 55 c 2,14,-1
 539 1043 l 1,15,-1
 185 1043 l 2,16,17
 151 1043 151 1043 136.5 1059.5 c 128,-1,18
 122 1076 122 1076 122 1115 c 256,19,20
 122 1154 122 1154 136.5 1170.5 c 128,-1,21
 151 1187 151 1187 185 1187 c 2,22,-1
 1043 1187 l 2,23,0
 1077 1187 1077 1187 1091.5 1170.5 c 128,-1,1
EndSplineSet
EndChar

StartChar: Tbar
Encoding: 358 358 96
Width: 1228
Flags: W
LayerCount: 2
Fore
SplineSet
1091.5 1170.5 m 128,-1,1
 1106 1154 1106 1154 1106 1115 c 256,2,3
 1106 1076 1106 1076 1091.5 1059.5 c 128,-1,4
 1077 1043 1077 1043 1043 1043 c 2,5,-1
 689 1043 l 1,6,-1
 689 590 l 1,7,-1
 895 590 l 2,8,9
 929 590 929 590 943.5 573.5 c 128,-1,10
 958 557 958 557 958 518 c 256,11,12
 958 479 958 479 943.5 462.5 c 128,-1,13
 929 446 929 446 895 446 c 2,14,-1
 689 446 l 1,15,-1
 689 55 l 2,16,17
 689 20 689 20 672.5 5 c 128,-1,18
 656 -10 656 -10 615 -10 c 2,19,-1
 613 -10 l 2,20,21
 572 -10 572 -10 555.5 5 c 128,-1,22
 539 20 539 20 539 55 c 2,23,-1
 539 446 l 1,24,-1
 333 446 l 2,25,26
 299 446 299 446 284.5 462.5 c 128,-1,27
 270 479 270 479 270 518 c 256,28,29
 270 557 270 557 284.5 573.5 c 128,-1,30
 299 590 299 590 333 590 c 2,31,-1
 539 590 l 1,32,-1
 539 1043 l 1,33,-1
 185 1043 l 2,34,35
 151 1043 151 1043 136.5 1059.5 c 128,-1,36
 122 1076 122 1076 122 1115 c 256,37,38
 122 1154 122 1154 136.5 1170.5 c 128,-1,39
 151 1187 151 1187 185 1187 c 2,40,-1
 1043 1187 l 2,41,0
 1077 1187 1077 1187 1091.5 1170.5 c 128,-1,1
EndSplineSet
EndChar

StartChar: uni0162
Encoding: 354 354 98
Width: 1228
Flags: W
LayerCount: 2
Fore
SplineSet
1091.5 1170.5 m 128,-1,1
 1106 1154 1106 1154 1106 1115 c 256,2,3
 1106 1076 1106 1076 1091.5 1059.5 c 128,-1,4
 1077 1043 1077 1043 1043 1043 c 2,5,-1
 689 1043 l 1,6,-1
 689 55 l 2,7,8
 689 29 689 29 680 14 c 1,9,-1
 680 -113 l 1,10,11
 781 -112 781 -112 832 -159 c 128,-1,12
 883 -206 883 -206 883 -281 c 0,13,14
 883 -368 883 -368 821 -420 c 128,-1,15
 759 -472 759 -472 638 -472 c 0,16,17
 570 -472 570 -472 506 -460 c 128,-1,18
 442 -448 442 -448 391 -424 c 0,19,20
 368 -414 368 -414 368 -389 c 0,21,22
 368 -375 368 -375 376 -354 c 0,23,24
 393 -309 393 -309 422 -309 c 0,25,26
 430 -309 430 -309 435 -311 c 0,27,28
 478 -327 478 -327 529.5 -338 c 128,-1,29
 581 -349 581 -349 628 -349 c 0,30,31
 679 -349 679 -349 708 -332.5 c 128,-1,32
 737 -316 737 -316 737 -285 c 0,33,34
 737 -252 737 -252 710 -236 c 128,-1,35
 683 -220 683 -220 621 -220 c 2,36,-1
 582 -221 l 2,37,38
 567 -221 567 -221 557.5 -210.5 c 128,-1,39
 548 -200 548 -200 548 -177 c 2,40,-1
 548 14 l 1,41,42
 539 29 539 29 539 55 c 2,43,-1
 539 1043 l 1,44,-1
 185 1043 l 2,45,46
 151 1043 151 1043 136.5 1059.5 c 128,-1,47
 122 1076 122 1076 122 1115 c 256,48,49
 122 1154 122 1154 136.5 1170.5 c 128,-1,50
 151 1187 151 1187 185 1187 c 2,51,-1
 1043 1187 l 2,52,0
 1077 1187 1077 1187 1091.5 1170.5 c 128,-1,1
EndSplineSet
Substitution2: "'locl' Localized Forms in Latin lookup 2 subtable" uni021A
Substitution2: "'locl' Localized Forms in Latin lookup 1 subtable" uni021A
Substitution2: "'aalt' Access All Alternates lookup 0 subtable" uni021A
EndChar

StartChar: U
Encoding: 85 85 100
Width: 1228
Flags: W
LayerCount: 2
Fore
SplineSet
1036.5 1182 m 128,-1,1
 1053 1167 1053 1167 1053 1132 c 2,2,-1
 1053 413 l 2,3,4
 1053 273 1053 273 998 175.5 c 128,-1,5
 943 78 943 78 844 28 c 128,-1,6
 745 -22 745 -22 614 -22 c 256,7,8
 483 -22 483 -22 384 28 c 128,-1,9
 285 78 285 78 230 175.5 c 128,-1,10
 175 273 175 273 175 413 c 2,11,-1
 175 1132 l 2,12,13
 175 1167 175 1167 191.5 1182 c 128,-1,14
 208 1197 208 1197 249 1197 c 2,15,-1
 251 1197 l 2,16,17
 292 1197 292 1197 308.5 1182 c 128,-1,18
 325 1167 325 1167 325 1132 c 2,19,-1
 325 433 l 2,20,21
 325 280 325 280 400 203 c 128,-1,22
 475 126 475 126 614 126 c 256,23,24
 753 126 753 126 828 203 c 128,-1,25
 903 280 903 280 903 433 c 2,26,-1
 903 1132 l 2,27,28
 903 1167 903 1167 919.5 1182 c 128,-1,29
 936 1197 936 1197 977 1197 c 2,30,-1
 979 1197 l 2,31,0
 1020 1197 1020 1197 1036.5 1182 c 128,-1,1
EndSplineSet
EndChar

StartChar: Uogonek
Encoding: 370 370 108
Width: 1228
Flags: W
LayerCount: 2
Fore
SplineSet
1036.5 1182 m 128,-1,1
 1053 1167 1053 1167 1053 1132 c 2,2,-1
 1053 413 l 2,3,4
 1053 274 1053 274 998 176 c 128,-1,5
 943 78 943 78 843 27 c 1,6,7
 738 -66 738 -66 692.5 -133 c 128,-1,8
 647 -200 647 -200 647 -260 c 0,9,10
 647 -295 647 -295 668 -314 c 128,-1,11
 689 -333 689 -333 724 -333 c 0,12,13
 776 -333 776 -333 837 -316 c 0,14,15
 845 -314 845 -314 848 -314 c 0,16,17
 878 -314 878 -314 887 -368 c 0,18,19
 889 -386 889 -386 889 -393 c 0,20,21
 889 -415 889 -415 880.5 -427.5 c 128,-1,22
 872 -440 872 -440 855 -446 c 0,23,24
 780 -472 780 -472 691 -472 c 0,25,26
 598 -472 598 -472 544.5 -420 c 128,-1,27
 491 -368 491 -368 491 -281 c 0,28,29
 491 -213 491 -213 525 -149.5 c 128,-1,30
 559 -86 559 -86 624 -22 c 1,31,-1
 614 -22 l 2,32,33
 483 -22 483 -22 384 28 c 128,-1,34
 285 78 285 78 230 175.5 c 128,-1,35
 175 273 175 273 175 413 c 2,36,-1
 175 1132 l 2,37,38
 175 1167 175 1167 191.5 1182 c 128,-1,39
 208 1197 208 1197 249 1197 c 2,40,-1
 251 1197 l 2,41,42
 292 1197 292 1197 308.5 1182 c 128,-1,43
 325 1167 325 1167 325 1132 c 2,44,-1
 325 433 l 2,45,46
 325 280 325 280 400 203 c 128,-1,47
 475 126 475 126 614 126 c 256,48,49
 753 126 753 126 828 203 c 128,-1,50
 903 280 903 280 903 433 c 2,51,-1
 903 1132 l 2,52,53
 903 1167 903 1167 919.5 1182 c 128,-1,54
 936 1197 936 1197 977 1197 c 2,55,-1
 979 1197 l 2,56,0
 1020 1197 1020 1197 1036.5 1182 c 128,-1,1
EndSplineSet
EndChar

StartChar: V
Encoding: 86 86 111
Width: 1228
Flags: W
LayerCount: 2
Fore
SplineSet
1111 1166 m 128,-1,1
 1125 1153 1125 1153 1125 1134 c 0,2,3
 1125 1124 1125 1124 1118 1103 c 2,4,-1
 719 43 l 2,5,6
 706 8 706 8 680.5 -7 c 128,-1,7
 655 -22 655 -22 612 -22 c 256,8,9
 569 -22 569 -22 543.5 -7 c 128,-1,10
 518 8 518 8 505 43 c 2,11,-1
 106 1103 l 2,12,13
 99 1124 99 1124 99 1134 c 0,14,15
 99 1153 99 1153 113 1166 c 128,-1,16
 127 1179 127 1179 157 1189 c 0,17,18
 183 1197 183 1197 197 1197 c 0,19,20
 217 1197 217 1197 230 1186 c 128,-1,21
 243 1175 243 1175 251 1151 c 2,22,-1
 612 182 l 1,23,-1
 973 1151 l 2,24,25
 981 1175 981 1175 994 1186 c 128,-1,26
 1007 1197 1007 1197 1027 1197 c 0,27,28
 1041 1197 1041 1197 1067 1189 c 0,29,0
 1097 1179 1097 1179 1111 1166 c 128,-1,1
EndSplineSet
EndChar

StartChar: W
Encoding: 87 87 112
Width: 1228
Flags: W
LayerCount: 2
Fore
SplineSet
1137 1178 m 128,-1,1
 1153 1165 1153 1165 1153 1140 c 0,2,3
 1153 1128 1153 1128 1152 1122 c 2,4,-1
 1003 43 l 2,5,6
 998 7 998 7 977.5 -7.5 c 128,-1,7
 957 -22 957 -22 917 -22 c 0,8,9
 840 -22 840 -22 817 43 c 2,10,-1
 610 629 l 1,11,-1
 403 43 l 2,12,13
 380 -22 380 -22 303 -22 c 0,14,15
 263 -22 263 -22 242.5 -7.5 c 128,-1,16
 222 7 222 7 217 43 c 2,17,-1
 68 1122 l 2,18,19
 67 1128 67 1128 67 1140 c 0,20,21
 67 1165 67 1165 83 1178 c 128,-1,22
 99 1191 99 1191 135 1196 c 0,23,24
 142 1197 142 1197 155 1197 c 0,25,26
 185 1197 185 1197 199 1183.5 c 128,-1,27
 213 1170 213 1170 217 1139 c 2,28,-1
 329 258 l 1,29,-1
 536 845 l 2,30,31
 543 865 543 865 560.5 875 c 128,-1,32
 578 885 578 885 610 885 c 256,33,34
 642 885 642 885 659.5 875 c 128,-1,35
 677 865 677 865 684 845 c 2,36,-1
 891 258 l 1,37,-1
 1003 1139 l 2,38,39
 1007 1170 1007 1170 1021 1183.5 c 128,-1,40
 1035 1197 1035 1197 1065 1197 c 0,41,42
 1078 1197 1078 1197 1085 1196 c 0,43,0
 1121 1191 1121 1191 1137 1178 c 128,-1,1
EndSplineSet
EndChar

StartChar: X
Encoding: 88 88 117
Width: 1228
Flags: W
LayerCount: 2
Fore
SplineSet
1091 51 m 0,1,2
 1091 20 1091 20 1046 0 c 0,3,4
 1009 -16 1009 -16 989 -16 c 0,5,6
 959 -16 959 -16 939 15 c 2,7,-1
 618 487 l 1,8,-1
 301 15 l 2,9,10
 290 -1 290 -1 278 -8.5 c 128,-1,11
 266 -16 266 -16 251 -16 c 0,12,13
 231 -16 231 -16 194 0 c 0,14,15
 149 20 149 20 149 50 c 0,16,17
 149 68 149 68 164 89 c 2,18,-1
 526 605 l 1,19,-1
 187 1098 l 2,20,21
 172 1119 172 1119 172 1137 c 0,22,23
 172 1167 172 1167 217 1187 c 0,24,25
 254 1203 254 1203 274 1203 c 0,26,27
 303 1203 303 1203 324 1172 c 2,28,-1
 621 725 l 1,29,-1
 916 1172 l 2,30,31
 937 1203 937 1203 966 1203 c 0,32,33
 986 1203 986 1203 1023 1187 c 0,34,35
 1068 1167 1068 1167 1068 1137 c 0,36,37
 1068 1119 1068 1119 1053 1098 c 2,38,-1
 713 604 l 1,39,-1
 1076 89 l 2,40,0
 1091 68 1091 68 1091 51 c 0,1,2
EndSplineSet
EndChar

StartChar: Y
Encoding: 89 89 118
Width: 1228
Flags: W
LayerCount: 2
Fore
SplineSet
1091.5 1163.5 m 128,-1,1
 1103 1151 1103 1151 1103 1135 c 256,2,3
 1103 1119 1103 1119 1088 1096 c 2,4,-1
 689 487 l 1,5,-1
 689 55 l 2,6,7
 689 20 689 20 672.5 5 c 128,-1,8
 656 -10 656 -10 615 -10 c 2,9,-1
 613 -10 l 2,10,11
 572 -10 572 -10 555.5 5 c 128,-1,12
 539 20 539 20 539 55 c 2,13,-1
 539 487 l 1,14,-1
 140 1096 l 2,15,16
 125 1119 125 1119 125 1135 c 256,17,18
 125 1151 125 1151 136.5 1163.5 c 128,-1,19
 148 1176 148 1176 173 1187 c 0,20,21
 206 1201 206 1201 225 1201 c 0,22,23
 255 1201 255 1201 273 1172 c 2,24,-1
 614 646 l 1,25,-1
 955 1172 l 2,26,27
 975 1201 975 1201 1003 1201 c 0,28,29
 1022 1201 1022 1201 1055 1187 c 0,30,0
 1080 1176 1080 1176 1091.5 1163.5 c 128,-1,1
EndSplineSet
EndChar

StartChar: Z
Encoding: 90 90 123
Width: 1228
Flags: W
LayerCount: 2
Fore
SplineSet
1044.5 127.5 m 128,-1,1
 1059 111 1059 111 1059 72 c 256,2,3
 1059 33 1059 33 1044.5 16.5 c 128,-1,4
 1030 0 1030 0 996 0 c 2,5,-1
 310 0 l 1,6,-1
 230 0 l 2,7,8
 196 0 196 0 181.5 15.5 c 128,-1,9
 167 31 167 31 167 68 c 0,10,11
 167 90 167 90 181 111 c 2,12,-1
 822 1043 l 1,13,-1
 256 1043 l 2,14,15
 222 1043 222 1043 207.5 1059.5 c 128,-1,16
 193 1076 193 1076 193 1115 c 256,17,18
 193 1154 193 1154 207.5 1170.5 c 128,-1,19
 222 1187 222 1187 256 1187 c 2,20,-1
 891 1187 l 1,21,-1
 978 1187 l 2,22,23
 1012 1187 1012 1187 1026.5 1171.5 c 128,-1,24
 1041 1156 1041 1156 1041 1119 c 0,25,26
 1041 1094 1041 1094 1031 1080 c 2,27,-1
 388 144 l 1,28,-1
 996 144 l 2,29,0
 1030 144 1030 144 1044.5 127.5 c 128,-1,1
EndSplineSet
EndChar

StartChar: a
Encoding: 97 97 127
Width: 1228
Flags: W
LayerCount: 2
Fore
SplineSet
920 862 m 128,-1,1
 1014 778 1014 778 1014 613 c 2,2,-1
 1014 55 l 2,3,4
 1014 20 1014 20 999 5 c 128,-1,5
 984 -10 984 -10 945 -10 c 2,6,-1
 943 -10 l 2,7,8
 904 -10 904 -10 889 5 c 128,-1,9
 874 20 874 20 874 55 c 2,10,-1
 874 123 l 1,11,12
 793 54 793 54 698.5 16 c 128,-1,13
 604 -22 604 -22 499 -22 c 0,14,15
 399 -22 399 -22 322 12.5 c 128,-1,16
 245 47 245 47 202 113 c 128,-1,17
 159 179 159 179 159 270 c 0,18,19
 159 429 159 429 270.5 504 c 128,-1,20
 382 579 382 579 560 579 c 0,21,22
 719 579 719 579 864 528 c 1,23,-1
 864 613 l 2,24,25
 864 710 864 710 809.5 755.5 c 128,-1,26
 755 801 755 801 634 801 c 0,27,28
 559 801 559 801 478 780 c 128,-1,29
 397 759 397 759 324 722 c 0,30,31
 308 713 308 713 293 713 c 0,32,33
 261 713 261 713 238 761 c 0,34,35
 227 785 227 785 227 801 c 0,36,37
 227 836 227 836 264 855 c 0,38,39
 348 899 348 899 444.5 922.5 c 128,-1,40
 541 946 541 946 638 946 c 0,41,0
 826 946 826 946 920 862 c 128,-1,1
864 284 m 1,43,-1
 864 393 l 1,44,45
 796 415 796 415 718 426.5 c 128,-1,46
 640 438 640 438 561 438 c 0,47,48
 446 438 446 438 379.5 398.5 c 128,-1,49
 313 359 313 359 313 273 c 0,50,51
 313 200 313 200 363.5 159.5 c 128,-1,52
 414 119 414 119 505 119 c 0,53,42
 704 119 704 119 864 284 c 1,43,-1
EndSplineSet
Substitution2: "Single Substitution lookup 9 subtable" ordfeminine
Substitution2: "'aalt' Access All Alternates lookup 0 subtable" ordfeminine
EndChar

StartChar: aogonek
Encoding: 261 261 134
Width: 1228
Flags: W
LayerCount: 2
Fore
SplineSet
920 862 m 128,-1,1
 1014 778 1014 778 1014 613 c 2,2,-1
 1014 55 l 2,3,4
 1014 36 1014 36 1010.5 24 c 128,-1,5
 1007 12 1007 12 998 4 c 0,6,7
 907 -80 907 -80 867 -142.5 c 128,-1,8
 827 -205 827 -205 827 -261 c 0,9,10
 827 -297 827 -297 848 -316.5 c 128,-1,11
 869 -336 869 -336 904 -336 c 0,12,13
 959 -336 959 -336 1017 -326 c 0,14,15
 1041 -322 1041 -322 1055 -339.5 c 128,-1,16
 1069 -357 1069 -357 1069 -396 c 0,17,18
 1069 -416 1069 -416 1060.5 -428 c 128,-1,19
 1052 -440 1052 -440 1035 -446 c 0,20,21
 960 -472 960 -472 871 -472 c 0,22,23
 778 -472 778 -472 724.5 -420 c 128,-1,24
 671 -368 671 -368 671 -281 c 0,25,26
 671 -200 671 -200 722.5 -124 c 128,-1,27
 774 -48 774 -48 874 32 c 1,28,-1
 874 123 l 1,29,30
 793 54 793 54 698.5 16 c 128,-1,31
 604 -22 604 -22 499 -22 c 0,32,33
 399 -22 399 -22 322 12.5 c 128,-1,34
 245 47 245 47 202 113 c 128,-1,35
 159 179 159 179 159 270 c 0,36,37
 159 429 159 429 270.5 504 c 128,-1,38
 382 579 382 579 560 579 c 0,39,40
 719 579 719 579 864 528 c 1,41,-1
 864 613 l 2,42,43
 864 710 864 710 809.5 755.5 c 128,-1,44
 755 801 755 801 634 801 c 0,45,46
 559 801 559 801 478 780 c 128,-1,47
 397 759 397 759 324 722 c 0,48,49
 308 713 308 713 293 713 c 0,50,51
 261 713 261 713 238 761 c 0,52,53
 227 785 227 785 227 801 c 0,54,55
 227 836 227 836 264 855 c 0,56,57
 348 899 348 899 444.5 922.5 c 128,-1,58
 541 946 541 946 638 946 c 0,59,0
 826 946 826 946 920 862 c 128,-1,1
379.5 398.5 m 128,-1,61
 313 359 313 359 313 273 c 0,62,63
 313 200 313 200 363.5 159.5 c 128,-1,64
 414 119 414 119 505 119 c 0,65,66
 704 119 704 119 864 284 c 1,67,-1
 864 393 l 1,68,69
 796 415 796 415 718 426.5 c 128,-1,70
 640 438 640 438 561 438 c 0,71,60
 446 438 446 438 379.5 398.5 c 128,-1,61
EndSplineSet
EndChar

StartChar: ae
Encoding: 230 230 137
Width: 1228
Flags: W
LayerCount: 2
Fore
SplineSet
1075 830 m 128,-1,1
 1145 714 1145 714 1151 502 c 0,2,3
 1152 469 1152 469 1137 454.5 c 128,-1,4
 1122 440 1122 440 1088 440 c 2,5,-1
 689 440 l 1,6,7
 694 123 694 123 853 123 c 0,8,9
 901 123 901 123 941 141.5 c 128,-1,10
 981 160 981 160 1023 201 c 0,11,12
 1040 218 1040 218 1062 218 c 0,13,14
 1093 218 1093 218 1118 187 c 0,15,16
 1139 162 1139 162 1139 137 c 0,17,18
 1139 109 1139 109 1112 84 c 0,19,20
 1057 32 1057 32 991 5 c 128,-1,21
 925 -22 925 -22 853 -22 c 0,22,23
 690 -22 690 -22 609 122 c 1,24,25
 561 55 561 55 488.5 16.5 c 128,-1,26
 416 -22 416 -22 335 -22 c 0,27,28
 257 -22 257 -22 198 10 c 128,-1,29
 139 42 139 42 107 101 c 128,-1,30
 75 160 75 160 75 240 c 0,31,32
 75 407 75 407 199.5 493.5 c 128,-1,33
 324 580 324 580 539 580 c 1,34,-1
 539 602 l 2,35,36
 539 703 539 703 511 752 c 128,-1,37
 483 801 483 801 408 801 c 0,38,39
 363 801 363 801 320 784 c 128,-1,40
 277 767 277 767 231 732 c 0,41,42
 212 717 212 717 189 717 c 0,43,44
 161 717 161 717 137 742 c 0,45,46
 116 766 116 766 116 792 c 0,47,48
 116 820 116 820 139 840 c 0,49,50
 262 946 262 946 408 946 c 0,51,52
 561 946 561 946 629 830 c 1,53,54
 669 887 669 887 725.5 916.5 c 128,-1,55
 782 946 782 946 853 946 c 0,56,0
 1005 946 1005 946 1075 830 c 128,-1,1
745 749 m 128,-1,58
 706 697 706 697 694 580 c 1,59,-1
 994 580 l 1,60,61
 987 688 987 688 954 744.5 c 128,-1,62
 921 801 921 801 855 801 c 0,63,57
 784 801 784 801 745 749 c 128,-1,58
303.5 390 m 128,-1,65
 228 340 228 340 228 240 c 0,66,67
 228 183 228 183 258 151 c 128,-1,68
 288 119 288 119 339 119 c 0,69,70
 395 119 395 119 440.5 147.5 c 128,-1,71
 486 176 486 176 512.5 226.5 c 128,-1,72
 539 277 539 277 539 340 c 2,73,-1
 539 440 l 1,74,64
 379 440 379 440 303.5 390 c 128,-1,65
EndSplineSet
EndChar

StartChar: b
Encoding: 98 98 138
Width: 1228
Flags: W
LayerCount: 2
Fore
SplineSet
325.5 1307 m 128,-1,1
 342 1292 342 1292 342 1257 c 2,2,-1
 342 781 l 1,3,4
 471 946 471 946 659 946 c 0,5,6
 783 946 783 946 880.5 887.5 c 128,-1,7
 978 829 978 829 1033.5 719.5 c 128,-1,8
 1089 610 1089 610 1089 462 c 256,9,10
 1089 314 1089 314 1033.5 204.5 c 128,-1,11
 978 95 978 95 880.5 36.5 c 128,-1,12
 783 -22 783 -22 659 -22 c 0,13,14
 561 -22 561 -22 478 22 c 128,-1,15
 395 66 395 66 332 148 c 1,16,-1
 332 55 l 2,17,18
 332 20 332 20 317 5 c 128,-1,19
 302 -10 302 -10 263 -10 c 2,20,-1
 261 -10 l 2,21,22
 222 -10 222 -10 207 5 c 128,-1,23
 192 20 192 20 192 55 c 2,24,-1
 192 1257 l 2,25,26
 192 1292 192 1292 208.5 1307 c 128,-1,27
 225 1322 225 1322 266 1322 c 2,28,-1
 268 1322 l 2,29,0
 309 1322 309 1322 325.5 1307 c 128,-1,1
490.5 758 m 128,-1,31
 421 718 421 718 381.5 642 c 128,-1,32
 342 566 342 566 342 462 c 256,33,34
 342 358 342 358 381.5 282 c 128,-1,35
 421 206 421 206 490.5 166 c 128,-1,36
 560 126 560 126 649 126 c 256,37,38
 738 126 738 126 802.5 168.5 c 128,-1,39
 867 211 867 211 901 287.5 c 128,-1,40
 935 364 935 364 935 462 c 256,41,42
 935 560 935 560 901 636.5 c 128,-1,43
 867 713 867 713 802.5 755.5 c 128,-1,44
 738 798 738 798 649 798 c 256,45,30
 560 798 560 798 490.5 758 c 128,-1,31
EndSplineSet
EndChar

StartChar: c
Encoding: 99 99 139
Width: 1228
Flags: W
LayerCount: 2
Fore
SplineSet
834.5 918 m 128,-1,1
 933 890 933 890 1017 836 c 0,2,3
 1052 814 1052 814 1052 779 c 0,4,5
 1052 756 1052 756 1037 729 c 0,6,7
 1017 688 1017 688 985 688 c 0,8,9
 966 688 966 688 948 701 c 0,10,11
 807 798 807 798 629 798 c 0,12,13
 533 798 533 798 459.5 755 c 128,-1,14
 386 712 386 712 345.5 635.5 c 128,-1,15
 305 559 305 559 305 462 c 256,16,17
 305 365 305 365 345.5 288.5 c 128,-1,18
 386 212 386 212 459.5 169 c 128,-1,19
 533 126 533 126 629 126 c 0,20,21
 721 126 721 126 807.5 154.5 c 128,-1,22
 894 183 894 183 965 237 c 0,23,24
 985 252 985 252 1003 252 c 0,25,26
 1034 252 1034 252 1056 214 c 0,27,28
 1073 185 1073 185 1073 162 c 0,29,30
 1073 129 1073 129 1041 106 c 0,31,32
 959 46 959 46 850.5 12 c 128,-1,33
 742 -22 742 -22 629 -22 c 0,34,35
 486 -22 486 -22 376.5 41 c 128,-1,36
 267 104 267 104 207 214 c 128,-1,37
 147 324 147 324 147 462 c 256,38,39
 147 600 147 600 207 710 c 128,-1,40
 267 820 267 820 376.5 883 c 128,-1,41
 486 946 486 946 629 946 c 0,42,0
 736 946 736 946 834.5 918 c 128,-1,1
EndSplineSet
EndChar

StartChar: ccedilla
Encoding: 231 231 142
Width: 1228
Flags: W
LayerCount: 2
Fore
SplineSet
1073 162 m 0,1,2
 1073 129 1073 129 1041 106 c 0,3,4
 971 55 971 55 880.5 22 c 128,-1,5
 790 -11 790 -11 693 -19 c 1,6,-1
 693 -113 l 1,7,8
 794 -112 794 -112 845 -159 c 128,-1,9
 896 -206 896 -206 896 -281 c 0,10,11
 896 -368 896 -368 834 -420 c 128,-1,12
 772 -472 772 -472 651 -472 c 0,13,14
 583 -472 583 -472 519 -460 c 128,-1,15
 455 -448 455 -448 404 -424 c 0,16,17
 381 -414 381 -414 381 -389 c 0,18,19
 381 -375 381 -375 389 -354 c 0,20,21
 406 -309 406 -309 435 -309 c 0,22,23
 443 -309 443 -309 448 -311 c 0,24,25
 491 -327 491 -327 542.5 -338 c 128,-1,26
 594 -349 594 -349 641 -349 c 0,27,28
 692 -349 692 -349 721 -332.5 c 128,-1,29
 750 -316 750 -316 750 -285 c 0,30,31
 750 -252 750 -252 723 -236 c 128,-1,32
 696 -220 696 -220 634 -220 c 2,33,-1
 595 -221 l 2,34,35
 580 -221 580 -221 570.5 -210.5 c 128,-1,36
 561 -200 561 -200 561 -177 c 2,37,-1
 561 -18 l 1,38,39
 436 -3 436 -3 342.5 62.5 c 128,-1,40
 249 128 249 128 198 231.5 c 128,-1,41
 147 335 147 335 147 462 c 0,42,43
 147 600 147 600 207 710 c 128,-1,44
 267 820 267 820 376.5 883 c 128,-1,45
 486 946 486 946 629 946 c 0,46,47
 736 946 736 946 834.5 918 c 128,-1,48
 933 890 933 890 1017 836 c 0,49,50
 1052 814 1052 814 1052 779 c 0,51,52
 1052 756 1052 756 1037 729 c 0,53,54
 1017 688 1017 688 985 688 c 0,55,56
 966 688 966 688 948 701 c 0,57,58
 807 798 807 798 629 798 c 0,59,60
 533 798 533 798 459.5 755 c 128,-1,61
 386 712 386 712 345.5 635.5 c 128,-1,62
 305 559 305 559 305 462 c 256,63,64
 305 365 305 365 345.5 288.5 c 128,-1,65
 386 212 386 212 459.5 169 c 128,-1,66
 533 126 533 126 629 126 c 0,67,68
 721 126 721 126 807.5 154.5 c 128,-1,69
 894 183 894 183 965 237 c 0,70,71
 985 252 985 252 1003 252 c 0,72,73
 1034 252 1034 252 1056 214 c 0,74,0
 1073 185 1073 185 1073 162 c 0,1,2
EndSplineSet
EndChar

StartChar: d
Encoding: 100 100 145
Width: 1228
Flags: W
LayerCount: 2
Fore
SplineSet
1019.5 1307 m 128,-1,1
 1036 1292 1036 1292 1036 1257 c 2,2,-1
 1036 55 l 2,3,4
 1036 20 1036 20 1021 5 c 128,-1,5
 1006 -10 1006 -10 967 -10 c 2,6,-1
 965 -10 l 2,7,8
 926 -10 926 -10 911 5 c 128,-1,9
 896 20 896 20 896 55 c 2,10,-1
 896 148 l 1,11,12
 833 66 833 66 750 22 c 128,-1,13
 667 -22 667 -22 569 -22 c 0,14,15
 445 -22 445 -22 347.5 36.5 c 128,-1,16
 250 95 250 95 194.5 204.5 c 128,-1,17
 139 314 139 314 139 462 c 256,18,19
 139 610 139 610 194.5 719.5 c 128,-1,20
 250 829 250 829 347.5 887.5 c 128,-1,21
 445 946 445 946 569 946 c 0,22,23
 757 946 757 946 886 781 c 1,24,-1
 886 1257 l 2,25,26
 886 1292 886 1292 902.5 1307 c 128,-1,27
 919 1322 919 1322 960 1322 c 2,28,-1
 962 1322 l 2,29,0
 1003 1322 1003 1322 1019.5 1307 c 128,-1,1
425.5 755.5 m 128,-1,31
 361 713 361 713 327 636.5 c 128,-1,32
 293 560 293 560 293 462 c 256,33,34
 293 364 293 364 327 287.5 c 128,-1,35
 361 211 361 211 425.5 168.5 c 128,-1,36
 490 126 490 126 579 126 c 256,37,38
 668 126 668 126 737.5 166 c 128,-1,39
 807 206 807 206 846.5 282 c 128,-1,40
 886 358 886 358 886 462 c 256,41,42
 886 566 886 566 846.5 642 c 128,-1,43
 807 718 807 718 737.5 758 c 128,-1,44
 668 798 668 798 579 798 c 256,45,30
 490 798 490 798 425.5 755.5 c 128,-1,31
EndSplineSet
EndChar

StartChar: eth
Encoding: 240 240 146
Width: 1228
Flags: W
LayerCount: 2
Fore
SplineSet
1088 432 m 0,1,2
 1088 298 1088 298 1026.5 195 c 128,-1,3
 965 92 965 92 857 35 c 128,-1,4
 749 -22 749 -22 614 -22 c 256,5,6
 479 -22 479 -22 371 35 c 128,-1,7
 263 92 263 92 201.5 195 c 128,-1,8
 140 298 140 298 140 432 c 256,9,10
 140 566 140 566 201.5 669 c 128,-1,11
 263 772 263 772 371 829 c 128,-1,12
 479 886 479 886 614 886 c 0,13,14
 735 886 735 886 853 809 c 1,15,16
 780 929 780 929 644 1036 c 1,17,-1
 404 946 l 2,18,19
 387 939 387 939 373 939 c 0,20,21
 355 939 355 939 343 950.5 c 128,-1,22
 331 962 331 962 321 988 c 0,23,24
 313 1007 313 1007 313 1025 c 0,25,26
 313 1058 313 1058 356 1074 c 2,27,-1
 505 1130 l 1,28,29
 460 1156 460 1156 383 1195 c 0,30,31
 346 1213 346 1213 346 1242 c 0,32,33
 346 1261 346 1261 360 1287 c 0,34,35
 384 1332 384 1332 418 1332 c 0,36,37
 435 1332 435 1332 453 1323 c 0,38,39
 578 1262 578 1262 674 1193 c 1,40,-1
 911 1282 l 2,41,42
 928 1289 928 1289 942 1289 c 0,43,44
 960 1289 960 1289 972 1277.5 c 128,-1,45
 984 1266 984 1266 994 1240 c 0,46,47
 1002 1221 1002 1221 1002 1203 c 0,48,49
 1002 1170 1002 1170 959 1154 c 2,50,-1
 798 1094 l 1,51,0
 1088 827 1088 827 1088 432 c 0,1,2
779.5 164 m 128,-1,53
 851 202 851 202 890.5 271 c 128,-1,54
 930 340 930 340 930 432 c 256,55,56
 930 524 930 524 890.5 593 c 128,-1,57
 851 662 851 662 779.5 700 c 128,-1,58
 708 738 708 738 614 738 c 256,59,60
 520 738 520 738 448.5 700 c 128,-1,61
 377 662 377 662 337.5 593 c 128,-1,62
 298 524 298 524 298 432 c 256,63,64
 298 340 298 340 337.5 271 c 128,-1,65
 377 202 377 202 448.5 164 c 128,-1,66
 520 126 520 126 614 126 c 256,67,52
 708 126 708 126 779.5 164 c 128,-1,53
EndSplineSet
EndChar

StartChar: dcaron
Encoding: 271 271 147
Width: 1228
Flags: W
LayerCount: 2
Fore
SplineSet
917.5 1307 m 128,-1,1
 934 1292 934 1292 934 1257 c 2,2,-1
 934 55 l 2,3,4
 934 20 934 20 919 5 c 128,-1,5
 904 -10 904 -10 865 -10 c 2,6,-1
 863 -10 l 2,7,8
 824 -10 824 -10 809 5 c 128,-1,9
 794 20 794 20 794 55 c 2,10,-1
 794 138 l 1,11,12
 739 58 739 58 672.5 18 c 128,-1,13
 606 -22 606 -22 517 -22 c 0,14,15
 404 -22 404 -22 318 36.5 c 128,-1,16
 232 95 232 95 184.5 204 c 128,-1,17
 137 313 137 313 137 462 c 256,18,19
 137 611 137 611 184.5 720 c 128,-1,20
 232 829 232 829 318 887.5 c 128,-1,21
 404 946 404 946 517 946 c 0,22,23
 605 946 605 946 667.5 907.5 c 128,-1,24
 730 869 730 869 784 791 c 1,25,-1
 784 1257 l 2,26,27
 784 1292 784 1292 800.5 1307 c 128,-1,28
 817 1322 817 1322 858 1322 c 2,29,-1
 860 1322 l 2,30,0
 901 1322 901 1322 917.5 1307 c 128,-1,1
1314 1304.5 m 128,-1,32
 1321 1297 1321 1297 1321 1285 c 0,33,34
 1321 1276 1321 1276 1316 1261 c 2,35,-1
 1182 898 l 2,36,37
 1169 862 1169 862 1108 862 c 0,38,39
 1080 862 1080 862 1065 873 c 128,-1,40
 1050 884 1050 884 1050 904 c 0,41,42
 1050 908 1050 908 1052 918 c 2,43,-1
 1134 1280 l 2,44,45
 1142 1312 1142 1312 1176 1312 c 2,46,-1
 1294 1312 l 2,47,31
 1307 1312 1307 1312 1314 1304.5 c 128,-1,32
350.5 706.5 m 128,-1,49
 291 615 291 615 291 462 c 256,50,51
 291 309 291 309 350.5 217.5 c 128,-1,52
 410 126 410 126 527 126 c 0,53,54
 605 126 605 126 663 166 c 128,-1,55
 721 206 721 206 752.5 281.5 c 128,-1,56
 784 357 784 357 784 462 c 256,57,58
 784 567 784 567 752.5 642.5 c 128,-1,59
 721 718 721 718 663 758 c 128,-1,60
 605 798 605 798 527 798 c 0,61,48
 410 798 410 798 350.5 706.5 c 128,-1,49
EndSplineSet
EndChar

StartChar: dcroat
Encoding: 273 273 148
Width: 1228
Flags: W
LayerCount: 2
Fore
SplineSet
1203.5 1133.5 m 128,-1,1
 1218 1117 1218 1117 1218 1078 c 256,2,3
 1218 1039 1218 1039 1203.5 1022.5 c 128,-1,4
 1189 1006 1189 1006 1155 1006 c 2,5,-1
 1016 1006 l 1,6,-1
 1016 55 l 2,7,8
 1016 20 1016 20 1001 5 c 128,-1,9
 986 -10 986 -10 947 -10 c 2,10,-1
 945 -10 l 2,11,12
 906 -10 906 -10 891 5 c 128,-1,13
 876 20 876 20 876 55 c 2,14,-1
 876 138 l 1,15,16
 816 61 816 61 738.5 19.5 c 128,-1,17
 661 -22 661 -22 569 -22 c 0,18,19
 451 -22 451 -22 358 32.5 c 128,-1,20
 265 87 265 87 212 190 c 128,-1,21
 159 293 159 293 159 432 c 256,22,23
 159 571 159 571 212 674 c 128,-1,24
 265 777 265 777 358 831.5 c 128,-1,25
 451 886 451 886 569 886 c 0,26,27
 745 886 745 886 866 739 c 1,28,-1
 866 1006 l 1,29,-1
 613 1006 l 2,30,31
 579 1006 579 1006 564.5 1022.5 c 128,-1,32
 550 1039 550 1039 550 1078 c 256,33,34
 550 1117 550 1117 564.5 1133.5 c 128,-1,35
 579 1150 579 1150 613 1150 c 2,36,-1
 866 1150 l 1,37,-1
 866 1257 l 2,38,39
 866 1292 866 1292 882.5 1307 c 128,-1,40
 899 1322 899 1322 940 1322 c 2,41,-1
 942 1322 l 2,42,43
 983 1322 983 1322 999.5 1307 c 128,-1,44
 1016 1292 1016 1292 1016 1257 c 2,45,-1
 1016 1150 l 1,46,-1
 1155 1150 l 2,47,0
 1189 1150 1189 1150 1203.5 1133.5 c 128,-1,1
727 162.5 m 128,-1,49
 792 199 792 199 829 268 c 128,-1,50
 866 337 866 337 866 432 c 256,51,52
 866 527 866 527 829 596 c 128,-1,53
 792 665 792 665 727 701.5 c 128,-1,54
 662 738 662 738 579 738 c 256,55,56
 496 738 496 738 436 699 c 128,-1,57
 376 660 376 660 344.5 590.5 c 128,-1,58
 313 521 313 521 313 432 c 256,59,60
 313 343 313 343 344.5 273.5 c 128,-1,61
 376 204 376 204 436 165 c 128,-1,62
 496 126 496 126 579 126 c 256,63,48
 662 126 662 126 727 162.5 c 128,-1,49
EndSplineSet
EndChar

StartChar: e
Encoding: 101 101 149
Width: 1228
Flags: W
LayerCount: 2
Fore
SplineSet
870 887.5 m 128,-1,1
 972 829 972 829 1026.5 726 c 128,-1,2
 1081 623 1081 623 1089 487 c 0,3,4
 1091 454 1091 454 1075.5 439.5 c 128,-1,5
 1060 425 1060 425 1026 425 c 2,6,-1
 302 425 l 1,7,8
 309 276 309 276 386 199.5 c 128,-1,9
 463 123 463 123 603 123 c 0,10,11
 703 123 703 123 798.5 146 c 128,-1,12
 894 169 894 169 963 209 c 0,13,14
 980 218 980 218 994 218 c 0,15,16
 1013 218 1013 218 1028.5 203.5 c 128,-1,17
 1044 189 1044 189 1053 162 c 0,18,19
 1060 144 1060 144 1060 126 c 0,20,21
 1060 86 1060 86 1016 65 c 0,22,23
 935 26 935 26 825 2 c 128,-1,24
 715 -22 715 -22 603 -22 c 0,25,26
 458 -22 458 -22 356 36 c 128,-1,27
 254 94 254 94 201 203 c 128,-1,28
 148 312 148 312 148 462 c 0,29,30
 148 605 148 605 208.5 715 c 128,-1,31
 269 825 269 825 377 885.5 c 128,-1,32
 485 946 485 946 623 946 c 0,33,0
 768 946 768 946 870 887.5 c 128,-1,1
418 738.5 m 128,-1,35
 337 676 337 676 312 565 c 1,36,-1
 927 565 l 1,37,38
 906 679 906 679 829.5 740 c 128,-1,39
 753 801 753 801 623 801 c 0,40,34
 499 801 499 801 418 738.5 c 128,-1,35
EndSplineSet
EndChar

StartChar: eogonek
Encoding: 281 281 158
Width: 1228
Flags: W
LayerCount: 2
Fore
SplineSet
870 887.5 m 128,-1,1
 972 829 972 829 1026.5 726 c 128,-1,2
 1081 623 1081 623 1089 487 c 0,3,4
 1091 454 1091 454 1075.5 439.5 c 128,-1,5
 1060 425 1060 425 1026 425 c 2,6,-1
 302 425 l 1,7,8
 309 276 309 276 386 199.5 c 128,-1,9
 463 123 463 123 603 123 c 0,10,11
 703 123 703 123 798.5 146 c 128,-1,12
 894 169 894 169 963 209 c 0,13,14
 980 218 980 218 994 218 c 0,15,16
 1029 218 1029 218 1051 165 c 0,17,18
 1060 144 1060 144 1060 127 c 0,19,20
 1060 87 1060 87 1016 65 c 0,21,22
 989 52 989 52 928 -5 c 0,23,24
 842 -86 842 -86 804.5 -147 c 128,-1,25
 767 -208 767 -208 767 -261 c 0,26,27
 767 -297 767 -297 788 -316.5 c 128,-1,28
 809 -336 809 -336 844 -336 c 0,29,30
 899 -336 899 -336 957 -326 c 0,31,32
 981 -322 981 -322 995 -339.5 c 128,-1,33
 1009 -357 1009 -357 1009 -396 c 0,34,35
 1009 -416 1009 -416 1000.5 -428 c 128,-1,36
 992 -440 992 -440 975 -446 c 0,37,38
 900 -472 900 -472 811 -472 c 0,39,40
 718 -472 718 -472 664.5 -420 c 128,-1,41
 611 -368 611 -368 611 -281 c 0,42,43
 611 -210 611 -210 650.5 -143.5 c 128,-1,44
 690 -77 690 -77 765 -9 c 1,45,46
 681 -22 681 -22 603 -22 c 0,47,48
 458 -22 458 -22 356 36 c 128,-1,49
 254 94 254 94 201 203 c 128,-1,50
 148 312 148 312 148 462 c 0,51,52
 148 605 148 605 208.5 715 c 128,-1,53
 269 825 269 825 377 885.5 c 128,-1,54
 485 946 485 946 623 946 c 0,55,0
 768 946 768 946 870 887.5 c 128,-1,1
418 738.5 m 128,-1,57
 337 676 337 676 312 565 c 1,58,-1
 927 565 l 1,59,60
 906 679 906 679 829.5 740 c 128,-1,61
 753 801 753 801 623 801 c 0,62,56
 499 801 499 801 418 738.5 c 128,-1,57
EndSplineSet
EndChar

StartChar: f
Encoding: 102 102 159
Width: 1228
Flags: W
LayerCount: 2
Fore
SplineSet
1115 1201 m 0,1,2
 1115 1193 1115 1193 1111 1173 c 0,3,4
 1097 1117 1097 1117 1059 1117 c 0,5,6
 1050 1117 1050 1117 1037 1122 c 0,7,8
 910 1171 910 1171 800 1171 c 0,9,10
 598 1171 598 1171 598 954 c 2,11,-1
 598 844 l 1,12,-1
 944 844 l 2,13,14
 978 844 978 844 992.5 827.5 c 128,-1,15
 1007 811 1007 811 1007 772 c 256,16,17
 1007 733 1007 733 992.5 716.5 c 128,-1,18
 978 700 978 700 944 700 c 2,19,-1
 598 700 l 1,20,-1
 598 55 l 2,21,22
 598 20 598 20 581.5 5 c 128,-1,23
 565 -10 565 -10 524 -10 c 2,24,-1
 522 -10 l 2,25,26
 481 -10 481 -10 464.5 5 c 128,-1,27
 448 20 448 20 448 55 c 2,28,-1
 448 700 l 1,29,-1
 250 700 l 2,30,31
 216 700 216 700 201.5 716.5 c 128,-1,32
 187 733 187 733 187 772 c 256,33,34
 187 811 187 811 201.5 827.5 c 128,-1,35
 216 844 216 844 250 844 c 2,36,-1
 448 844 l 1,37,-1
 448 967 l 2,38,39
 448 1132 448 1132 540.5 1224.5 c 128,-1,40
 633 1317 633 1317 800 1317 c 0,41,42
 934 1317 934 1317 1066 1266 c 0,43,0
 1115 1247 1115 1247 1115 1201 c 0,1,2
EndSplineSet
EndChar

StartChar: g
Encoding: 103 103 160
Width: 1228
Flags: W
LayerCount: 2
Fore
SplineSet
750 902 m 128,-1,1
 833 858 833 858 896 776 c 1,2,-1
 896 869 l 2,3,4
 896 904 896 904 911 919 c 128,-1,5
 926 934 926 934 965 934 c 2,6,-1
 967 934 l 2,7,8
 1006 934 1006 934 1021 919 c 128,-1,9
 1036 904 1036 904 1036 869 c 2,10,-1
 1036 -30 l 2,11,12
 1036 -149 1036 -149 985.5 -234.5 c 128,-1,13
 935 -320 935 -320 839 -365 c 128,-1,14
 743 -410 743 -410 608 -410 c 0,15,16
 512 -410 512 -410 414 -393.5 c 128,-1,17
 316 -377 316 -377 231 -346 c 0,18,19
 192 -332 192 -332 192 -293 c 0,20,21
 192 -277 192 -277 200 -253 c 0,22,23
 218 -198 218 -198 257 -198 c 0,24,25
 268 -198 268 -198 279 -202 c 0,26,27
 357 -230 357 -230 443 -246 c 128,-1,28
 529 -262 529 -262 608 -262 c 0,29,30
 746 -262 746 -262 816 -196.5 c 128,-1,31
 886 -131 886 -131 886 -17 c 2,32,-1
 886 184 l 1,33,34
 762 28 762 28 569 28 c 0,35,36
 445 28 445 28 347.5 83.5 c 128,-1,37
 250 139 250 139 194.5 243 c 128,-1,38
 139 347 139 347 139 487 c 256,39,40
 139 627 139 627 194.5 731 c 128,-1,41
 250 835 250 835 347.5 890.5 c 128,-1,42
 445 946 445 946 569 946 c 0,43,0
 667 946 667 946 750 902 c 128,-1,1
425.5 758.5 m 128,-1,45
 361 719 361 719 327 648.5 c 128,-1,46
 293 578 293 578 293 487 c 256,47,48
 293 396 293 396 327 325.5 c 128,-1,49
 361 255 361 255 425.5 215.5 c 128,-1,50
 490 176 490 176 579 176 c 256,51,52
 668 176 668 176 737.5 213 c 128,-1,53
 807 250 807 250 846.5 320.5 c 128,-1,54
 886 391 886 391 886 487 c 256,55,56
 886 583 886 583 846.5 653.5 c 128,-1,57
 807 724 807 724 737.5 761 c 128,-1,58
 668 798 668 798 579 798 c 256,59,44
 490 798 490 798 425.5 758.5 c 128,-1,45
EndSplineSet
EndChar

StartChar: gcommaaccent
Encoding: 291 291 163
Width: 1228
Flags: W
LayerCount: 2
Fore
SplineSet
527 1090 m 0,1,2
 527 1102 527 1102 533 1115 c 2,3,-1
 650 1406 l 2,4,5
 665 1444 665 1444 709 1444 c 0,6,7
 720 1444 720 1444 726 1443 c 0,8,9
 778 1436 778 1436 778 1399 c 0,10,11
 778 1395 778 1395 776 1383 c 2,12,-1
 713 1096 l 2,13,14
 705 1064 705 1064 671 1064 c 2,15,-1
 555 1064 l 2,16,0
 527 1064 527 1064 527 1090 c 0,1,2
750 902 m 128,-1,18
 833 858 833 858 896 776 c 1,19,-1
 896 869 l 2,20,21
 896 904 896 904 911 919 c 128,-1,22
 926 934 926 934 965 934 c 2,23,-1
 967 934 l 2,24,25
 1006 934 1006 934 1021 919 c 128,-1,26
 1036 904 1036 904 1036 869 c 2,27,-1
 1036 -30 l 2,28,29
 1036 -149 1036 -149 985.5 -234.5 c 128,-1,30
 935 -320 935 -320 839 -365 c 128,-1,31
 743 -410 743 -410 608 -410 c 0,32,33
 512 -410 512 -410 414 -393.5 c 128,-1,34
 316 -377 316 -377 231 -346 c 0,35,36
 192 -332 192 -332 192 -293 c 0,37,38
 192 -277 192 -277 200 -253 c 0,39,40
 218 -198 218 -198 257 -198 c 0,41,42
 268 -198 268 -198 279 -202 c 0,43,44
 357 -230 357 -230 443 -246 c 128,-1,45
 529 -262 529 -262 608 -262 c 0,46,47
 746 -262 746 -262 816 -196.5 c 128,-1,48
 886 -131 886 -131 886 -17 c 2,49,-1
 886 184 l 1,50,51
 762 28 762 28 569 28 c 0,52,53
 445 28 445 28 347.5 83.5 c 128,-1,54
 250 139 250 139 194.5 243 c 128,-1,55
 139 347 139 347 139 487 c 256,56,57
 139 627 139 627 194.5 731 c 128,-1,58
 250 835 250 835 347.5 890.5 c 128,-1,59
 445 946 445 946 569 946 c 0,60,17
 667 946 667 946 750 902 c 128,-1,18
425.5 758.5 m 128,-1,62
 361 719 361 719 327 648.5 c 128,-1,63
 293 578 293 578 293 487 c 256,64,65
 293 396 293 396 327 325.5 c 128,-1,66
 361 255 361 255 425.5 215.5 c 128,-1,67
 490 176 490 176 579 176 c 256,68,69
 668 176 668 176 737.5 213 c 128,-1,70
 807 250 807 250 846.5 320.5 c 128,-1,71
 886 391 886 391 886 487 c 256,72,73
 886 583 886 583 846.5 653.5 c 128,-1,74
 807 724 807 724 737.5 761 c 128,-1,75
 668 798 668 798 579 798 c 256,76,61
 490 798 490 798 425.5 758.5 c 128,-1,62
EndSplineSet
EndChar

StartChar: h
Encoding: 104 104 165
Width: 1228
Flags: W
LayerCount: 2
Fore
SplineSet
335.5 1307 m 128,-1,1
 352 1292 352 1292 352 1257 c 2,2,-1
 352 720 l 1,3,4
 421 822 421 822 523.5 884 c 128,-1,5
 626 946 626 946 727 946 c 0,6,7
 878 946 878 946 961 859 c 128,-1,8
 1044 772 1044 772 1044 620 c 2,9,-1
 1044 55 l 2,10,11
 1044 20 1044 20 1027.5 5 c 128,-1,12
 1011 -10 1011 -10 970 -10 c 2,13,-1
 968 -10 l 2,14,15
 927 -10 927 -10 910.5 5 c 128,-1,16
 894 20 894 20 894 55 c 2,17,-1
 894 605 l 2,18,19
 894 695 894 695 849.5 746.5 c 128,-1,20
 805 798 805 798 712 798 c 0,21,22
 626 798 626 798 542.5 743.5 c 128,-1,23
 459 689 459 689 405.5 595.5 c 128,-1,24
 352 502 352 502 352 392 c 2,25,-1
 352 55 l 2,26,27
 352 20 352 20 335.5 5 c 128,-1,28
 319 -10 319 -10 278 -10 c 2,29,-1
 276 -10 l 2,30,31
 235 -10 235 -10 218.5 5 c 128,-1,32
 202 20 202 20 202 55 c 2,33,-1
 202 1257 l 2,34,35
 202 1292 202 1292 218.5 1307 c 128,-1,36
 235 1322 235 1322 276 1322 c 2,37,-1
 278 1322 l 2,38,0
 319 1322 319 1322 335.5 1307 c 128,-1,1
EndSplineSet
EndChar

StartChar: hbar
Encoding: 295 295 166
Width: 1228
Flags: W
LayerCount: 2
Fore
SplineSet
944 799 m 128,-1,1
 1024 712 1024 712 1024 560 c 2,2,-1
 1024 55 l 2,3,4
 1024 20 1024 20 1007.5 5 c 128,-1,5
 991 -10 991 -10 950 -10 c 2,6,-1
 948 -10 l 2,7,8
 907 -10 907 -10 890.5 5 c 128,-1,9
 874 20 874 20 874 55 c 2,10,-1
 874 545 l 2,11,12
 874 635 874 635 832 686.5 c 128,-1,13
 790 738 790 738 702 738 c 0,14,15
 624 738 624 738 547 686 c 128,-1,16
 470 634 470 634 421 545 c 128,-1,17
 372 456 372 456 372 352 c 2,18,-1
 372 55 l 2,19,20
 372 20 372 20 355.5 5 c 128,-1,21
 339 -10 339 -10 298 -10 c 2,22,-1
 296 -10 l 2,23,24
 255 -10 255 -10 238.5 5 c 128,-1,25
 222 20 222 20 222 55 c 2,26,-1
 222 1006 l 1,27,-1
 83 1006 l 2,28,29
 49 1006 49 1006 34.5 1022.5 c 128,-1,30
 20 1039 20 1039 20 1078 c 256,31,32
 20 1117 20 1117 34.5 1133.5 c 128,-1,33
 49 1150 49 1150 83 1150 c 2,34,-1
 222 1150 l 1,35,-1
 222 1257 l 2,36,37
 222 1292 222 1292 238.5 1307 c 128,-1,38
 255 1322 255 1322 296 1322 c 2,39,-1
 298 1322 l 2,40,41
 339 1322 339 1322 355.5 1307 c 128,-1,42
 372 1292 372 1292 372 1257 c 2,43,-1
 372 1150 l 1,44,-1
 625 1150 l 2,45,46
 659 1150 659 1150 673.5 1133.5 c 128,-1,47
 688 1117 688 1117 688 1078 c 256,48,49
 688 1039 688 1039 673.5 1022.5 c 128,-1,50
 659 1006 659 1006 625 1006 c 2,51,-1
 372 1006 l 1,52,-1
 372 680 l 1,53,54
 438 774 438 774 530.5 830 c 128,-1,55
 623 886 623 886 717 886 c 0,56,0
 864 886 864 886 944 799 c 128,-1,1
EndSplineSet
EndChar

StartChar: dotlessi
Encoding: 305 305 169
Width: 1228
Flags: W
LayerCount: 2
Fore
SplineSet
698.5 908.5 m 128,-1,1
 713 893 713 893 713 856 c 2,2,-1
 713 144 l 1,3,-1
 1034 144 l 2,4,5
 1068 144 1068 144 1082.5 127.5 c 128,-1,6
 1097 111 1097 111 1097 72 c 256,7,8
 1097 33 1097 33 1082.5 16.5 c 128,-1,9
 1068 0 1068 0 1034 0 c 2,10,-1
 250 0 l 2,11,12
 216 0 216 0 201.5 16.5 c 128,-1,13
 187 33 187 33 187 72 c 256,14,15
 187 111 187 111 201.5 127.5 c 128,-1,16
 216 144 216 144 250 144 c 2,17,-1
 563 144 l 1,18,-1
 563 780 l 1,19,-1
 310 780 l 2,20,21
 276 780 276 780 261.5 796.5 c 128,-1,22
 247 813 247 813 247 852 c 256,23,24
 247 891 247 891 261.5 907.5 c 128,-1,25
 276 924 276 924 310 924 c 2,26,-1
 650 924 l 2,27,0
 684 924 684 924 698.5 908.5 c 128,-1,1
EndSplineSet
EndChar

StartChar: ij
Encoding: 307 307 176
Width: 1228
Flags: W
LayerCount: 2
Fore
SplineSet
392 1117.5 m 128,-1,1
 372 1103 372 1103 317 1103 c 256,2,3
 262 1103 262 1103 242 1117.5 c 128,-1,4
 222 1132 222 1132 222 1168 c 2,5,-1
 222 1298 l 2,6,7
 222 1334 222 1334 242 1348.5 c 128,-1,8
 262 1363 262 1363 317 1363 c 256,9,10
 372 1363 372 1363 392 1348.5 c 128,-1,11
 412 1334 412 1334 412 1298 c 2,12,-1
 412 1168 l 2,13,0
 412 1132 412 1132 392 1117.5 c 128,-1,1
986 1117.5 m 128,-1,15
 966 1103 966 1103 911 1103 c 256,16,17
 856 1103 856 1103 836 1117.5 c 128,-1,18
 816 1132 816 1132 816 1168 c 2,19,-1
 816 1298 l 2,20,21
 816 1334 816 1334 836 1348.5 c 128,-1,22
 856 1363 856 1363 911 1363 c 256,23,24
 966 1363 966 1363 986 1348.5 c 128,-1,25
 1006 1334 1006 1334 1006 1298 c 2,26,-1
 1006 1168 l 2,27,14
 1006 1132 1006 1132 986 1117.5 c 128,-1,15
375.5 919 m 128,-1,29
 392 904 392 904 392 869 c 2,30,-1
 392 55 l 2,31,32
 392 20 392 20 375.5 5 c 128,-1,33
 359 -10 359 -10 318 -10 c 2,34,-1
 316 -10 l 2,35,36
 275 -10 275 -10 258.5 5 c 128,-1,37
 242 20 242 20 242 55 c 2,38,-1
 242 869 l 2,39,40
 242 904 242 904 258.5 919 c 128,-1,41
 275 934 275 934 316 934 c 2,42,-1
 318 934 l 2,43,28
 359 934 359 934 375.5 919 c 128,-1,29
969.5 919 m 128,-1,45
 986 904 986 904 986 869 c 2,46,-1
 986 -135 l 2,47,48
 986 -269 986 -269 915.5 -339.5 c 128,-1,49
 845 -410 845 -410 713 -410 c 0,50,51
 658 -410 658 -410 594 -397 c 128,-1,52
 530 -384 530 -384 482 -360 c 0,53,54
 443 -340 443 -340 443 -307 c 0,55,56
 443 -290 443 -290 454 -263 c 0,57,58
 475 -214 475 -214 511 -214 c 0,59,60
 523 -214 523 -214 539 -221 c 0,61,62
 578 -240 578 -240 624 -251 c 128,-1,63
 670 -262 670 -262 714 -262 c 0,64,65
 777 -262 777 -262 806.5 -225 c 128,-1,66
 836 -188 836 -188 836 -105 c 2,67,-1
 836 869 l 2,68,69
 836 904 836 904 852.5 919 c 128,-1,70
 869 934 869 934 910 934 c 2,71,-1
 912 934 l 2,72,44
 953 934 953 934 969.5 919 c 128,-1,45
EndSplineSet
EndChar

StartChar: iogonek
Encoding: 303 303 178
Width: 1228
Flags: W
LayerCount: 2
Fore
SplineSet
543 1117.5 m 128,-1,1
 523 1132 523 1132 523 1168 c 2,2,-1
 523 1298 l 2,3,4
 523 1334 523 1334 543 1348.5 c 128,-1,5
 563 1363 563 1363 618 1363 c 256,6,7
 673 1363 673 1363 693 1348.5 c 128,-1,8
 713 1334 713 1334 713 1298 c 2,9,-1
 713 1168 l 2,10,11
 713 1132 713 1132 693 1117.5 c 128,-1,12
 673 1103 673 1103 618 1103 c 256,13,0
 563 1103 563 1103 543 1117.5 c 128,-1,1
1082.5 127.5 m 128,-1,15
 1097 111 1097 111 1097 72 c 256,16,17
 1097 33 1097 33 1082.5 16.5 c 128,-1,18
 1068 0 1068 0 1034 0 c 2,19,-1
 713 0 l 1,20,21
 624 -83 624 -83 585.5 -144 c 128,-1,22
 547 -205 547 -205 547 -260 c 0,23,24
 547 -295 547 -295 568 -314 c 128,-1,25
 589 -333 589 -333 624 -333 c 0,26,27
 676 -333 676 -333 737 -316 c 0,28,29
 745 -314 745 -314 748 -314 c 0,30,31
 778 -314 778 -314 787 -368 c 0,32,33
 789 -386 789 -386 789 -393 c 0,34,35
 789 -415 789 -415 780.5 -427.5 c 128,-1,36
 772 -440 772 -440 755 -446 c 0,37,38
 680 -472 680 -472 591 -472 c 0,39,40
 498 -472 498 -472 444.5 -420 c 128,-1,41
 391 -368 391 -368 391 -281 c 0,42,43
 391 -208 391 -208 431 -139 c 128,-1,44
 471 -70 471 -70 547 0 c 1,45,-1
 250 0 l 2,46,47
 216 0 216 0 201.5 16.5 c 128,-1,48
 187 33 187 33 187 72 c 256,49,50
 187 111 187 111 201.5 127.5 c 128,-1,51
 216 144 216 144 250 144 c 2,52,-1
 563 144 l 1,53,-1
 563 780 l 1,54,-1
 310 780 l 2,55,56
 276 780 276 780 261.5 796.5 c 128,-1,57
 247 813 247 813 247 852 c 256,58,59
 247 891 247 891 261.5 907.5 c 128,-1,60
 276 924 276 924 310 924 c 2,61,-1
 650 924 l 2,62,63
 684 924 684 924 698.5 908.5 c 128,-1,64
 713 893 713 893 713 856 c 2,65,-1
 713 144 l 1,66,-1
 1034 144 l 2,67,14
 1068 144 1068 144 1082.5 127.5 c 128,-1,15
EndSplineSet
EndChar

StartChar: uni0237
Encoding: 567 567 181
Width: 1228
Flags: W
LayerCount: 2
Fore
SplineSet
888.5 908.5 m 128,-1,1
 903 893 903 893 903 856 c 2,2,-1
 903 -57 l 2,3,4
 903 -233 903 -233 824.5 -321.5 c 128,-1,5
 746 -410 746 -410 576 -410 c 0,6,7
 493 -410 493 -410 397 -378.5 c 128,-1,8
 301 -347 301 -347 223 -298 c 0,9,10
 190 -278 190 -278 190 -246 c 0,11,12
 190 -227 190 -227 203 -201 c 0,13,14
 227 -155 227 -155 261 -155 c 0,15,16
 278 -155 278 -155 292 -165 c 0,17,18
 361 -210 361 -210 435 -237 c 128,-1,19
 509 -264 509 -264 576 -264 c 0,20,21
 674 -264 674 -264 713.5 -211 c 128,-1,22
 753 -158 753 -158 753 -44 c 2,23,-1
 753 780 l 1,24,-1
 330 780 l 2,25,26
 296 780 296 780 281.5 796.5 c 128,-1,27
 267 813 267 813 267 852 c 256,28,29
 267 891 267 891 281.5 907.5 c 128,-1,30
 296 924 296 924 330 924 c 2,31,-1
 794 924 l 1,32,-1
 840 924 l 2,33,0
 874 924 874 924 888.5 908.5 c 128,-1,1
EndSplineSet
EndChar

StartChar: k
Encoding: 107 107 183
Width: 1228
Flags: W
LayerCount: 2
Fore
SplineSet
1080 55 m 0,1,2
 1080 28 1080 28 1038 5 c 0,3,4
 1002 -16 1002 -16 978 -16 c 0,5,6
 956 -16 956 -16 938 3 c 2,7,-1
 562 417 l 1,8,-1
 382 259 l 1,9,-1
 382 55 l 2,10,11
 382 20 382 20 365.5 5 c 128,-1,12
 349 -10 349 -10 308 -10 c 2,13,-1
 306 -10 l 2,14,15
 265 -10 265 -10 248.5 5 c 128,-1,16
 232 20 232 20 232 55 c 2,17,-1
 232 1257 l 2,18,19
 232 1292 232 1292 248.5 1307 c 128,-1,20
 265 1322 265 1322 306 1322 c 2,21,-1
 308 1322 l 2,22,23
 349 1322 349 1322 365.5 1307 c 128,-1,24
 382 1292 382 1292 382 1257 c 2,25,-1
 382 453 l 1,26,-1
 911 924 l 2,27,28
 932 942 932 942 958 942 c 256,29,30
 984 942 984 942 1014 924 c 0,31,32
 1056 899 1056 899 1056 871 c 0,33,34
 1056 851 1056 851 1035 833 c 2,35,-1
 675 516 l 1,36,-1
 1060 95 l 2,37,0
 1080 73 1080 73 1080 55 c 0,1,2
EndSplineSet
EndChar

StartChar: l
Encoding: 108 108 185
Width: 1228
Flags: W
LayerCount: 2
Fore
SplineSet
1072.5 127.5 m 128,-1,1
 1087 111 1087 111 1087 72 c 256,2,3
 1087 33 1087 33 1072.5 16.5 c 128,-1,4
 1058 0 1058 0 1024 0 c 2,5,-1
 240 0 l 2,6,7
 206 0 206 0 191.5 16.5 c 128,-1,8
 177 33 177 33 177 72 c 256,9,10
 177 111 177 111 191.5 127.5 c 128,-1,11
 206 144 206 144 240 144 c 2,12,-1
 553 144 l 1,13,-1
 553 1168 l 1,14,-1
 280 1168 l 2,15,16
 246 1168 246 1168 231.5 1184.5 c 128,-1,17
 217 1201 217 1201 217 1240 c 256,18,19
 217 1279 217 1279 231.5 1295.5 c 128,-1,20
 246 1312 246 1312 280 1312 c 2,21,-1
 614 1312 l 1,22,-1
 640 1312 l 2,23,24
 674 1312 674 1312 688.5 1296.5 c 128,-1,25
 703 1281 703 1281 703 1244 c 2,26,-1
 703 144 l 1,27,-1
 1024 144 l 2,28,0
 1058 144 1058 144 1072.5 127.5 c 128,-1,1
EndSplineSet
EndChar

StartChar: lslash
Encoding: 322 322 190
Width: 1228
Flags: W
LayerCount: 2
Fore
SplineSet
1072.5 127.5 m 128,-1,1
 1087 111 1087 111 1087 72 c 256,2,3
 1087 33 1087 33 1072.5 16.5 c 128,-1,4
 1058 0 1058 0 1024 0 c 2,5,-1
 240 0 l 2,6,7
 206 0 206 0 191.5 16.5 c 128,-1,8
 177 33 177 33 177 72 c 256,9,10
 177 111 177 111 191.5 127.5 c 128,-1,11
 206 144 206 144 240 144 c 2,12,-1
 553 144 l 1,13,-1
 553 557 l 1,14,-1
 378 438 l 2,15,16
 354 422 354 422 338 422 c 0,17,18
 312 422 312 422 287 459 c 0,19,20
 269 486 269 486 269 504 c 0,21,22
 269 529 269 529 301 550 c 2,23,-1
 553 721 l 1,24,-1
 553 1168 l 1,25,-1
 280 1168 l 2,26,27
 246 1168 246 1168 231.5 1184.5 c 128,-1,28
 217 1201 217 1201 217 1240 c 256,29,30
 217 1279 217 1279 231.5 1295.5 c 128,-1,31
 246 1312 246 1312 280 1312 c 2,32,-1
 614 1312 l 1,33,-1
 640 1312 l 2,34,35
 674 1312 674 1312 688.5 1296.5 c 128,-1,36
 703 1281 703 1281 703 1244 c 2,37,-1
 703 823 l 1,38,-1
 870 937 l 2,39,40
 894 953 894 953 910 953 c 0,41,42
 936 953 936 953 961 916 c 0,43,44
 979 889 979 889 979 871 c 0,45,46
 979 846 979 846 947 825 c 2,47,-1
 703 659 l 1,48,-1
 703 144 l 1,49,-1
 1024 144 l 2,50,0
 1058 144 1058 144 1072.5 127.5 c 128,-1,1
EndSplineSet
EndChar

StartChar: m
Encoding: 109 109 191
Width: 1228
Flags: W
LayerCount: 2
Fore
SplineSet
1007.5 916.5 m 128,-1,1
 1054 887 1054 887 1081.5 826.5 c 128,-1,2
 1109 766 1109 766 1109 678 c 2,3,-1
 1109 55 l 2,4,5
 1109 20 1109 20 1092.5 5 c 128,-1,6
 1076 -10 1076 -10 1035 -10 c 2,7,-1
 1033 -10 l 2,8,9
 992 -10 992 -10 975.5 5 c 128,-1,10
 959 20 959 20 959 55 c 2,11,-1
 959 660 l 2,12,13
 959 729 959 729 936.5 763.5 c 128,-1,14
 914 798 914 798 864 798 c 0,15,16
 817 798 817 798 777 754.5 c 128,-1,17
 737 711 737 711 713.5 633.5 c 128,-1,18
 690 556 690 556 690 457 c 2,19,-1
 690 55 l 2,20,21
 690 20 690 20 673.5 5 c 128,-1,22
 657 -10 657 -10 616 -10 c 2,23,-1
 614 -10 l 2,24,25
 573 -10 573 -10 556.5 5 c 128,-1,26
 540 20 540 20 540 55 c 2,27,-1
 540 660 l 2,28,29
 540 729 540 729 517.5 763.5 c 128,-1,30
 495 798 495 798 445 798 c 0,31,32
 398 798 398 798 358 754.5 c 128,-1,33
 318 711 318 711 294.5 633.5 c 128,-1,34
 271 556 271 556 271 457 c 2,35,-1
 271 55 l 2,36,37
 271 20 271 20 254.5 5 c 128,-1,38
 238 -10 238 -10 197 -10 c 2,39,-1
 195 -10 l 2,40,41
 154 -10 154 -10 137.5 5 c 128,-1,42
 121 20 121 20 121 55 c 2,43,-1
 121 869 l 2,44,45
 121 904 121 904 134.5 919 c 128,-1,46
 148 934 148 934 185 934 c 2,47,-1
 187 934 l 2,48,49
 224 934 224 934 237.5 919 c 128,-1,50
 251 904 251 904 251 869 c 2,51,-1
 251 757 l 1,52,53
 294 851 294 851 354 898.5 c 128,-1,54
 414 946 414 946 484 946 c 0,55,56
 552 946 552 946 603 900 c 128,-1,57
 654 854 654 854 672 765 c 1,58,59
 761 946 761 946 902 946 c 0,60,0
 961 946 961 946 1007.5 916.5 c 128,-1,1
EndSplineSet
EndChar

StartChar: n
Encoding: 110 110 192
Width: 1228
Flags: W
LayerCount: 2
Fore
SplineSet
961 859 m 128,-1,1
 1044 772 1044 772 1044 620 c 2,2,-1
 1044 55 l 2,3,4
 1044 20 1044 20 1027.5 5 c 128,-1,5
 1011 -10 1011 -10 970 -10 c 2,6,-1
 968 -10 l 2,7,8
 927 -10 927 -10 910.5 5 c 128,-1,9
 894 20 894 20 894 55 c 2,10,-1
 894 605 l 2,11,12
 894 695 894 695 849.5 746.5 c 128,-1,13
 805 798 805 798 712 798 c 0,14,15
 626 798 626 798 542.5 743.5 c 128,-1,16
 459 689 459 689 405.5 595.5 c 128,-1,17
 352 502 352 502 352 392 c 2,18,-1
 352 55 l 2,19,20
 352 20 352 20 335.5 5 c 128,-1,21
 319 -10 319 -10 278 -10 c 2,22,-1
 276 -10 l 2,23,24
 235 -10 235 -10 218.5 5 c 128,-1,25
 202 20 202 20 202 55 c 2,26,-1
 202 869 l 2,27,28
 202 904 202 904 217 919 c 128,-1,29
 232 934 232 934 271 934 c 2,30,-1
 273 934 l 2,31,32
 312 934 312 934 327 919 c 128,-1,33
 342 904 342 904 342 869 c 2,34,-1
 342 706 l 1,35,36
 410 811 410 811 515 878.5 c 128,-1,37
 620 946 620 946 727 946 c 0,38,0
 878 946 878 946 961 859 c 128,-1,1
EndSplineSet
EndChar

StartChar: eng
Encoding: 331 331 196
Width: 1228
Flags: W
LayerCount: 2
Fore
SplineSet
961 859 m 128,-1,1
 1044 772 1044 772 1044 620 c 2,2,-1
 1044 -135 l 2,3,4
 1044 -269 1044 -269 973.5 -339.5 c 128,-1,5
 903 -410 903 -410 771 -410 c 0,6,7
 713 -410 713 -410 653 -396.5 c 128,-1,8
 593 -383 593 -383 540 -360 c 0,9,10
 501 -343 501 -343 501 -308 c 0,11,12
 501 -292 501 -292 512 -265 c 0,13,14
 533 -218 533 -218 567 -218 c 0,15,16
 582 -218 582 -218 595 -224 c 0,17,18
 691 -264 691 -264 772 -264 c 0,19,20
 835 -264 835 -264 864.5 -227 c 128,-1,21
 894 -190 894 -190 894 -107 c 2,22,-1
 894 605 l 2,23,24
 894 695 894 695 849.5 746.5 c 128,-1,25
 805 798 805 798 712 798 c 0,26,27
 626 798 626 798 542.5 743.5 c 128,-1,28
 459 689 459 689 405.5 595.5 c 128,-1,29
 352 502 352 502 352 392 c 2,30,-1
 352 55 l 2,31,32
 352 20 352 20 335.5 5 c 128,-1,33
 319 -10 319 -10 278 -10 c 2,34,-1
 276 -10 l 2,35,36
 235 -10 235 -10 218.5 5 c 128,-1,37
 202 20 202 20 202 55 c 2,38,-1
 202 869 l 2,39,40
 202 904 202 904 217 919 c 128,-1,41
 232 934 232 934 271 934 c 2,42,-1
 273 934 l 2,43,44
 312 934 312 934 327 919 c 128,-1,45
 342 904 342 904 342 869 c 2,46,-1
 342 706 l 1,47,48
 410 811 410 811 515 878.5 c 128,-1,49
 620 946 620 946 727 946 c 0,50,0
 878 946 878 946 961 859 c 128,-1,1
EndSplineSet
EndChar

StartChar: o
Encoding: 111 111 198
Width: 1228
Flags: W
LayerCount: 2
Fore
SplineSet
859.5 884 m 128,-1,1
 969 822 969 822 1031.5 711.5 c 128,-1,2
 1094 601 1094 601 1094 462 c 256,3,4
 1094 323 1094 323 1031.5 212.5 c 128,-1,5
 969 102 969 102 859.5 40 c 128,-1,6
 750 -22 750 -22 614 -22 c 256,7,8
 478 -22 478 -22 368.5 40 c 128,-1,9
 259 102 259 102 196.5 212.5 c 128,-1,10
 134 323 134 323 134 462 c 256,11,12
 134 601 134 601 196.5 711.5 c 128,-1,13
 259 822 259 822 368.5 884 c 128,-1,14
 478 946 478 946 614 946 c 256,15,0
 750 946 750 946 859.5 884 c 128,-1,1
443 755.5 m 128,-1,17
 369 713 369 713 328.5 636.5 c 128,-1,18
 288 560 288 560 288 462 c 256,19,20
 288 364 288 364 328.5 287.5 c 128,-1,21
 369 211 369 211 443 168.5 c 128,-1,22
 517 126 517 126 614 126 c 256,23,24
 711 126 711 126 785 168.5 c 128,-1,25
 859 211 859 211 899.5 287.5 c 128,-1,26
 940 364 940 364 940 462 c 256,27,28
 940 560 940 560 899.5 636.5 c 128,-1,29
 859 713 859 713 785 755.5 c 128,-1,30
 711 798 711 798 614 798 c 256,31,16
 517 798 517 798 443 755.5 c 128,-1,17
EndSplineSet
Substitution2: "Single Substitution lookup 9 subtable" ordmasculine
Substitution2: "'aalt' Access All Alternates lookup 0 subtable" ordmasculine
EndChar

StartChar: oslash
Encoding: 248 248 206
Width: 1228
Flags: W
LayerCount: 2
Fore
SplineSet
1144 898 m 256,1,2
 1144 876 1144 876 1119 852 c 2,3,-1
 1010 747 l 1,4,5
 1050 687 1050 687 1072 614.5 c 128,-1,6
 1094 542 1094 542 1094 462 c 0,7,8
 1094 323 1094 323 1031.5 212.5 c 128,-1,9
 969 102 969 102 859.5 40 c 128,-1,10
 750 -22 750 -22 614 -22 c 0,11,12
 528 -22 528 -22 452 3.5 c 128,-1,13
 376 29 376 29 314 76 c 1,14,-1
 205 -29 l 2,15,16
 180 -52 180 -52 160 -52 c 0,17,18
 138 -52 138 -52 110 -24 c 0,19,20
 84 4 84 4 84 26 c 0,21,22
 84 47 84 47 108 71 c 2,23,-1
 218 177 l 1,24,25
 178 237 178 237 156 309.5 c 128,-1,26
 134 382 134 382 134 462 c 0,27,28
 134 601 134 601 196.5 711.5 c 128,-1,29
 259 822 259 822 368.5 884 c 128,-1,30
 478 946 478 946 614 946 c 0,31,32
 700 946 700 946 776 920.5 c 128,-1,33
 852 895 852 895 914 848 c 1,34,-1
 1022 953 l 2,35,36
 1047 976 1047 976 1067 976 c 0,37,38
 1090 976 1090 976 1118 948 c 0,39,0
 1144 920 1144 920 1144 898 c 256,1,2
330 285 m 1,41,-1
 804 743 l 1,42,43
 724 798 724 798 614 798 c 0,44,45
 517 798 517 798 443 755.5 c 128,-1,46
 369 713 369 713 328.5 636.5 c 128,-1,47
 288 560 288 560 288 462 c 0,48,40
 288 363 288 363 330 285 c 1,41,-1
898 639 m 1,50,-1
 423 181 l 1,51,52
 505 126 505 126 614 126 c 0,53,54
 711 126 711 126 785 168.5 c 128,-1,55
 859 211 859 211 899.5 287.5 c 128,-1,56
 940 364 940 364 940 462 c 0,57,49
 940 561 940 561 898 639 c 1,50,-1
EndSplineSet
EndChar

StartChar: oe
Encoding: 339 339 208
Width: 1228
Flags: W
LayerCount: 2
Fore
SplineSet
1075 830 m 128,-1,1
 1145 714 1145 714 1151 502 c 0,2,3
 1152 469 1152 469 1137 454.5 c 128,-1,4
 1122 440 1122 440 1088 440 c 2,5,-1
 689 440 l 1,6,7
 694 123 694 123 853 123 c 0,8,9
 901 123 901 123 941 141.5 c 128,-1,10
 981 160 981 160 1023 201 c 0,11,12
 1040 218 1040 218 1062 218 c 0,13,14
 1093 218 1093 218 1118 187 c 0,15,16
 1139 162 1139 162 1139 137 c 0,17,18
 1139 109 1139 109 1112 84 c 0,19,20
 1057 32 1057 32 991 5 c 128,-1,21
 925 -22 925 -22 853 -22 c 0,22,23
 775 -22 775 -22 714 12.5 c 128,-1,24
 653 47 653 47 613 116 c 1,25,26
 538 -22 538 -22 382 -22 c 0,27,28
 228 -22 228 -22 149 103.5 c 128,-1,29
 70 229 70 229 70 462 c 256,30,31
 70 695 70 695 149 820.5 c 128,-1,32
 228 946 228 946 382 946 c 0,33,34
 538 946 538 946 613 806 c 1,35,36
 653 876 653 876 714 911 c 128,-1,37
 775 946 775 946 853 946 c 0,38,0
 1005 946 1005 946 1075 830 c 128,-1,1
745 749 m 128,-1,40
 706 697 706 697 694 580 c 1,41,-1
 994 580 l 1,42,43
 987 688 987 688 954 744.5 c 128,-1,44
 921 801 921 801 855 801 c 0,45,39
 784 801 784 801 745 749 c 128,-1,40
265.5 717.5 m 128,-1,47
 228 637 228 637 228 462 c 256,48,49
 228 287 228 287 265.5 206.5 c 128,-1,50
 303 126 303 126 382 126 c 256,51,52
 461 126 461 126 498.5 206.5 c 128,-1,53
 536 287 536 287 536 462 c 256,54,55
 536 637 536 637 498.5 717.5 c 128,-1,56
 461 798 461 798 382 798 c 256,57,46
 303 798 303 798 265.5 717.5 c 128,-1,47
EndSplineSet
EndChar

StartChar: p
Encoding: 112 112 209
Width: 1228
Flags: W
LayerCount: 2
Fore
SplineSet
880.5 887.5 m 128,-1,1
 978 829 978 829 1033.5 719.5 c 128,-1,2
 1089 610 1089 610 1089 462 c 256,3,4
 1089 314 1089 314 1033.5 204.5 c 128,-1,5
 978 95 978 95 880.5 36.5 c 128,-1,6
 783 -22 783 -22 659 -22 c 0,7,8
 471 -22 471 -22 342 143 c 1,9,-1
 342 -333 l 2,10,11
 342 -368 342 -368 325.5 -383 c 128,-1,12
 309 -398 309 -398 268 -398 c 2,13,-1
 266 -398 l 2,14,15
 225 -398 225 -398 208.5 -383 c 128,-1,16
 192 -368 192 -368 192 -333 c 2,17,-1
 192 869 l 2,18,19
 192 904 192 904 207 919 c 128,-1,20
 222 934 222 934 261 934 c 2,21,-1
 263 934 l 2,22,23
 302 934 302 934 317 919 c 128,-1,24
 332 904 332 904 332 869 c 2,25,-1
 332 776 l 1,26,27
 395 858 395 858 478 902 c 128,-1,28
 561 946 561 946 659 946 c 0,29,0
 783 946 783 946 880.5 887.5 c 128,-1,1
490.5 758 m 128,-1,31
 421 718 421 718 381.5 642 c 128,-1,32
 342 566 342 566 342 462 c 256,33,34
 342 358 342 358 381.5 282 c 128,-1,35
 421 206 421 206 490.5 166 c 128,-1,36
 560 126 560 126 649 126 c 256,37,38
 738 126 738 126 802.5 168.5 c 128,-1,39
 867 211 867 211 901 287.5 c 128,-1,40
 935 364 935 364 935 462 c 256,41,42
 935 560 935 560 901 636.5 c 128,-1,43
 867 713 867 713 802.5 755.5 c 128,-1,44
 738 798 738 798 649 798 c 256,45,30
 560 798 560 798 490.5 758 c 128,-1,31
EndSplineSet
EndChar

StartChar: thorn
Encoding: 254 254 210
Width: 1228
Flags: W
LayerCount: 2
Fore
SplineSet
325.5 1307 m 128,-1,1
 342 1292 342 1292 342 1257 c 2,2,-1
 342 787 l 1,3,4
 404 863 404 863 484.5 904.5 c 128,-1,5
 565 946 565 946 659 946 c 0,6,7
 783 946 783 946 880.5 887.5 c 128,-1,8
 978 829 978 829 1033.5 719.5 c 128,-1,9
 1089 610 1089 610 1089 462 c 256,10,11
 1089 314 1089 314 1033.5 204.5 c 128,-1,12
 978 95 978 95 880.5 36.5 c 128,-1,13
 783 -22 783 -22 659 -22 c 0,14,15
 471 -22 471 -22 342 143 c 1,16,-1
 342 -333 l 2,17,18
 342 -368 342 -368 325.5 -383 c 128,-1,19
 309 -398 309 -398 268 -398 c 2,20,-1
 266 -398 l 2,21,22
 225 -398 225 -398 208.5 -383 c 128,-1,23
 192 -368 192 -368 192 -333 c 2,24,-1
 192 1257 l 2,25,26
 192 1292 192 1292 208.5 1307 c 128,-1,27
 225 1322 225 1322 266 1322 c 2,28,-1
 268 1322 l 2,29,0
 309 1322 309 1322 325.5 1307 c 128,-1,1
490.5 758 m 128,-1,31
 421 718 421 718 381.5 642 c 128,-1,32
 342 566 342 566 342 462 c 256,33,34
 342 358 342 358 381.5 282 c 128,-1,35
 421 206 421 206 490.5 166 c 128,-1,36
 560 126 560 126 649 126 c 256,37,38
 738 126 738 126 802.5 168.5 c 128,-1,39
 867 211 867 211 901 287.5 c 128,-1,40
 935 364 935 364 935 462 c 256,41,42
 935 560 935 560 901 636.5 c 128,-1,43
 867 713 867 713 802.5 755.5 c 128,-1,44
 738 798 738 798 649 798 c 256,45,30
 560 798 560 798 490.5 758 c 128,-1,31
EndSplineSet
EndChar

StartChar: q
Encoding: 113 113 211
Width: 1228
Flags: W
LayerCount: 2
Fore
SplineSet
750 902 m 128,-1,1
 833 858 833 858 896 776 c 1,2,-1
 896 869 l 2,3,4
 896 904 896 904 911 919 c 128,-1,5
 926 934 926 934 965 934 c 2,6,-1
 967 934 l 2,7,8
 1006 934 1006 934 1021 919 c 128,-1,9
 1036 904 1036 904 1036 869 c 2,10,-1
 1036 -333 l 2,11,12
 1036 -368 1036 -368 1019.5 -383 c 128,-1,13
 1003 -398 1003 -398 962 -398 c 2,14,-1
 960 -398 l 2,15,16
 919 -398 919 -398 902.5 -383 c 128,-1,17
 886 -368 886 -368 886 -333 c 2,18,-1
 886 143 l 1,19,20
 757 -22 757 -22 569 -22 c 0,21,22
 445 -22 445 -22 347.5 36.5 c 128,-1,23
 250 95 250 95 194.5 204.5 c 128,-1,24
 139 314 139 314 139 462 c 256,25,26
 139 610 139 610 194.5 719.5 c 128,-1,27
 250 829 250 829 347.5 887.5 c 128,-1,28
 445 946 445 946 569 946 c 0,29,0
 667 946 667 946 750 902 c 128,-1,1
425.5 755.5 m 128,-1,31
 361 713 361 713 327 636.5 c 128,-1,32
 293 560 293 560 293 462 c 256,33,34
 293 364 293 364 327 287.5 c 128,-1,35
 361 211 361 211 425.5 168.5 c 128,-1,36
 490 126 490 126 579 126 c 256,37,38
 668 126 668 126 737.5 166 c 128,-1,39
 807 206 807 206 846.5 282 c 128,-1,40
 886 358 886 358 886 462 c 256,41,42
 886 566 886 566 846.5 642 c 128,-1,43
 807 718 807 718 737.5 758 c 128,-1,44
 668 798 668 798 579 798 c 256,45,30
 490 798 490 798 425.5 755.5 c 128,-1,31
EndSplineSet
EndChar

StartChar: r
Encoding: 114 114 212
Width: 1228
Flags: W
LayerCount: 2
Fore
SplineSet
1036 925 m 0,1,2
 1085 909 1085 909 1085 861 c 0,3,4
 1085 845 1085 845 1081 830 c 0,5,6
 1072 797 1072 797 1059.5 780.5 c 128,-1,7
 1047 764 1047 764 1028 764 c 0,8,9
 1017 764 1017 764 1006 768 c 0,10,11
 950 786 950 786 896 786 c 0,12,13
 781 786 781 786 680 716 c 128,-1,14
 579 646 579 646 518 527.5 c 128,-1,15
 457 409 457 409 457 270 c 2,16,-1
 457 55 l 2,17,18
 457 20 457 20 440.5 5 c 128,-1,19
 424 -10 424 -10 383 -10 c 2,20,-1
 381 -10 l 2,21,22
 340 -10 340 -10 323.5 5 c 128,-1,23
 307 20 307 20 307 55 c 2,24,-1
 307 869 l 2,25,26
 307 904 307 904 322 919 c 128,-1,27
 337 934 337 934 376 934 c 2,28,-1
 378 934 l 2,29,30
 417 934 417 934 432 919 c 128,-1,31
 447 904 447 904 447 869 c 2,32,-1
 447 634 l 1,33,34
 534 781 534 781 653 863.5 c 128,-1,35
 772 946 772 946 905 946 c 0,36,0
 970 946 970 946 1036 925 c 0,1,2
EndSplineSet
EndChar

StartChar: s
Encoding: 115 115 216
Width: 1228
Flags: W
LayerCount: 2
Fore
SplineSet
217 78 m 0,1,2
 178 100 178 100 178 135 c 0,3,4
 178 154 178 154 190 179 c 0,5,6
 214 226 214 226 244 226 c 0,7,8
 259 226 259 226 275 217 c 0,9,10
 357 171 357 171 451 147 c 128,-1,11
 545 123 545 123 644 123 c 0,12,13
 767 123 767 123 830.5 164.5 c 128,-1,14
 894 206 894 206 894 277 c 0,15,16
 894 311 894 311 873.5 332.5 c 128,-1,17
 853 354 853 354 813 367 c 0,18,19
 779 378 779 378 733 384.5 c 128,-1,20
 687 391 687 391 615 398 c 0,21,22
 517 407 517 407 455 417 c 128,-1,23
 393 427 393 427 340 448 c 0,24,25
 269 476 269 476 229.5 527 c 128,-1,26
 190 578 190 578 190 660 c 0,27,28
 190 752 190 752 238.5 816.5 c 128,-1,29
 287 881 287 881 371.5 913.5 c 128,-1,30
 456 946 456 946 564 946 c 0,31,32
 793 946 793 946 966 859 c 0,33,34
 1006 839 1006 839 1006 802 c 0,35,36
 1006 782 1006 782 996 759 c 0,37,38
 973 709 973 709 942 709 c 0,39,40
 932 709 932 709 912 718 c 0,41,42
 749 801 749 801 570 801 c 0,43,44
 464 801 464 801 404 765 c 128,-1,45
 344 729 344 729 344 660 c 0,46,47
 344 629 344 629 364 609.5 c 128,-1,48
 384 590 384 590 421 578 c 0,49,50
 454 567 454 567 495 561.5 c 128,-1,51
 536 556 536 556 611 549 c 0,52,53
 704 541 704 541 767 531.5 c 128,-1,54
 830 522 830 522 884 502 c 0,55,56
 961 473 961 473 1004.5 419.5 c 128,-1,57
 1048 366 1048 366 1048 277 c 0,58,59
 1048 187 1048 187 1003 119.5 c 128,-1,60
 958 52 958 52 869.5 15 c 128,-1,61
 781 -22 781 -22 654 -22 c 0,62,0
 400 -22 400 -22 217 78 c 0,1,2
EndSplineSet
EndChar

StartChar: scedilla
Encoding: 351 351 219
Width: 1228
Flags: W
LayerCount: 2
Fore
SplineSet
1006.5 124.5 m 128,-1,1
 965 59 965 59 883 21 c 128,-1,2
 801 -17 801 -17 683 -21 c 1,3,-1
 683 -113 l 1,4,5
 784 -112 784 -112 835 -159 c 128,-1,6
 886 -206 886 -206 886 -281 c 0,7,8
 886 -368 886 -368 824 -420 c 128,-1,9
 762 -472 762 -472 641 -472 c 0,10,11
 573 -472 573 -472 509 -460 c 128,-1,12
 445 -448 445 -448 394 -424 c 0,13,14
 371 -414 371 -414 371 -389 c 0,15,16
 371 -375 371 -375 379 -354 c 0,17,18
 396 -309 396 -309 425 -309 c 0,19,20
 433 -309 433 -309 438 -311 c 0,21,22
 481 -327 481 -327 532.5 -338 c 128,-1,23
 584 -349 584 -349 631 -349 c 0,24,25
 682 -349 682 -349 711 -332.5 c 128,-1,26
 740 -316 740 -316 740 -285 c 0,27,28
 740 -252 740 -252 713 -236 c 128,-1,29
 686 -220 686 -220 624 -220 c 2,30,-1
 585 -221 l 2,31,32
 570 -221 570 -221 560.5 -210.5 c 128,-1,33
 551 -200 551 -200 551 -177 c 2,34,-1
 551 -18 l 1,35,36
 360 -1 360 -1 217 78 c 0,37,38
 178 100 178 100 178 135 c 0,39,40
 178 154 178 154 190 179 c 0,41,42
 214 226 214 226 244 226 c 0,43,44
 259 226 259 226 275 217 c 0,45,46
 357 171 357 171 451 147 c 128,-1,47
 545 123 545 123 644 123 c 0,48,49
 767 123 767 123 830.5 164.5 c 128,-1,50
 894 206 894 206 894 277 c 0,51,52
 894 311 894 311 873.5 332.5 c 128,-1,53
 853 354 853 354 813 367 c 0,54,55
 779 378 779 378 733 384.5 c 128,-1,56
 687 391 687 391 615 398 c 0,57,58
 517 407 517 407 455 417 c 128,-1,59
 393 427 393 427 340 448 c 0,60,61
 269 476 269 476 229.5 527 c 128,-1,62
 190 578 190 578 190 660 c 0,63,64
 190 752 190 752 238.5 816.5 c 128,-1,65
 287 881 287 881 371.5 913.5 c 128,-1,66
 456 946 456 946 564 946 c 0,67,68
 793 946 793 946 966 859 c 0,69,70
 1006 839 1006 839 1006 802 c 0,71,72
 1006 782 1006 782 996 759 c 0,73,74
 973 709 973 709 942 709 c 0,75,76
 932 709 932 709 912 718 c 0,77,78
 749 801 749 801 570 801 c 0,79,80
 464 801 464 801 404 765 c 128,-1,81
 344 729 344 729 344 660 c 0,82,83
 344 629 344 629 364 609.5 c 128,-1,84
 384 590 384 590 421 578 c 0,85,86
 454 567 454 567 495 561.5 c 128,-1,87
 536 556 536 556 611 549 c 0,88,89
 704 541 704 541 767 531.5 c 128,-1,90
 830 522 830 522 884 502 c 0,91,92
 961 473 961 473 1004.5 419.5 c 128,-1,93
 1048 366 1048 366 1048 277 c 0,94,0
 1048 190 1048 190 1006.5 124.5 c 128,-1,1
EndSplineSet
Substitution2: "'locl' Localized Forms in Latin lookup 2 subtable" scommaaccent
Substitution2: "'locl' Localized Forms in Latin lookup 1 subtable" scommaaccent
Substitution2: "'aalt' Access All Alternates lookup 0 subtable" scommaaccent
EndChar

StartChar: germandbls
Encoding: 223 223 222
Width: 1228
Flags: W
LayerCount: 2
Fore
SplineSet
812 1271.5 m 128,-1,1
 897 1226 897 1226 939.5 1148 c 128,-1,2
 982 1070 982 1070 982 971 c 0,3,4
 982 880 982 880 937 812.5 c 128,-1,5
 892 745 892 745 810 702 c 1,6,7
 917 661 917 661 977 572 c 128,-1,8
 1037 483 1037 483 1037 360 c 0,9,10
 1037 242 1037 242 987 155.5 c 128,-1,11
 937 69 937 69 846 23.5 c 128,-1,12
 755 -22 755 -22 634 -22 c 0,13,14
 584 -22 584 -22 567.5 -5.5 c 128,-1,15
 551 11 551 11 551 55 c 0,16,17
 551 92 551 92 566 109 c 128,-1,18
 581 126 581 126 615 126 c 0,19,20
 741 126 741 126 812 187 c 128,-1,21
 883 248 883 248 883 362 c 0,22,23
 883 484 883 484 814 551.5 c 128,-1,24
 745 619 745 619 627 619 c 0,25,26
 593 619 593 619 578.5 635.5 c 128,-1,27
 564 652 564 652 564 688 c 256,28,29
 564 724 564 724 578.5 740 c 128,-1,30
 593 756 593 756 627 759 c 0,31,32
 725 769 725 769 776.5 825 c 128,-1,33
 828 881 828 881 828 971 c 0,34,35
 828 1064 828 1064 769.5 1116.5 c 128,-1,36
 711 1169 711 1169 602 1169 c 0,37,38
 499 1169 499 1169 442 1105.5 c 128,-1,39
 385 1042 385 1042 385 932 c 2,40,-1
 385 55 l 2,41,42
 385 20 385 20 368.5 5 c 128,-1,43
 352 -10 352 -10 311 -10 c 2,44,-1
 309 -10 l 2,45,46
 268 -10 268 -10 251.5 5 c 128,-1,47
 235 20 235 20 235 55 c 2,48,-1
 235 943 l 2,49,50
 235 1053 235 1053 279.5 1137.5 c 128,-1,51
 324 1222 324 1222 408 1269.5 c 128,-1,52
 492 1317 492 1317 606 1317 c 0,53,0
 727 1317 727 1317 812 1271.5 c 128,-1,1
EndSplineSet
EndChar

StartChar: t
Encoding: 116 116 223
Width: 1228
Flags: W
LayerCount: 2
Fore
SplineSet
1096 142 m 0,1,2
 1096 110 1096 110 1063 90 c 0,3,4
 985 41 985 41 889 9.5 c 128,-1,5
 793 -22 793 -22 710 -22 c 0,6,7
 540 -22 540 -22 461.5 66.5 c 128,-1,8
 383 155 383 155 383 331 c 2,9,-1
 383 700 l 1,10,-1
 180 700 l 2,11,12
 146 700 146 700 131.5 716.5 c 128,-1,13
 117 733 117 733 117 772 c 256,14,15
 117 811 117 811 131.5 827.5 c 128,-1,16
 146 844 146 844 180 844 c 2,17,-1
 383 844 l 1,18,-1
 383 1144 l 2,19,20
 383 1179 383 1179 400 1194 c 128,-1,21
 417 1209 417 1209 458 1209 c 256,22,23
 499 1209 499 1209 516 1194 c 128,-1,24
 533 1179 533 1179 533 1144 c 2,25,-1
 533 844 l 1,26,-1
 944 844 l 2,27,28
 978 844 978 844 992.5 827.5 c 128,-1,29
 1007 811 1007 811 1007 772 c 256,30,31
 1007 733 1007 733 992.5 716.5 c 128,-1,32
 978 700 978 700 944 700 c 2,33,-1
 533 700 l 1,34,-1
 533 344 l 2,35,36
 533 230 533 230 573 177 c 128,-1,37
 613 124 613 124 710 124 c 0,38,39
 777 124 777 124 851 151 c 128,-1,40
 925 178 925 178 994 223 c 0,41,42
 1008 233 1008 233 1025 233 c 0,43,44
 1059 233 1059 233 1083 187 c 0,45,0
 1096 161 1096 161 1096 142 c 0,1,2
EndSplineSet
EndChar

StartChar: tbar
Encoding: 359 359 224
Width: 1228
Flags: W
LayerCount: 2
Fore
SplineSet
1096 142 m 0,1,2
 1096 110 1096 110 1063 90 c 0,3,4
 985 41 985 41 889 9.5 c 128,-1,5
 793 -22 793 -22 710 -22 c 0,6,7
 540 -22 540 -22 461.5 66.5 c 128,-1,8
 383 155 383 155 383 331 c 2,9,-1
 383 406 l 1,10,-1
 263 406 l 2,11,12
 229 406 229 406 214.5 422.5 c 128,-1,13
 200 439 200 439 200 478 c 256,14,15
 200 517 200 517 214.5 533.5 c 128,-1,16
 229 550 229 550 263 550 c 2,17,-1
 383 550 l 1,18,-1
 383 700 l 1,19,-1
 180 700 l 2,20,21
 146 700 146 700 131.5 716.5 c 128,-1,22
 117 733 117 733 117 772 c 256,23,24
 117 811 117 811 131.5 827.5 c 128,-1,25
 146 844 146 844 180 844 c 2,26,-1
 383 844 l 1,27,-1
 383 1144 l 2,28,29
 383 1179 383 1179 400 1194 c 128,-1,30
 417 1209 417 1209 458 1209 c 256,31,32
 499 1209 499 1209 516 1194 c 128,-1,33
 533 1179 533 1179 533 1144 c 2,34,-1
 533 844 l 1,35,-1
 944 844 l 2,36,37
 978 844 978 844 992.5 827.5 c 128,-1,38
 1007 811 1007 811 1007 772 c 256,39,40
 1007 733 1007 733 992.5 716.5 c 128,-1,41
 978 700 978 700 944 700 c 2,42,-1
 533 700 l 1,43,-1
 533 550 l 1,44,-1
 785 550 l 2,45,46
 819 550 819 550 833.5 533.5 c 128,-1,47
 848 517 848 517 848 478 c 256,48,49
 848 439 848 439 833.5 422.5 c 128,-1,50
 819 406 819 406 785 406 c 2,51,-1
 533 406 l 1,52,-1
 533 344 l 2,53,54
 533 230 533 230 573 177 c 128,-1,55
 613 124 613 124 710 124 c 0,56,57
 777 124 777 124 851 151 c 128,-1,58
 925 178 925 178 994 223 c 0,59,60
 1008 233 1008 233 1025 233 c 0,61,62
 1059 233 1059 233 1083 187 c 0,63,0
 1096 161 1096 161 1096 142 c 0,1,2
EndSplineSet
EndChar

StartChar: uni0163
Encoding: 355 355 226
Width: 1228
Flags: W
LayerCount: 2
Fore
SplineSet
1096 142 m 0,1,2
 1096 110 1096 110 1063 90 c 0,3,4
 985 41 985 41 889 9.5 c 128,-1,5
 793 -22 793 -22 710 -22 c 2,6,-1
 703 -22 l 1,7,-1
 703 -113 l 1,8,9
 804 -112 804 -112 855 -159 c 128,-1,10
 906 -206 906 -206 906 -281 c 0,11,12
 906 -368 906 -368 844 -420 c 128,-1,13
 782 -472 782 -472 661 -472 c 0,14,15
 593 -472 593 -472 529 -460 c 128,-1,16
 465 -448 465 -448 414 -424 c 0,17,18
 391 -414 391 -414 391 -389 c 0,19,20
 391 -375 391 -375 399 -354 c 0,21,22
 416 -309 416 -309 445 -309 c 0,23,24
 453 -309 453 -309 458 -311 c 0,25,26
 501 -327 501 -327 552.5 -338 c 128,-1,27
 604 -349 604 -349 651 -349 c 0,28,29
 702 -349 702 -349 731 -332.5 c 128,-1,30
 760 -316 760 -316 760 -285 c 0,31,32
 760 -252 760 -252 733 -236 c 128,-1,33
 706 -220 706 -220 644 -220 c 2,34,-1
 605 -221 l 2,35,36
 590 -221 590 -221 580.5 -210.5 c 128,-1,37
 571 -200 571 -200 571 -177 c 2,38,-1
 571 -3 l 1,39,40
 474 29 474 29 428.5 112.5 c 128,-1,41
 383 196 383 196 383 331 c 2,42,-1
 383 700 l 1,43,-1
 180 700 l 2,44,45
 146 700 146 700 131.5 716.5 c 128,-1,46
 117 733 117 733 117 772 c 256,47,48
 117 811 117 811 131.5 827.5 c 128,-1,49
 146 844 146 844 180 844 c 2,50,-1
 383 844 l 1,51,-1
 383 1144 l 2,52,53
 383 1179 383 1179 400 1194 c 128,-1,54
 417 1209 417 1209 458 1209 c 256,55,56
 499 1209 499 1209 516 1194 c 128,-1,57
 533 1179 533 1179 533 1144 c 2,58,-1
 533 844 l 1,59,-1
 944 844 l 2,60,61
 978 844 978 844 992.5 827.5 c 128,-1,62
 1007 811 1007 811 1007 772 c 256,63,64
 1007 733 1007 733 992.5 716.5 c 128,-1,65
 978 700 978 700 944 700 c 2,66,-1
 533 700 l 1,67,-1
 533 344 l 2,68,69
 533 230 533 230 573 177 c 128,-1,70
 613 124 613 124 710 124 c 0,71,72
 777 124 777 124 851 151 c 128,-1,73
 925 178 925 178 994 223 c 0,74,75
 1008 233 1008 233 1025 233 c 0,76,77
 1059 233 1059 233 1083 187 c 0,78,0
 1096 161 1096 161 1096 142 c 0,1,2
EndSplineSet
Substitution2: "'locl' Localized Forms in Latin lookup 2 subtable" uni021B
Substitution2: "'locl' Localized Forms in Latin lookup 1 subtable" uni021B
Substitution2: "'aalt' Access All Alternates lookup 0 subtable" uni021B
EndChar

StartChar: u
Encoding: 117 117 228
Width: 1228
Flags: W
LayerCount: 2
Fore
SplineSet
1009.5 919 m 128,-1,1
 1026 904 1026 904 1026 869 c 2,2,-1
 1026 55 l 2,3,4
 1026 20 1026 20 1011 5 c 128,-1,5
 996 -10 996 -10 957 -10 c 2,6,-1
 955 -10 l 2,7,8
 916 -10 916 -10 901 5 c 128,-1,9
 886 20 886 20 886 55 c 2,10,-1
 886 218 l 1,11,12
 818 113 818 113 713 45.5 c 128,-1,13
 608 -22 608 -22 501 -22 c 0,14,15
 350 -22 350 -22 267 65 c 128,-1,16
 184 152 184 152 184 304 c 2,17,-1
 184 869 l 2,18,19
 184 904 184 904 200.5 919 c 128,-1,20
 217 934 217 934 258 934 c 2,21,-1
 260 934 l 2,22,23
 301 934 301 934 317.5 919 c 128,-1,24
 334 904 334 904 334 869 c 2,25,-1
 334 319 l 2,26,27
 334 229 334 229 378.5 177.5 c 128,-1,28
 423 126 423 126 516 126 c 0,29,30
 602 126 602 126 685.5 180.5 c 128,-1,31
 769 235 769 235 822.5 328.5 c 128,-1,32
 876 422 876 422 876 532 c 2,33,-1
 876 869 l 2,34,35
 876 904 876 904 892.5 919 c 128,-1,36
 909 934 909 934 950 934 c 2,37,-1
 952 934 l 2,38,0
 993 934 993 934 1009.5 919 c 128,-1,1
EndSplineSet
EndChar

StartChar: uogonek
Encoding: 371 371 236
Width: 1228
Flags: W
LayerCount: 2
Fore
SplineSet
1009.5 919 m 128,-1,1
 1026 904 1026 904 1026 869 c 2,2,-1
 1026 55 l 2,3,4
 1026 36 1026 36 1022.5 24 c 128,-1,5
 1019 12 1019 12 1010 4 c 0,6,7
 919 -80 919 -80 879 -142.5 c 128,-1,8
 839 -205 839 -205 839 -261 c 0,9,10
 839 -297 839 -297 860 -316.5 c 128,-1,11
 881 -336 881 -336 916 -336 c 0,12,13
 971 -336 971 -336 1029 -326 c 0,14,15
 1053 -322 1053 -322 1067 -339.5 c 128,-1,16
 1081 -357 1081 -357 1081 -396 c 0,17,18
 1081 -416 1081 -416 1072.5 -428 c 128,-1,19
 1064 -440 1064 -440 1047 -446 c 0,20,21
 972 -472 972 -472 883 -472 c 0,22,23
 790 -472 790 -472 736.5 -420 c 128,-1,24
 683 -368 683 -368 683 -281 c 0,25,26
 683 -200 683 -200 734.5 -124 c 128,-1,27
 786 -48 786 -48 886 32 c 1,28,-1
 886 218 l 1,29,30
 818 113 818 113 713 45.5 c 128,-1,31
 608 -22 608 -22 501 -22 c 0,32,33
 350 -22 350 -22 267 65 c 128,-1,34
 184 152 184 152 184 304 c 2,35,-1
 184 869 l 2,36,37
 184 904 184 904 200.5 919 c 128,-1,38
 217 934 217 934 258 934 c 2,39,-1
 260 934 l 2,40,41
 301 934 301 934 317.5 919 c 128,-1,42
 334 904 334 904 334 869 c 2,43,-1
 334 319 l 2,44,45
 334 229 334 229 378.5 177.5 c 128,-1,46
 423 126 423 126 516 126 c 0,47,48
 602 126 602 126 685.5 180.5 c 128,-1,49
 769 235 769 235 822.5 328.5 c 128,-1,50
 876 422 876 422 876 532 c 2,51,-1
 876 869 l 2,52,53
 876 904 876 904 892.5 919 c 128,-1,54
 909 934 909 934 950 934 c 2,55,-1
 952 934 l 2,56,0
 993 934 993 934 1009.5 919 c 128,-1,1
EndSplineSet
EndChar

StartChar: v
Encoding: 118 118 239
Width: 1228
Flags: W
LayerCount: 2
Fore
SplineSet
1091 899.5 m 128,-1,1
 1104 886 1104 886 1104 868 c 0,2,3
 1104 853 1104 853 1095 833 c 2,4,-1
 732 40 l 2,5,6
 717 7 717 7 690 -7.5 c 128,-1,7
 663 -22 663 -22 614 -22 c 256,8,9
 565 -22 565 -22 538 -7.5 c 128,-1,10
 511 7 511 7 496 40 c 2,11,-1
 133 833 l 2,12,13
 124 852 124 852 124 868 c 0,14,15
 124 886 124 886 137 899.5 c 128,-1,16
 150 913 150 913 177 924 c 0,17,18
 204 936 204 936 223 936 c 0,19,20
 240 936 240 936 252 926 c 128,-1,21
 264 916 264 916 274 894 c 2,22,-1
 614 143 l 1,23,-1
 954 894 l 2,24,25
 964 916 964 916 976 926 c 128,-1,26
 988 936 988 936 1005 936 c 0,27,28
 1024 936 1024 936 1051 924 c 0,29,0
 1078 913 1078 913 1091 899.5 c 128,-1,1
EndSplineSet
EndChar

StartChar: w
Encoding: 119 119 240
Width: 1228
Flags: W
LayerCount: 2
Fore
SplineSet
1156 911.5 m 128,-1,1
 1170 899 1170 899 1170 878 c 0,2,3
 1170 864 1170 864 1166 849 c 2,4,-1
 967 43 l 2,5,6
 958 7 958 7 940.5 -7.5 c 128,-1,7
 923 -22 923 -22 885 -22 c 0,8,9
 842 -22 842 -22 818 -6.5 c 128,-1,10
 794 9 794 9 783 43 c 2,11,-1
 614 555 l 1,12,-1
 445 43 l 2,13,14
 434 9 434 9 410 -6.5 c 128,-1,15
 386 -22 386 -22 343 -22 c 0,16,17
 305 -22 305 -22 287.5 -7.5 c 128,-1,18
 270 7 270 7 261 43 c 2,19,-1
 62 849 l 2,20,21
 58 864 58 864 58 878 c 0,22,23
 58 899 58 899 72 911.5 c 128,-1,24
 86 924 86 924 118 930 c 0,25,26
 135 934 135 934 151 934 c 0,27,28
 174 934 174 934 186.5 922 c 128,-1,29
 199 910 199 910 205 883 c 2,30,-1
 364 210 l 1,31,-1
 539 743 l 2,32,33
 555 790 555 790 614 790 c 256,34,35
 673 790 673 790 689 743 c 2,36,-1
 864 210 l 1,37,-1
 1023 883 l 2,38,39
 1029 910 1029 910 1041.5 922 c 128,-1,40
 1054 934 1054 934 1077 934 c 0,41,42
 1093 934 1093 934 1110 930 c 0,43,0
 1142 924 1142 924 1156 911.5 c 128,-1,1
EndSplineSet
EndChar

StartChar: x
Encoding: 120 120 245
Width: 1228
Flags: W
LayerCount: 2
Fore
SplineSet
1073 50 m 0,1,2
 1073 20 1073 20 1029 0 c 0,3,4
 996 -15 996 -15 974 -15 c 0,5,6
 945 -15 945 -15 919 15 c 2,7,-1
 620 367 l 1,8,-1
 321 15 l 2,9,10
 295 -15 295 -15 266 -15 c 0,11,12
 244 -15 244 -15 211 0 c 0,13,14
 167 20 167 20 167 50 c 0,15,16
 167 69 167 69 184 89 c 2,17,-1
 512 471 l 1,18,-1
 197 835 l 2,19,20
 179 856 179 856 179 874 c 0,21,22
 179 904 179 904 224 924 c 0,23,24
 257 939 257 939 279 939 c 0,25,26
 308 939 308 939 334 909 c 2,27,-1
 620 577 l 1,28,-1
 906 909 l 2,29,30
 932 939 932 939 961 939 c 0,31,32
 983 939 983 939 1016 924 c 0,33,34
 1061 904 1061 904 1061 874 c 0,35,36
 1061 856 1061 856 1043 835 c 2,37,-1
 728 471 l 1,38,-1
 1056 89 l 2,39,0
 1073 69 1073 69 1073 50 c 0,1,2
EndSplineSet
EndChar

StartChar: y
Encoding: 121 121 246
Width: 1228
Flags: W
LayerCount: 2
Fore
SplineSet
1091 899.5 m 128,-1,1
 1104 886 1104 886 1104 868 c 0,2,3
 1104 852 1104 852 1094 833 c 2,4,-1
 497 -358 l 2,5,6
 486 -380 486 -380 474 -390 c 128,-1,7
 462 -400 462 -400 446 -400 c 0,8,9
 428 -400 428 -400 401 -388 c 0,10,11
 374 -377 374 -377 361.5 -363.5 c 128,-1,12
 349 -350 349 -350 349 -333 c 0,13,14
 349 -317 349 -317 359 -297 c 2,15,-1
 530 43 l 1,16,-1
 133 833 l 2,17,18
 123 852 123 852 123 868 c 0,19,20
 123 902 123 902 177 924 c 0,21,22
 204 936 204 936 222 936 c 0,23,24
 239 936 239 936 251 926 c 128,-1,25
 263 916 263 916 274 894 c 2,26,-1
 615 211 l 1,27,-1
 954 894 l 2,28,29
 965 916 965 916 977 926 c 128,-1,30
 989 936 989 936 1006 936 c 0,31,32
 1024 936 1024 936 1051 924 c 0,33,0
 1078 913 1078 913 1091 899.5 c 128,-1,1
EndSplineSet
EndChar

StartChar: z
Encoding: 122 122 251
Width: 1228
Flags: W
LayerCount: 2
Fore
SplineSet
1035.5 127.5 m 128,-1,1
 1050 111 1050 111 1050 72 c 256,2,3
 1050 33 1050 33 1035.5 16.5 c 128,-1,4
 1021 0 1021 0 987 0 c 2,5,-1
 331 0 l 1,6,-1
 241 0 l 2,7,8
 207 0 207 0 192.5 15.5 c 128,-1,9
 178 31 178 31 178 68 c 0,10,11
 178 98 178 98 192 113 c 2,12,-1
 796 780 l 1,13,-1
 261 780 l 2,14,15
 227 780 227 780 212.5 796.5 c 128,-1,16
 198 813 198 813 198 852 c 256,17,18
 198 891 198 891 212.5 907.5 c 128,-1,19
 227 924 227 924 261 924 c 2,20,-1
 889 924 l 1,21,-1
 977 924 l 2,22,23
 1011 924 1011 924 1025.5 908.5 c 128,-1,24
 1040 893 1040 893 1040 856 c 0,25,26
 1040 827 1040 827 1025 810 c 2,27,-1
 422 144 l 1,28,-1
 987 144 l 2,29,0
 1021 144 1021 144 1035.5 127.5 c 128,-1,1
EndSplineSet
EndChar

StartChar: ordfeminine
Encoding: 170 170 257
Width: 1228
Flags: W
LayerCount: 2
Fore
SplineSet
855 1142.5 m 128,-1,1
 927 1076 927 1076 927 954 c 2,2,-1
 927 524 l 2,3,4
 927 498 927 498 913 486 c 128,-1,5
 899 474 899 474 868 474 c 2,6,-1
 866 474 l 2,7,8
 835 474 835 474 821 486 c 128,-1,9
 807 498 807 498 807 524 c 2,10,-1
 807 578 l 1,11,12
 674 465 674 465 522 465 c 0,13,14
 444 465 444 465 383 490.5 c 128,-1,15
 322 516 322 516 287 566 c 128,-1,16
 252 616 252 616 252 687 c 0,17,18
 252 809 252 809 337 868 c 128,-1,19
 422 927 422 927 558 927 c 0,20,21
 690 927 690 927 792 899 c 1,22,-1
 792 950 l 2,23,24
 792 1080 792 1080 644 1080 c 0,25,26
 524 1080 524 1080 412 1015 c 0,27,28
 398 1007 398 1007 386 1007 c 0,29,30
 358 1007 358 1007 338 1042 c 0,31,32
 322 1070 322 1070 322 1089 c 0,33,34
 322 1113 322 1113 345 1128 c 0,35,36
 406 1166 406 1166 485.5 1187.5 c 128,-1,37
 565 1209 565 1209 644 1209 c 0,38,0
 783 1209 783 1209 855 1142.5 c 128,-1,1
393 690 m 0,40,41
 393 642 393 642 428.5 616 c 128,-1,42
 464 590 464 590 526 590 c 0,43,44
 673 590 673 590 792 707 c 1,45,-1
 792 776 l 1,46,47
 683 801 683 801 569 801 c 0,48,39
 393 801 393 801 393 690 c 0,40,41
EndSplineSet
EndChar

StartChar: ordmasculine
Encoding: 186 186 258
Width: 1228
Flags: W
LayerCount: 2
Fore
SplineSet
807.5 1161 m 128,-1,1
 894 1113 894 1113 943.5 1028 c 128,-1,2
 993 943 993 943 993 837 c 0,3,4
 993 730 993 730 943.5 645.5 c 128,-1,5
 894 561 894 561 807.5 513 c 128,-1,6
 721 465 721 465 614 465 c 256,7,8
 507 465 507 465 420.5 513 c 128,-1,9
 334 561 334 561 284.5 645.5 c 128,-1,10
 235 730 235 730 235 837 c 0,11,12
 235 943 235 943 284.5 1028 c 128,-1,13
 334 1113 334 1113 420.5 1161 c 128,-1,14
 507 1209 507 1209 614 1209 c 256,15,0
 721 1209 721 1209 807.5 1161 c 128,-1,1
489.5 1046 m 128,-1,17
 435 1015 435 1015 405 960.5 c 128,-1,18
 375 906 375 906 375 837 c 256,19,20
 375 768 375 768 405 713 c 128,-1,21
 435 658 435 658 489.5 627.5 c 128,-1,22
 544 597 544 597 614 597 c 0,23,24
 685 597 685 597 739 627.5 c 128,-1,25
 793 658 793 658 823 712.5 c 128,-1,26
 853 767 853 767 853 837 c 0,27,28
 853 906 853 906 823 960.5 c 128,-1,29
 793 1015 793 1015 739 1046 c 128,-1,30
 685 1077 685 1077 614 1077 c 0,31,16
 544 1077 544 1077 489.5 1046 c 128,-1,17
EndSplineSet
EndChar

StartChar: uni0394
Encoding: 916 916 259
Width: 1228
Flags: W
LayerCount: 2
Fore
SplineSet
681.5 1193.5 m 128,-1,1
 706 1178 706 1178 718 1144 c 2,2,-1
 1075 106 l 2,3,4
 1080 91 1080 91 1080 68 c 0,5,6
 1080 31 1080 31 1065.5 15.5 c 128,-1,7
 1051 0 1051 0 1017 0 c 2,8,-1
 210 0 l 2,9,10
 176 0 176 0 161.5 15.5 c 128,-1,11
 147 31 147 31 147 68 c 0,12,13
 147 88 147 88 153 106 c 2,14,-1
 514 1144 l 2,15,16
 526 1178 526 1178 551 1193.5 c 128,-1,17
 576 1209 576 1209 617 1209 c 0,18,0
 657 1209 657 1209 681.5 1193.5 c 128,-1,1
615 1022 m 1,19,-1
 321 136 l 1,20,-1
 907 136 l 1,21,-1
 617 1022 l 1,22,-1
 615 1022 l 1,19,-1
EndSplineSet
EndChar

StartChar: uni03A9
Encoding: 937 937 260
Width: 1228
Flags: W
LayerCount: 2
Fore
SplineSet
889.5 1136 m 128,-1,1
 1009 1063 1009 1063 1074.5 930 c 128,-1,2
 1140 797 1140 797 1140 623 c 0,3,4
 1140 475 1140 475 1075 349.5 c 128,-1,5
 1010 224 1010 224 907 144 c 1,6,-1
 1084 144 l 2,7,8
 1118 144 1118 144 1132.5 127.5 c 128,-1,9
 1147 111 1147 111 1147 72 c 256,10,11
 1147 33 1147 33 1132.5 16.5 c 128,-1,12
 1118 0 1118 0 1084 0 c 2,13,-1
 750 0 l 2,14,15
 716 0 716 0 701.5 18 c 128,-1,16
 687 36 687 36 687 78 c 0,17,18
 687 130 687 130 704 142 c 0,19,20
 839 228 839 228 910.5 348.5 c 128,-1,21
 982 469 982 469 982 623 c 0,22,23
 982 756 982 756 936.5 855 c 128,-1,24
 891 954 891 954 807.5 1007.5 c 128,-1,25
 724 1061 724 1061 614 1061 c 256,26,27
 504 1061 504 1061 420.5 1007.5 c 128,-1,28
 337 954 337 954 291.5 855 c 128,-1,29
 246 756 246 756 246 623 c 0,30,31
 246 469 246 469 317.5 348.5 c 128,-1,32
 389 228 389 228 524 142 c 0,33,34
 541 130 541 130 541 78 c 0,35,36
 541 36 541 36 526.5 18 c 128,-1,37
 512 0 512 0 478 0 c 2,38,-1
 144 0 l 2,39,40
 110 0 110 0 95.5 16.5 c 128,-1,41
 81 33 81 33 81 72 c 256,42,43
 81 111 81 111 95.5 127.5 c 128,-1,44
 110 144 110 144 144 144 c 2,45,-1
 321 144 l 1,46,47
 218 224 218 224 153 349.5 c 128,-1,48
 88 475 88 475 88 623 c 0,49,50
 88 797 88 797 153.5 930 c 128,-1,51
 219 1063 219 1063 338.5 1136 c 128,-1,52
 458 1209 458 1209 614 1209 c 256,53,0
 770 1209 770 1209 889.5 1136 c 128,-1,1
EndSplineSet
EndChar

StartChar: uni03BC
Encoding: 956 956 261
Width: 1228
Flags: W
LayerCount: 2
Fore
SplineSet
1003.5 919 m 128,-1,1
 1020 904 1020 904 1020 869 c 2,2,-1
 1020 55 l 2,3,4
 1020 20 1020 20 1005 5 c 128,-1,5
 990 -10 990 -10 951 -10 c 2,6,-1
 949 -10 l 2,7,8
 910 -10 910 -10 895 5 c 128,-1,9
 880 20 880 20 880 55 c 2,10,-1
 880 198 l 1,11,12
 817 100 817 100 726.5 39 c 128,-1,13
 636 -22 636 -22 535 -22 c 0,14,15
 435 -22 435 -22 368 25 c 1,16,-1
 368 -333 l 2,17,18
 368 -368 368 -368 351.5 -383 c 128,-1,19
 335 -398 335 -398 294 -398 c 2,20,-1
 292 -398 l 2,21,22
 251 -398 251 -398 234.5 -383 c 128,-1,23
 218 -368 218 -368 218 -333 c 2,24,-1
 218 869 l 2,25,26
 218 904 218 904 234.5 919 c 128,-1,27
 251 934 251 934 292 934 c 2,28,-1
 294 934 l 2,29,30
 335 934 335 934 351.5 919 c 128,-1,31
 368 904 368 904 368 869 c 2,32,-1
 368 319 l 2,33,34
 368 229 368 229 412.5 177.5 c 128,-1,35
 457 126 457 126 550 126 c 0,36,37
 626 126 626 126 700.5 177 c 128,-1,38
 775 228 775 228 822.5 314.5 c 128,-1,39
 870 401 870 401 870 502 c 2,40,-1
 870 869 l 2,41,42
 870 904 870 904 886.5 919 c 128,-1,43
 903 934 903 934 944 934 c 2,44,-1
 946 934 l 2,45,0
 987 934 987 934 1003.5 919 c 128,-1,1
EndSplineSet
EndChar

StartChar: pi
Encoding: 960 960 262
Width: 1228
Flags: W
LayerCount: 2
Fore
SplineSet
1115.5 907.5 m 128,-1,1
 1130 891 1130 891 1130 852 c 256,2,3
 1130 813 1130 813 1115.5 796.5 c 128,-1,4
 1101 780 1101 780 1067 780 c 2,5,-1
 980 780 l 1,6,-1
 980 55 l 2,7,8
 980 20 980 20 963.5 5 c 128,-1,9
 947 -10 947 -10 906 -10 c 2,10,-1
 904 -10 l 2,11,12
 863 -10 863 -10 846.5 5 c 128,-1,13
 830 20 830 20 830 55 c 2,14,-1
 830 780 l 1,15,-1
 398 780 l 1,16,-1
 398 55 l 2,17,18
 398 20 398 20 381.5 5 c 128,-1,19
 365 -10 365 -10 324 -10 c 2,20,-1
 322 -10 l 2,21,22
 281 -10 281 -10 264.5 5 c 128,-1,23
 248 20 248 20 248 55 c 2,24,-1
 248 780 l 1,25,-1
 161 780 l 2,26,27
 127 780 127 780 112.5 796.5 c 128,-1,28
 98 813 98 813 98 852 c 256,29,30
 98 891 98 891 112.5 907.5 c 128,-1,31
 127 924 127 924 161 924 c 2,32,-1
 1067 924 l 2,33,0
 1101 924 1101 924 1115.5 907.5 c 128,-1,1
EndSplineSet
EndChar

StartChar: zero
Encoding: 48 48 263
Width: 1228
Flags: W
LayerCount: 2
Fore
SplineSet
838 1132.5 m 128,-1,1
 934 1056 934 1056 986 916.5 c 128,-1,2
 1038 777 1038 777 1038 593 c 256,3,4
 1038 409 1038 409 986 270 c 128,-1,5
 934 131 934 131 838 54.5 c 128,-1,6
 742 -22 742 -22 614 -22 c 256,7,8
 486 -22 486 -22 390 54.5 c 128,-1,9
 294 131 294 131 242 270 c 128,-1,10
 190 409 190 409 190 593 c 256,11,12
 190 777 190 777 242 916.5 c 128,-1,13
 294 1056 294 1056 390 1132.5 c 128,-1,14
 486 1209 486 1209 614 1209 c 256,15,0
 742 1209 742 1209 838 1132.5 c 128,-1,1
474 1005.5 m 128,-1,17
 413 950 413 950 378.5 844.5 c 128,-1,18
 344 739 344 739 344 593 c 0,19,20
 344 498 344 498 360 413 c 1,21,-1
 817 924 l 1,22,23
 780 991 780 991 728 1026 c 128,-1,24
 676 1061 676 1061 614 1061 c 0,25,16
 535 1061 535 1061 474 1005.5 c 128,-1,17
754 181 m 128,-1,27
 815 236 815 236 849.5 341.5 c 128,-1,28
 884 447 884 447 884 593 c 0,29,30
 884 688 884 688 868 773 c 1,31,-1
 412 262 l 1,32,33
 448 195 448 195 500 160.5 c 128,-1,34
 552 126 552 126 614 126 c 0,35,26
 693 126 693 126 754 181 c 128,-1,27
EndSplineSet
EndChar

StartChar: one
Encoding: 49 49 264
Width: 1228
Flags: W
LayerCount: 2
Fore
SplineSet
1022.5 127.5 m 128,-1,1
 1037 111 1037 111 1037 72 c 256,2,3
 1037 33 1037 33 1022.5 16.5 c 128,-1,4
 1008 0 1008 0 974 0 c 2,5,-1
 300 0 l 2,6,7
 266 0 266 0 251.5 16.5 c 128,-1,8
 237 33 237 33 237 72 c 256,9,10
 237 111 237 111 251.5 127.5 c 128,-1,11
 266 144 266 144 300 144 c 2,12,-1
 569 144 l 1,13,-1
 569 994 l 1,14,-1
 320 839 l 2,15,16
 303 829 303 829 289 829 c 0,17,18
 257 829 257 829 234 870 c 0,19,20
 220 894 220 894 220 916 c 0,21,22
 220 950 220 950 251 968 c 2,23,-1
 628 1200 l 2,24,25
 648 1212 648 1212 668 1212 c 0,26,27
 690 1212 690 1212 704.5 1197.5 c 128,-1,28
 719 1183 719 1183 719 1157 c 2,29,-1
 719 144 l 1,30,-1
 974 144 l 2,31,0
 1008 144 1008 144 1022.5 127.5 c 128,-1,1
EndSplineSet
Substitution2: "'sups' Superscript lookup 4 subtable" uni00B9
Substitution2: "'aalt' Access All Alternates lookup 0 subtable" uni00B9
EndChar

StartChar: two
Encoding: 50 50 265
Width: 1228
Flags: W
LayerCount: 2
Fore
SplineSet
1002.5 127.5 m 128,-1,1
 1017 111 1017 111 1017 72 c 256,2,3
 1017 33 1017 33 1002.5 16.5 c 128,-1,4
 988 0 988 0 954 0 c 2,5,-1
 349 0 l 1,6,-1
 260 0 l 2,7,8
 226 0 226 0 211.5 15.5 c 128,-1,9
 197 31 197 31 197 68 c 0,10,11
 197 106 197 106 212 122 c 2,12,-1
 652 568 l 2,13,14
 744 661 744 661 781.5 724 c 128,-1,15
 819 787 819 787 819 859 c 0,16,17
 819 952 819 952 759.5 1006.5 c 128,-1,18
 700 1061 700 1061 591 1061 c 0,19,20
 525 1061 525 1061 454 1036 c 128,-1,21
 383 1011 383 1011 320 967 c 0,22,23
 304 955 304 955 286 955 c 0,24,25
 253 955 253 955 228 996 c 0,26,27
 211 1025 211 1025 211 1045 c 0,28,29
 211 1073 211 1073 241 1095 c 0,30,31
 317 1149 317 1149 409 1179 c 128,-1,32
 501 1209 501 1209 590 1209 c 0,33,34
 706 1209 706 1209 792.5 1167.5 c 128,-1,35
 879 1126 879 1126 926 1047 c 128,-1,36
 973 968 973 968 973 859 c 0,37,38
 973 757 973 757 923.5 670.5 c 128,-1,39
 874 584 874 584 769 477 c 2,40,-1
 441 144 l 1,41,-1
 954 144 l 2,42,0
 988 144 988 144 1002.5 127.5 c 128,-1,1
EndSplineSet
Substitution2: "'sups' Superscript lookup 4 subtable" uni00B2
Substitution2: "'aalt' Access All Alternates lookup 0 subtable" uni00B2
EndChar

StartChar: three
Encoding: 51 51 266
Width: 1228
Flags: W
LayerCount: 2
Fore
SplineSet
781 1168.5 m 128,-1,1
 867 1128 867 1128 914 1053.5 c 128,-1,2
 961 979 961 979 961 879 c 0,3,4
 961 793 961 793 921 730.5 c 128,-1,5
 881 668 881 668 808 631 c 1,6,7
 898 594 898 594 948 520.5 c 128,-1,8
 998 447 998 447 998 345 c 0,9,10
 998 236 998 236 949.5 153 c 128,-1,11
 901 70 901 70 809 24 c 128,-1,12
 717 -22 717 -22 588 -22 c 0,13,14
 490 -22 490 -22 390 12 c 128,-1,15
 290 46 290 46 211 104 c 0,16,17
 181 126 181 126 181 154 c 0,18,19
 181 174 181 174 198 203 c 0,20,21
 224 245 224 245 256 245 c 0,22,23
 272 245 272 245 290 232 c 0,24,25
 356 183 356 183 433 154.5 c 128,-1,26
 510 126 510 126 588 126 c 0,27,28
 712 126 712 126 778 185 c 128,-1,29
 844 244 844 244 844 345 c 0,30,31
 844 448 844 448 777.5 501.5 c 128,-1,32
 711 555 711 555 593 555 c 2,33,-1
 520 555 l 2,34,35
 486 555 486 555 471.5 570.5 c 128,-1,36
 457 586 457 586 457 623 c 256,37,38
 457 660 457 660 471.5 675.5 c 128,-1,39
 486 691 486 691 520 691 c 2,40,-1
 575 691 l 2,41,42
 689 691 689 691 748 739 c 128,-1,43
 807 787 807 787 807 879 c 0,44,45
 807 964 807 964 748 1012.5 c 128,-1,46
 689 1061 689 1061 581 1061 c 0,47,48
 449 1061 449 1061 317 981 c 0,49,50
 299 971 299 971 285 971 c 0,51,52
 253 971 253 971 229 1014 c 0,53,54
 215 1041 215 1041 215 1062 c 0,55,56
 215 1094 215 1094 247 1113 c 0,57,58
 410 1209 410 1209 580 1209 c 0,59,0
 695 1209 695 1209 781 1168.5 c 128,-1,1
EndSplineSet
Substitution2: "'sups' Superscript lookup 4 subtable" uni00B3
Substitution2: "'aalt' Access All Alternates lookup 0 subtable" uni00B3
EndChar

StartChar: four
Encoding: 52 52 267
Width: 1228
Flags: W
LayerCount: 2
Fore
SplineSet
1048.5 429.5 m 128,-1,1
 1063 413 1063 413 1063 374 c 256,2,3
 1063 335 1063 335 1048.5 318.5 c 128,-1,4
 1034 302 1034 302 1000 302 c 2,5,-1
 838 302 l 1,6,-1
 838 55 l 2,7,8
 838 20 838 20 821.5 5 c 128,-1,9
 805 -10 805 -10 764 -10 c 2,10,-1
 762 -10 l 2,11,12
 721 -10 721 -10 704.5 5 c 128,-1,13
 688 20 688 20 688 55 c 2,14,-1
 688 302 l 1,15,-1
 210 302 l 2,16,17
 176 302 176 302 160.5 320 c 128,-1,18
 145 338 145 338 145 376 c 0,19,20
 145 408 145 408 157 425 c 2,21,-1
 641 1148 l 2,22,23
 662 1180 662 1180 687.5 1194.5 c 128,-1,24
 713 1209 713 1209 751 1209 c 0,25,26
 838 1209 838 1209 838 1131 c 2,27,-1
 838 446 l 1,28,-1
 1000 446 l 2,29,0
 1034 446 1034 446 1048.5 429.5 c 128,-1,1
342 446 m 1,30,-1
 688 446 l 1,31,-1
 696 992 l 1,32,-1
 342 446 l 1,30,-1
EndSplineSet
Substitution2: "'sups' Superscript lookup 4 subtable" uni2074
Substitution2: "'aalt' Access All Alternates lookup 0 subtable" uni2074
EndChar

StartChar: five
Encoding: 53 53 268
Width: 1228
Flags: W
LayerCount: 2
Fore
SplineSet
828.5 735 m 128,-1,1
 916 684 916 684 962 593.5 c 128,-1,2
 1008 503 1008 503 1008 386 c 256,3,4
 1008 269 1008 269 956.5 176 c 128,-1,5
 905 83 905 83 809.5 30.5 c 128,-1,6
 714 -22 714 -22 588 -22 c 0,7,8
 492 -22 492 -22 395 10 c 128,-1,9
 298 42 298 42 219 97 c 0,10,11
 188 120 188 120 188 149 c 0,12,13
 188 171 188 171 204 197 c 0,14,15
 230 239 230 239 262 239 c 0,16,17
 278 239 278 239 296 226 c 0,18,19
 361 180 361 180 437 153 c 128,-1,20
 513 126 513 126 588 126 c 0,21,22
 669 126 669 126 729.5 158.5 c 128,-1,23
 790 191 790 191 822 249.5 c 128,-1,24
 854 308 854 308 854 386 c 0,25,26
 854 460 854 460 824 517 c 128,-1,27
 794 574 794 574 738 606 c 128,-1,28
 682 638 682 638 608 638 c 0,29,30
 540 638 540 638 486 620.5 c 128,-1,31
 432 603 432 603 381 567 c 0,32,33
 365 557 365 557 331 557 c 0,34,35
 289 557 289 557 271.5 572 c 128,-1,36
 254 587 254 587 256 622 c 2,37,-1
 276 1122 l 2,38,39
 278 1157 278 1157 294 1172 c 128,-1,40
 310 1187 310 1187 351 1187 c 2,41,-1
 485 1187 l 1,42,-1
 885 1187 l 2,43,44
 919 1187 919 1187 933.5 1170.5 c 128,-1,45
 948 1154 948 1154 948 1115 c 256,46,47
 948 1076 948 1076 933.5 1059.5 c 128,-1,48
 919 1043 919 1043 885 1043 c 2,49,-1
 419 1043 l 1,50,-1
 406 730 l 1,51,52
 506 786 506 786 621 786 c 0,53,0
 741 786 741 786 828.5 735 c 128,-1,1
EndSplineSet
EndChar

StartChar: six
Encoding: 54 54 269
Width: 1228
Flags: W
LayerCount: 2
Fore
SplineSet
959.5 1191 m 128,-1,1
 975 1172 975 1172 975 1121 c 0,2,3
 975 1090 975 1090 965.5 1076.5 c 128,-1,4
 956 1063 956 1063 938 1062 c 0,5,6
 672 1048 672 1048 529 924.5 c 128,-1,7
 386 801 386 801 358 589 c 1,8,9
 410 657 410 657 486 694 c 128,-1,10
 562 731 562 731 648 731 c 0,11,12
 758 731 758 731 846 684 c 128,-1,13
 934 637 934 637 984 551 c 128,-1,14
 1034 465 1034 465 1034 353 c 0,15,16
 1034 245 1034 245 983.5 159.5 c 128,-1,17
 933 74 933 74 840 26 c 128,-1,18
 747 -22 747 -22 626 -22 c 0,19,20
 517 -22 517 -22 426 28 c 128,-1,21
 335 78 335 78 279 173 c 0,22,23
 203 304 203 304 203 512 c 0,24,25
 203 685 203 685 276 839 c 128,-1,26
 349 993 349 993 509 1095.5 c 128,-1,27
 669 1198 669 1198 917 1209 c 0,28,0
 944 1210 944 1210 959.5 1191 c 128,-1,1
495 555.5 m 128,-1,30
 437 528 437 528 404.5 479.5 c 128,-1,31
 372 431 372 431 372 368 c 0,32,33
 372 298 372 298 403.5 243 c 128,-1,34
 435 188 435 188 492.5 157 c 128,-1,35
 550 126 550 126 626 126 c 256,36,37
 702 126 702 126 759.5 154 c 128,-1,38
 817 182 817 182 848.5 233.5 c 128,-1,39
 880 285 880 285 880 353 c 0,40,41
 880 422 880 422 849 474 c 128,-1,42
 818 526 818 526 761 554.5 c 128,-1,43
 704 583 704 583 626 583 c 0,44,29
 553 583 553 583 495 555.5 c 128,-1,30
EndSplineSet
EndChar

StartChar: seven
Encoding: 55 55 270
Width: 1228
Flags: W
LayerCount: 2
Fore
SplineSet
1014.5 1171.5 m 128,-1,1
 1029 1156 1029 1156 1029 1119 c 0,2,3
 1029 1095 1029 1095 1023 1079 c 2,4,-1
 597 24 l 2,5,6
 588 1 588 1 568.5 -10.5 c 128,-1,7
 549 -22 549 -22 522 -22 c 0,8,9
 485 -22 485 -22 463 -7.5 c 128,-1,10
 441 7 441 7 441 32 c 0,11,12
 441 41 441 41 446 56 c 2,13,-1
 850 1043 l 1,14,-1
 262 1043 l 2,15,16
 228 1043 228 1043 213.5 1059.5 c 128,-1,17
 199 1076 199 1076 199 1115 c 256,18,19
 199 1154 199 1154 213.5 1170.5 c 128,-1,20
 228 1187 228 1187 262 1187 c 2,21,-1
 910 1187 l 1,22,-1
 966 1187 l 2,23,0
 1000 1187 1000 1187 1014.5 1171.5 c 128,-1,1
EndSplineSet
EndChar

StartChar: eight
Encoding: 56 56 271
Width: 1228
Flags: W
LayerCount: 2
Fore
SplineSet
802 1165.5 m 128,-1,1
 886 1122 886 1122 933.5 1046.5 c 128,-1,2
 981 971 981 971 981 879 c 0,3,4
 981 798 981 798 936 734 c 128,-1,5
 891 670 891 670 817 630 c 1,6,7
 909 589 909 589 963.5 514 c 128,-1,8
 1018 439 1018 439 1018 340 c 0,9,10
 1018 237 1018 237 966 154.5 c 128,-1,11
 914 72 914 72 821.5 25 c 128,-1,12
 729 -22 729 -22 614 -22 c 256,13,14
 499 -22 499 -22 406.5 25 c 128,-1,15
 314 72 314 72 262 154.5 c 128,-1,16
 210 237 210 237 210 340 c 0,17,18
 210 439 210 439 264.5 514 c 128,-1,19
 319 589 319 589 410 630 c 1,20,21
 336 670 336 670 291.5 734 c 128,-1,22
 247 798 247 798 247 879 c 0,23,24
 247 971 247 971 294.5 1046.5 c 128,-1,25
 342 1122 342 1122 426 1165.5 c 128,-1,26
 510 1209 510 1209 614 1209 c 256,27,0
 718 1209 718 1209 802 1165.5 c 128,-1,1
503.5 1038.5 m 128,-1,29
 455 1016 455 1016 427 974 c 128,-1,30
 399 932 399 932 399 876 c 0,31,32
 399 825 399 825 427 783 c 128,-1,33
 455 741 455 741 504.5 717 c 128,-1,34
 554 693 554 693 614 693 c 256,35,36
 674 693 674 693 723.5 717 c 128,-1,37
 773 741 773 741 801 783 c 128,-1,38
 829 825 829 825 829 876 c 0,39,40
 829 932 829 932 801 974 c 128,-1,41
 773 1016 773 1016 724.5 1038.5 c 128,-1,42
 676 1061 676 1061 614 1061 c 256,43,28
 552 1061 552 1061 503.5 1038.5 c 128,-1,29
484.5 527 m 128,-1,45
 428 500 428 500 396 451.5 c 128,-1,46
 364 403 364 403 364 341 c 256,47,48
 364 279 364 279 396 230 c 128,-1,49
 428 181 428 181 484.5 153.5 c 128,-1,50
 541 126 541 126 614 126 c 256,51,52
 687 126 687 126 743.5 153.5 c 128,-1,53
 800 181 800 181 832 230 c 128,-1,54
 864 279 864 279 864 341 c 256,55,56
 864 403 864 403 832 451.5 c 128,-1,57
 800 500 800 500 743.5 527 c 128,-1,58
 687 554 687 554 614 554 c 256,59,44
 541 554 541 554 484.5 527 c 128,-1,45
EndSplineSet
EndChar

StartChar: nine
Encoding: 57 57 272
Width: 1228
Flags: W
LayerCount: 2
Fore
SplineSet
802 1159 m 128,-1,1
 893 1109 893 1109 949 1014 c 0,2,3
 1025 883 1025 883 1025 675 c 0,4,5
 1025 502 1025 502 952 348 c 128,-1,6
 879 194 879 194 719 91.5 c 128,-1,7
 559 -11 559 -11 311 -22 c 0,8,9
 284 -23 284 -23 268.5 -4 c 128,-1,10
 253 15 253 15 253 66 c 0,11,12
 253 97 253 97 262.5 110.5 c 128,-1,13
 272 124 272 124 290 125 c 0,14,15
 556 139 556 139 699 262.5 c 128,-1,16
 842 386 842 386 870 598 c 1,17,18
 818 530 818 530 742 493 c 128,-1,19
 666 456 666 456 580 456 c 0,20,21
 470 456 470 456 382 503 c 128,-1,22
 294 550 294 550 244 636 c 128,-1,23
 194 722 194 722 194 834 c 0,24,25
 194 942 194 942 244.5 1027.5 c 128,-1,26
 295 1113 295 1113 388 1161 c 128,-1,27
 481 1209 481 1209 602 1209 c 0,28,0
 711 1209 711 1209 802 1159 c 128,-1,1
468.5 1033 m 128,-1,30
 411 1005 411 1005 379.5 953.5 c 128,-1,31
 348 902 348 902 348 834 c 0,32,33
 348 765 348 765 379 713 c 128,-1,34
 410 661 410 661 467 632.5 c 128,-1,35
 524 604 524 604 602 604 c 0,36,37
 675 604 675 604 733 631.5 c 128,-1,38
 791 659 791 659 823.5 707.5 c 128,-1,39
 856 756 856 756 856 819 c 0,40,41
 856 889 856 889 824.5 944 c 128,-1,42
 793 999 793 999 735.5 1030 c 128,-1,43
 678 1061 678 1061 602 1061 c 256,44,29
 526 1061 526 1061 468.5 1033 c 128,-1,30
EndSplineSet
EndChar

StartChar: fraction
Encoding: 8260 8260 273
Width: 1228
Flags: W
LayerCount: 2
Fore
SplineSet
1059 854 m 0,1,2
 1082 854 1082 854 1103 826 c 0,3,4
 1117 808 1117 808 1117 788 c 0,5,6
 1117 769 1117 769 1103 761 c 2,7,-1
 185 200 l 2,8,9
 178 196 178 196 169 196 c 0,10,11
 146 196 146 196 125 224 c 0,12,13
 111 244 111 244 111 262 c 256,14,15
 111 280 111 280 125 289 c 2,16,-1
 1043 850 l 2,17,0
 1050 854 1050 854 1059 854 c 0,1,2
EndSplineSet
EndChar

StartChar: onehalf
Encoding: 189 189 274
Width: 1228
Flags: W
LayerCount: 2
Fore
SplineSet
68 1217 m 2,0,1
 54 1213 54 1213 49 1213 c 0,2,3
 23 1213 23 1213 9 1251 c 0,4,5
 4 1268 4 1268 4 1278 c 0,6,7
 4 1304 4 1304 34 1314 c 2,8,-1
 271 1390 l 2,9,10
 281 1393 281 1393 291 1393 c 0,11,12
 307 1393 307 1393 316.5 1384.5 c 128,-1,13
 326 1376 326 1376 326 1359 c 2,14,-1
 326 788 l 1,15,-1
 488 788 l 2,16,17
 509 788 509 788 519 776 c 128,-1,18
 529 764 529 764 529 736 c 0,19,20
 529 709 529 709 519 696.5 c 128,-1,21
 509 684 509 684 488 684 c 2,22,-1
 43 684 l 2,23,24
 1 684 1 684 1 736 c 0,25,26
 1 764 1 764 11.5 776 c 128,-1,27
 22 788 22 788 43 788 c 2,28,-1
 213 788 l 1,29,-1
 213 1264 l 1,30,-1
 68 1217 l 2,0,1
1059 894 m 0,32,33
 1082 894 1082 894 1103 866 c 0,34,35
 1117 848 1117 848 1117 828 c 0,36,37
 1117 809 1117 809 1103 801 c 2,38,-1
 185 240 l 2,39,40
 178 236 178 236 169 236 c 0,41,42
 146 236 146 236 125 264 c 0,43,44
 111 284 111 284 111 302 c 256,45,46
 111 320 111 320 125 329 c 2,47,-1
 1043 890 l 2,48,31
 1050 894 1050 894 1059 894 c 0,32,33
1117.5 436 m 128,-1,50
 1181 378 1181 378 1181 280 c 0,51,52
 1181 216 1181 216 1148 163.5 c 128,-1,53
 1115 111 1115 111 1045 53 c 2,54,-1
 846 -112 l 1,55,-1
 1169 -112 l 2,56,57
 1190 -112 1190 -112 1200 -124 c 128,-1,58
 1210 -136 1210 -136 1210 -164 c 0,59,60
 1210 -191 1210 -191 1200 -203.5 c 128,-1,61
 1190 -216 1190 -216 1169 -216 c 2,62,-1
 709 -216 l 2,63,64
 669 -216 669 -216 669 -156 c 0,65,66
 669 -123 669 -123 695 -102 c 2,67,-1
 973 132 l 2,68,69
 1020 172 1020 172 1042 205.5 c 128,-1,70
 1064 239 1064 239 1064 280 c 0,71,72
 1064 328 1064 328 1031 357 c 128,-1,73
 998 386 998 386 936 386 c 0,74,75
 893 386 893 386 844 372 c 128,-1,76
 795 358 795 358 751 335 c 0,77,78
 744 331 744 331 736 331 c 0,79,80
 711 331 711 331 695 368 c 0,81,82
 688 387 688 387 688 401 c 0,83,84
 688 425 688 425 706 435 c 0,85,86
 758 463 758 463 821 478.5 c 128,-1,87
 884 494 884 494 943 494 c 0,88,49
 1054 494 1054 494 1117.5 436 c 128,-1,50
EndSplineSet
Ligature2: "'frac' Diagonal Fractions lookup 5 subtable" one slash two
EndChar

StartChar: onequarter
Encoding: 188 188 275
Width: 1228
Flags: W
LayerCount: 2
Fore
SplineSet
519 696.5 m 128,-1,1
 509 684 509 684 488 684 c 2,2,-1
 43 684 l 2,3,4
 1 684 1 684 1 736 c 0,5,6
 1 764 1 764 11.5 776 c 128,-1,7
 22 788 22 788 43 788 c 2,8,-1
 213 788 l 1,9,-1
 213 1264 l 1,10,-1
 68 1217 l 2,11,12
 54 1213 54 1213 49 1213 c 0,13,14
 23 1213 23 1213 9 1251 c 0,15,16
 4 1268 4 1268 4 1278 c 0,17,18
 4 1304 4 1304 34 1314 c 2,19,-1
 271 1390 l 2,20,21
 281 1393 281 1393 291 1393 c 0,22,23
 307 1393 307 1393 316.5 1384.5 c 128,-1,24
 326 1376 326 1376 326 1359 c 2,25,-1
 326 788 l 1,26,-1
 488 788 l 2,27,28
 509 788 509 788 519 776 c 128,-1,29
 529 764 529 764 529 736 c 0,30,0
 529 709 529 709 519 696.5 c 128,-1,1
1117 778 m 0,32,33
 1117 759 1117 759 1103 751 c 2,34,-1
 185 190 l 2,35,36
 178 186 178 186 169 186 c 0,37,38
 146 186 146 186 125 214 c 0,39,40
 111 234 111 234 111 252 c 256,41,42
 111 270 111 270 125 279 c 2,43,-1
 1043 840 l 2,44,45
 1050 844 1050 844 1059 844 c 0,46,47
 1082 844 1082 844 1103 816 c 0,48,31
 1117 798 1117 798 1117 778 c 0,32,33
1223 64 m 128,-1,50
 1233 52 1233 52 1233 24 c 256,51,52
 1233 -4 1233 -4 1223 -16.5 c 128,-1,53
 1213 -29 1213 -29 1193 -29 c 2,54,-1
 1102 -29 l 1,55,-1
 1102 -182 l 2,56,57
 1102 -202 1102 -202 1089 -212 c 128,-1,58
 1076 -222 1076 -222 1046 -222 c 256,59,60
 1016 -222 1016 -222 1002.5 -212 c 128,-1,61
 989 -202 989 -202 989 -182 c 2,62,-1
 989 -29 l 1,63,-1
 675 -29 l 2,64,65
 655 -29 655 -29 642.5 -12.5 c 128,-1,66
 630 4 630 4 630 36 c 0,67,68
 630 51 630 51 633 60.5 c 128,-1,69
 636 70 636 70 644 81 c 2,70,-1
 961 458 l 2,71,72
 976 477 976 477 991.5 486 c 128,-1,73
 1007 495 1007 495 1028 495 c 0,74,75
 1057 495 1057 495 1079.5 481.5 c 128,-1,76
 1102 468 1102 468 1102 448 c 2,77,-1
 1102 76 l 1,78,-1
 1193 76 l 2,79,49
 1213 76 1213 76 1223 64 c 128,-1,50
989 76 m 1,80,-1
 994 342 l 1,81,-1
 773 76 l 1,82,-1
 989 76 l 1,80,-1
EndSplineSet
Ligature2: "'frac' Diagonal Fractions lookup 5 subtable" one slash four
EndChar

StartChar: threequarters
Encoding: 190 190 276
Width: 1228
Flags: W
LayerCount: 2
Fore
SplineSet
474 725.5 m 128,-1,1
 406 669 406 669 274 669 c 0,2,3
 212 669 212 669 150.5 682.5 c 128,-1,4
 89 696 89 696 40 723 c 0,5,6
 21 733 21 733 21 756 c 0,7,8
 21 769 21 769 28 788 c 0,9,10
 43 827 43 827 69 827 c 0,11,12
 77 827 77 827 85 823 c 0,13,14
 128 802 128 802 175.5 789 c 128,-1,15
 223 776 223 776 268 776 c 0,16,17
 343 776 343 776 384 803.5 c 128,-1,18
 425 831 425 831 425 881 c 0,19,20
 425 936 425 936 385.5 959 c 128,-1,21
 346 982 346 982 272 982 c 2,22,-1
 228 982 l 2,23,24
 192 982 192 982 192 1033 c 0,25,26
 192 1057 192 1057 201 1071.5 c 128,-1,27
 210 1086 210 1086 228 1086 c 2,28,-1
 261 1086 l 2,29,30
 331 1086 331 1086 367 1110 c 128,-1,31
 403 1134 403 1134 403 1187 c 0,32,33
 403 1236 403 1236 366 1261 c 128,-1,34
 329 1286 329 1286 264 1286 c 0,35,36
 181 1286 181 1286 92 1240 c 0,37,38
 85 1236 85 1236 76 1236 c 0,39,40
 51 1236 51 1236 35 1275 c 0,41,42
 29 1292 29 1292 29 1307 c 0,43,44
 29 1330 29 1330 47 1340 c 0,45,46
 95 1366 95 1366 154.5 1380 c 128,-1,47
 214 1394 214 1394 273 1394 c 0,48,49
 349 1394 349 1394 404.5 1369 c 128,-1,50
 460 1344 460 1344 490 1298.5 c 128,-1,51
 520 1253 520 1253 520 1195 c 0,52,53
 520 1095 520 1095 426 1044 c 1,54,55
 481 1026 481 1026 511.5 984.5 c 128,-1,56
 542 943 542 943 542 881 c 0,57,0
 542 782 542 782 474 725.5 c 128,-1,1
1117 788 m 0,59,60
 1117 769 1117 769 1103 761 c 2,61,-1
 185 200 l 2,62,63
 178 196 178 196 169 196 c 0,64,65
 146 196 146 196 125 224 c 0,66,67
 111 244 111 244 111 262 c 256,68,69
 111 280 111 280 125 289 c 2,70,-1
 1043 850 l 2,71,72
 1050 854 1050 854 1059 854 c 0,73,74
 1082 854 1082 854 1103 826 c 0,75,58
 1117 808 1117 808 1117 788 c 0,59,60
1223 64 m 128,-1,77
 1233 52 1233 52 1233 24 c 256,78,79
 1233 -4 1233 -4 1223 -16.5 c 128,-1,80
 1213 -29 1213 -29 1193 -29 c 2,81,-1
 1102 -29 l 1,82,-1
 1102 -182 l 2,83,84
 1102 -202 1102 -202 1089 -212 c 128,-1,85
 1076 -222 1076 -222 1046 -222 c 256,86,87
 1016 -222 1016 -222 1002.5 -212 c 128,-1,88
 989 -202 989 -202 989 -182 c 2,89,-1
 989 -29 l 1,90,-1
 675 -29 l 2,91,92
 655 -29 655 -29 642.5 -12.5 c 128,-1,93
 630 4 630 4 630 36 c 0,94,95
 630 51 630 51 633 60.5 c 128,-1,96
 636 70 636 70 644 81 c 2,97,-1
 961 458 l 2,98,99
 976 477 976 477 991.5 486 c 128,-1,100
 1007 495 1007 495 1028 495 c 0,101,102
 1057 495 1057 495 1079.5 481.5 c 128,-1,103
 1102 468 1102 468 1102 448 c 2,104,-1
 1102 76 l 1,105,-1
 1193 76 l 2,106,76
 1213 76 1213 76 1223 64 c 128,-1,77
989 76 m 1,107,-1
 994 342 l 1,108,-1
 773 76 l 1,109,-1
 989 76 l 1,107,-1
EndSplineSet
Ligature2: "'frac' Diagonal Fractions lookup 5 subtable" three slash four
EndChar

StartChar: uni00B9
Encoding: 185 185 277
Width: 1228
Flags: W
LayerCount: 2
Fore
SplineSet
395 1122 m 2,0,1
 384 1118 384 1118 372 1118 c 0,2,3
 356 1118 356 1118 344.5 1129 c 128,-1,4
 333 1140 333 1140 325 1163 c 0,5,6
 319 1181 319 1181 319 1196 c 0,7,8
 319 1228 319 1228 354 1239 c 2,9,-1
 638 1330 l 2,10,11
 649 1334 649 1334 662 1334 c 0,12,13
 681 1334 681 1334 692.5 1323.5 c 128,-1,14
 704 1313 704 1313 704 1292 c 2,15,-1
 704 608 l 1,16,-1
 898 608 l 2,17,18
 923 608 923 608 935 593.5 c 128,-1,19
 947 579 947 579 947 546 c 256,20,21
 947 513 947 513 935 498 c 128,-1,22
 923 483 923 483 898 483 c 2,23,-1
 365 483 l 2,24,25
 315 483 315 483 315 546 c 0,26,27
 315 579 315 579 327.5 593.5 c 128,-1,28
 340 608 340 608 365 608 c 2,29,-1
 569 608 l 1,30,-1
 569 1179 l 1,31,-1
 395 1122 l 2,0,1
EndSplineSet
EndChar

StartChar: uni00B2
Encoding: 178 178 278
Width: 1228
Flags: W
LayerCount: 2
Fore
SplineSet
768.5 1302.5 m 128,-1,1
 833 1271 833 1271 867 1213 c 128,-1,2
 901 1155 901 1155 901 1078 c 256,3,4
 901 1001 901 1001 861.5 938.5 c 128,-1,5
 822 876 822 876 738 806 c 2,6,-1
 499 608 l 1,7,-1
 886 608 l 2,8,9
 911 608 911 608 923 593.5 c 128,-1,10
 935 579 935 579 935 546 c 256,11,12
 935 513 935 513 923 498 c 128,-1,13
 911 483 911 483 886 483 c 2,14,-1
 335 483 l 2,15,16
 288 483 288 483 288 555 c 0,17,18
 288 594 288 594 319 620 c 2,19,-1
 651 900 l 2,20,21
 708 949 708 949 734.5 989 c 128,-1,22
 761 1029 761 1029 761 1078 c 0,23,24
 761 1136 761 1136 721 1170.5 c 128,-1,25
 681 1205 681 1205 607 1205 c 0,26,27
 556 1205 556 1205 497.5 1188 c 128,-1,28
 439 1171 439 1171 386 1144 c 0,29,30
 374 1139 374 1139 367 1139 c 0,31,32
 352 1139 352 1139 339.5 1151.5 c 128,-1,33
 327 1164 327 1164 319 1184 c 0,34,35
 310 1209 310 1209 310 1224 c 0,36,37
 310 1252 310 1252 332 1264 c 0,38,39
 393 1297 393 1297 468.5 1315.5 c 128,-1,40
 544 1334 544 1334 616 1334 c 0,41,0
 704 1334 704 1334 768.5 1302.5 c 128,-1,1
EndSplineSet
EndChar

StartChar: uni00B3
Encoding: 179 179 279
Width: 1228
Flags: W
LayerCount: 2
Fore
SplineSet
761 1304 m 128,-1,1
 828 1274 828 1274 863.5 1220 c 128,-1,2
 899 1166 899 1166 899 1096 c 0,3,4
 899 975 899 975 787 915 c 1,5,6
 853 893 853 893 889.5 843 c 128,-1,7
 926 793 926 793 926 719 c 0,8,9
 926 600 926 600 844.5 532.5 c 128,-1,10
 763 465 763 465 605 465 c 0,11,12
 531 465 531 465 457 481.5 c 128,-1,13
 383 498 383 498 324 530 c 0,14,15
 302 542 302 542 302 569 c 0,16,17
 302 586 302 586 310 608 c 0,18,19
 319 630 319 630 331.5 642.5 c 128,-1,20
 344 655 344 655 359 655 c 0,21,22
 368 655 368 655 378 650 c 0,23,24
 429 624 429 624 486.5 609 c 128,-1,25
 544 594 544 594 598 594 c 0,26,27
 688 594 688 594 737 626.5 c 128,-1,28
 786 659 786 659 786 720 c 0,29,30
 786 786 786 786 738.5 813 c 128,-1,31
 691 840 691 840 602 840 c 2,32,-1
 550 840 l 2,33,34
 506 840 506 840 506 902 c 0,35,36
 506 930 506 930 516.5 947.5 c 128,-1,37
 527 965 527 965 550 965 c 2,38,-1
 589 965 l 2,39,40
 673 965 673 965 716 994 c 128,-1,41
 759 1023 759 1023 759 1086 c 0,42,43
 759 1144 759 1144 715 1174.5 c 128,-1,44
 671 1205 671 1205 593 1205 c 0,45,46
 495 1205 495 1205 387 1150 c 0,47,48
 377 1145 377 1145 368 1145 c 0,49,50
 338 1145 338 1145 319 1192 c 0,51,52
 311 1213 311 1213 311 1229 c 0,53,54
 311 1259 311 1259 333 1270 c 0,55,56
 391 1301 391 1301 461.5 1317.5 c 128,-1,57
 532 1334 532 1334 604 1334 c 0,58,0
 694 1334 694 1334 761 1304 c 128,-1,1
EndSplineSet
EndChar

StartChar: uni2074
Encoding: 8308 8308 280
Width: 1228
Flags: W
LayerCount: 2
Fore
SplineSet
952 817.5 m 128,-1,1
 964 803 964 803 964 770 c 256,2,3
 964 737 964 737 952 722 c 128,-1,4
 940 707 940 707 916 707 c 2,5,-1
 807 707 l 1,6,-1
 807 523 l 2,7,8
 807 499 807 499 791.5 487 c 128,-1,9
 776 475 776 475 740 475 c 256,10,11
 704 475 704 475 688 487 c 128,-1,12
 672 499 672 499 672 523 c 2,13,-1
 672 707 l 1,14,-1
 296 707 l 2,15,16
 271 707 271 707 256.5 726.5 c 128,-1,17
 242 746 242 746 242 785 c 0,18,19
 242 802 242 802 246 814 c 128,-1,20
 250 826 250 826 259 838 c 2,21,-1
 638 1290 l 2,22,23
 657 1313 657 1313 675 1323.5 c 128,-1,24
 693 1334 693 1334 719 1334 c 0,25,26
 753 1334 753 1334 780 1318 c 128,-1,27
 807 1302 807 1302 807 1278 c 2,28,-1
 807 832 l 1,29,-1
 916 832 l 2,30,0
 940 832 940 832 952 817.5 c 128,-1,1
672 832 m 1,31,-1
 678 1151 l 1,32,-1
 413 832 l 1,33,-1
 672 832 l 1,31,-1
EndSplineSet
EndChar

StartChar: colon.alt
Encoding: 65538 -1 281
Width: 1228
Flags: W
LayerCount: 2
Fore
SplineSet
1017.5 919.5 m 128,-1,1
 1049 905 1049 905 1049 871 c 2,2,-1
 1049 687 l 2,3,4
 1049 653 1049 653 1017.5 638.5 c 128,-1,5
 986 624 986 624 914 624 c 256,6,7
 842 624 842 624 810.5 638.5 c 128,-1,8
 779 653 779 653 779 687 c 2,9,-1
 779 871 l 2,10,11
 779 905 779 905 810.5 919.5 c 128,-1,12
 842 934 842 934 914 934 c 256,13,0
 986 934 986 934 1017.5 919.5 c 128,-1,1
1017.5 285.5 m 128,-1,15
 1049 271 1049 271 1049 237 c 2,16,-1
 1049 53 l 2,17,18
 1049 19 1049 19 1017.5 4.5 c 128,-1,19
 986 -10 986 -10 914 -10 c 256,20,21
 842 -10 842 -10 810.5 4.5 c 128,-1,22
 779 19 779 19 779 53 c 2,23,-1
 779 237 l 2,24,25
 779 271 779 271 810.5 285.5 c 128,-1,26
 842 300 842 300 914 300 c 256,27,14
 986 300 986 300 1017.5 285.5 c 128,-1,15
EndSplineSet
EndChar

StartChar: semicolon.alt
Encoding: 65541 -1 284
Width: 1228
Flags: W
LayerCount: 2
Fore
SplineSet
1017.5 919.5 m 128,-1,1
 1049 905 1049 905 1049 871 c 2,2,-1
 1049 687 l 2,3,4
 1049 653 1049 653 1017.5 638.5 c 128,-1,5
 986 624 986 624 914 624 c 256,6,7
 842 624 842 624 810.5 638.5 c 128,-1,8
 779 653 779 653 779 687 c 2,9,-1
 779 871 l 2,10,11
 779 905 779 905 810.5 919.5 c 128,-1,12
 842 934 842 934 914 934 c 256,13,0
 986 934 986 934 1017.5 919.5 c 128,-1,1
1060 284.5 m 128,-1,15
 1069 275 1069 275 1069 260 c 0,16,17
 1069 246 1069 246 1062 231 c 2,18,-1
 850 -253 l 2,19,20
 832 -294 832 -294 764 -294 c 0,21,22
 692 -294 692 -294 692 -244 c 0,23,24
 692 -240 692 -240 694 -228 c 2,25,-1
 788 254 l 2,26,27
 792 273 792 273 805.5 283.5 c 128,-1,28
 819 294 819 294 840 294 c 2,29,-1
 1034 294 l 2,30,14
 1051 294 1051 294 1060 284.5 c 128,-1,15
EndSplineSet
EndChar

StartChar: ellipsis.alt1
Encoding: 65542 -1 285
Width: 1228
Flags: W
LayerCount: 2
Fore
SplineSet
-432 231.5 m 128,-1,1
 -409 270 -409 270 -370.5 293 c 128,-1,2
 -332 316 -332 316 -286 316 c 256,3,4
 -240 316 -240 316 -201.5 293 c 128,-1,5
 -163 270 -163 270 -140 231.5 c 128,-1,6
 -117 193 -117 193 -117 147 c 256,7,8
 -117 101 -117 101 -140 62.5 c 128,-1,9
 -163 24 -163 24 -201.5 1 c 128,-1,10
 -240 -22 -240 -22 -286 -22 c 256,11,12
 -332 -22 -332 -22 -370.5 1 c 128,-1,13
 -409 24 -409 24 -432 62.5 c 128,-1,14
 -455 101 -455 101 -455 147 c 256,15,0
 -455 193 -455 193 -432 231.5 c 128,-1,1
468 231.5 m 128,-1,17
 491 270 491 270 529.5 293 c 128,-1,18
 568 316 568 316 614 316 c 256,19,20
 660 316 660 316 698.5 293 c 128,-1,21
 737 270 737 270 760 231.5 c 128,-1,22
 783 193 783 193 783 147 c 256,23,24
 783 101 783 101 760 62.5 c 128,-1,25
 737 24 737 24 698.5 1 c 128,-1,26
 660 -22 660 -22 614 -22 c 256,27,28
 568 -22 568 -22 529.5 1 c 128,-1,29
 491 24 491 24 468 62.5 c 128,-1,30
 445 101 445 101 445 147 c 256,31,16
 445 193 445 193 468 231.5 c 128,-1,17
1368 231.5 m 128,-1,33
 1391 270 1391 270 1429.5 293 c 128,-1,34
 1468 316 1468 316 1514 316 c 256,35,36
 1560 316 1560 316 1598.5 293 c 128,-1,37
 1637 270 1637 270 1660 231.5 c 128,-1,38
 1683 193 1683 193 1683 147 c 256,39,40
 1683 101 1683 101 1660 62.5 c 128,-1,41
 1637 24 1637 24 1598.5 1 c 128,-1,42
 1560 -22 1560 -22 1514 -22 c 256,43,44
 1468 -22 1468 -22 1429.5 1 c 128,-1,45
 1391 24 1391 24 1368 62.5 c 128,-1,46
 1345 101 1345 101 1345 147 c 256,47,32
 1345 193 1345 193 1368 231.5 c 128,-1,33
EndSplineSet
EndChar

StartChar: ellipsis.alt2
Encoding: 65543 -1 286
Width: 3684
Flags: W
LayerCount: 2
Fore
SplineSet
796 231.5 m 128,-1,1
 819 270 819 270 857.5 293 c 128,-1,2
 896 316 896 316 942 316 c 256,3,4
 988 316 988 316 1026.5 293 c 128,-1,5
 1065 270 1065 270 1088 231.5 c 128,-1,6
 1111 193 1111 193 1111 147 c 256,7,8
 1111 101 1111 101 1088 62.5 c 128,-1,9
 1065 24 1065 24 1026.5 1 c 128,-1,10
 988 -22 988 -22 942 -22 c 256,11,12
 896 -22 896 -22 857.5 1 c 128,-1,13
 819 24 819 24 796 62.5 c 128,-1,14
 773 101 773 101 773 147 c 256,15,0
 773 193 773 193 796 231.5 c 128,-1,1
1696 231.5 m 128,-1,17
 1719 270 1719 270 1757.5 293 c 128,-1,18
 1796 316 1796 316 1842 316 c 256,19,20
 1888 316 1888 316 1926.5 293 c 128,-1,21
 1965 270 1965 270 1988 231.5 c 128,-1,22
 2011 193 2011 193 2011 147 c 256,23,24
 2011 101 2011 101 1988 62.5 c 128,-1,25
 1965 24 1965 24 1926.5 1 c 128,-1,26
 1888 -22 1888 -22 1842 -22 c 256,27,28
 1796 -22 1796 -22 1757.5 1 c 128,-1,29
 1719 24 1719 24 1696 62.5 c 128,-1,30
 1673 101 1673 101 1673 147 c 256,31,16
 1673 193 1673 193 1696 231.5 c 128,-1,17
2596 231.5 m 128,-1,33
 2619 270 2619 270 2657.5 293 c 128,-1,34
 2696 316 2696 316 2742 316 c 256,35,36
 2788 316 2788 316 2826.5 293 c 128,-1,37
 2865 270 2865 270 2888 231.5 c 128,-1,38
 2911 193 2911 193 2911 147 c 256,39,40
 2911 101 2911 101 2888 62.5 c 128,-1,41
 2865 24 2865 24 2826.5 1 c 128,-1,42
 2788 -22 2788 -22 2742 -22 c 256,43,44
 2696 -22 2696 -22 2657.5 1 c 128,-1,45
 2619 24 2619 24 2596 62.5 c 128,-1,46
 2573 101 2573 101 2573 147 c 256,47,32
 2573 193 2573 193 2596 231.5 c 128,-1,33
EndSplineSet
EndChar

StartChar: ellipsis.alt3
Encoding: 65544 -1 287
Width: 1228
Flags: W
LayerCount: 2
Fore
SplineSet
479.5 226 m 128,-1,1
 510 208 510 208 528 177.5 c 128,-1,2
 546 147 546 147 546 111 c 256,3,4
 546 75 546 75 528 44.5 c 128,-1,5
 510 14 510 14 479.5 -4 c 128,-1,6
 449 -22 449 -22 413 -22 c 256,7,8
 377 -22 377 -22 346.5 -4 c 128,-1,9
 316 14 316 14 298 44.5 c 128,-1,10
 280 75 280 75 280 111 c 256,11,12
 280 147 280 147 298 177.5 c 128,-1,13
 316 208 316 208 346.5 226 c 128,-1,14
 377 244 377 244 413 244 c 256,15,0
 449 244 449 244 479.5 226 c 128,-1,1
1020.5 226 m 128,-1,17
 1051 208 1051 208 1069 177.5 c 128,-1,18
 1087 147 1087 147 1087 111 c 256,19,20
 1087 75 1087 75 1069 44.5 c 128,-1,21
 1051 14 1051 14 1020.5 -4 c 128,-1,22
 990 -22 990 -22 954 -22 c 256,23,24
 918 -22 918 -22 887.5 -4 c 128,-1,25
 857 14 857 14 839 44.5 c 128,-1,26
 821 75 821 75 821 111 c 256,27,28
 821 147 821 147 839 177.5 c 128,-1,29
 857 208 857 208 887.5 226 c 128,-1,30
 918 244 918 244 954 244 c 256,31,16
 990 244 990 244 1020.5 226 c 128,-1,17
1561.5 226 m 128,-1,33
 1592 208 1592 208 1610 177.5 c 128,-1,34
 1628 147 1628 147 1628 111 c 256,35,36
 1628 75 1628 75 1610 44.5 c 128,-1,37
 1592 14 1592 14 1561.5 -4 c 128,-1,38
 1531 -22 1531 -22 1495 -22 c 256,39,40
 1459 -22 1459 -22 1428.5 -4 c 128,-1,41
 1398 14 1398 14 1380 44.5 c 128,-1,42
 1362 75 1362 75 1362 111 c 256,43,44
 1362 147 1362 147 1380 177.5 c 128,-1,45
 1398 208 1398 208 1428.5 226 c 128,-1,46
 1459 244 1459 244 1495 244 c 256,47,32
 1531 244 1531 244 1561.5 226 c 128,-1,33
EndSplineSet
EndChar

StartChar: ellipsis.alt4
Encoding: 65545 -1 288
Width: 1228
Flags: W
LayerCount: 2
Fore
SplineSet
-280.5 226 m 128,-1,1
 -250 208 -250 208 -232 177.5 c 128,-1,2
 -214 147 -214 147 -214 111 c 256,3,4
 -214 75 -214 75 -232 44.5 c 128,-1,5
 -250 14 -250 14 -280.5 -4 c 128,-1,6
 -311 -22 -311 -22 -347 -22 c 256,7,8
 -383 -22 -383 -22 -413.5 -4 c 128,-1,9
 -444 14 -444 14 -462 44.5 c 128,-1,10
 -480 75 -480 75 -480 111 c 256,11,12
 -480 147 -480 147 -462 177.5 c 128,-1,13
 -444 208 -444 208 -413.5 226 c 128,-1,14
 -383 244 -383 244 -347 244 c 256,15,0
 -311 244 -311 244 -280.5 226 c 128,-1,1
400.5 226 m 128,-1,17
 431 208 431 208 449 177.5 c 128,-1,18
 467 147 467 147 467 111 c 256,19,20
 467 75 467 75 449 44.5 c 128,-1,21
 431 14 431 14 400.5 -4 c 128,-1,22
 370 -22 370 -22 334 -22 c 256,23,24
 298 -22 298 -22 267.5 -4 c 128,-1,25
 237 14 237 14 219 44.5 c 128,-1,26
 201 75 201 75 201 111 c 256,27,28
 201 147 201 147 219 177.5 c 128,-1,29
 237 208 237 208 267.5 226 c 128,-1,30
 298 244 298 244 334 244 c 256,31,16
 370 244 370 244 400.5 226 c 128,-1,17
1081.5 226 m 128,-1,33
 1112 208 1112 208 1130 177.5 c 128,-1,34
 1148 147 1148 147 1148 111 c 256,35,36
 1148 75 1148 75 1130 44.5 c 128,-1,37
 1112 14 1112 14 1081.5 -4 c 128,-1,38
 1051 -22 1051 -22 1015 -22 c 256,39,40
 979 -22 979 -22 948.5 -4 c 128,-1,41
 918 14 918 14 900 44.5 c 128,-1,42
 882 75 882 75 882 111 c 256,43,44
 882 147 882 147 900 177.5 c 128,-1,45
 918 208 918 208 948.5 226 c 128,-1,46
 979 244 979 244 1015 244 c 256,47,32
 1051 244 1051 244 1081.5 226 c 128,-1,33
EndSplineSet
EndChar

StartChar: ellipsis.alt5
Encoding: 65546 -1 289
Width: 3684
Flags: W
LayerCount: 2
Fore
SplineSet
796 231.5 m 128,-1,1
 819 270 819 270 857.5 293 c 128,-1,2
 896 316 896 316 942 316 c 256,3,4
 988 316 988 316 1026.5 293 c 128,-1,5
 1065 270 1065 270 1088 231.5 c 128,-1,6
 1111 193 1111 193 1111 147 c 256,7,8
 1111 101 1111 101 1088 62.5 c 128,-1,9
 1065 24 1065 24 1026.5 1 c 128,-1,10
 988 -22 988 -22 942 -22 c 256,11,12
 896 -22 896 -22 857.5 1 c 128,-1,13
 819 24 819 24 796 62.5 c 128,-1,14
 773 101 773 101 773 147 c 256,15,0
 773 193 773 193 796 231.5 c 128,-1,1
1846 231.5 m 128,-1,17
 1869 270 1869 270 1907.5 293 c 128,-1,18
 1946 316 1946 316 1992 316 c 256,19,20
 2038 316 2038 316 2076.5 293 c 128,-1,21
 2115 270 2115 270 2138 231.5 c 128,-1,22
 2161 193 2161 193 2161 147 c 256,23,24
 2161 101 2161 101 2138 62.5 c 128,-1,25
 2115 24 2115 24 2076.5 1 c 128,-1,26
 2038 -22 2038 -22 1992 -22 c 256,27,28
 1946 -22 1946 -22 1907.5 1 c 128,-1,29
 1869 24 1869 24 1846 62.5 c 128,-1,30
 1823 101 1823 101 1823 147 c 256,31,16
 1823 193 1823 193 1846 231.5 c 128,-1,17
2896 231.5 m 128,-1,33
 2919 270 2919 270 2957.5 293 c 128,-1,34
 2996 316 2996 316 3042 316 c 256,35,36
 3088 316 3088 316 3126.5 293 c 128,-1,37
 3165 270 3165 270 3188 231.5 c 128,-1,38
 3211 193 3211 193 3211 147 c 256,39,40
 3211 101 3211 101 3188 62.5 c 128,-1,41
 3165 24 3165 24 3126.5 1 c 128,-1,42
 3088 -22 3088 -22 3042 -22 c 256,43,44
 2996 -22 2996 -22 2957.5 1 c 128,-1,45
 2919 24 2919 24 2896 62.5 c 128,-1,46
 2873 101 2873 101 2873 147 c 256,47,32
 2873 193 2873 193 2896 231.5 c 128,-1,33
EndSplineSet
EndChar

StartChar: asterisk
Encoding: 42 42 290
Width: 1228
Flags: W
LayerCount: 2
Fore
SplineSet
1122 726 m 0,1,2
 1122 695 1122 695 1103 675 c 128,-1,3
 1084 655 1084 655 1050 647 c 2,4,-1
 697 575 l 1,5,-1
 948 298 l 2,6,7
 975 270 975 270 975 239 c 0,8,9
 975 200 975 200 930 167 c 0,10,11
 899 145 899 145 870 145 c 0,12,13
 848 145 848 145 829.5 158 c 128,-1,14
 811 171 811 171 797 194 c 2,15,-1
 614 514 l 1,16,-1
 431 194 l 2,17,18
 401 145 401 145 358 145 c 0,19,20
 329 145 329 145 298 167 c 0,21,22
 252 200 252 200 252 239 c 0,23,24
 252 270 252 270 279 298 c 2,25,-1
 530 575 l 1,26,-1
 177 647 l 2,27,28
 143 655 143 655 124.5 675 c 128,-1,29
 106 695 106 695 106 725 c 0,30,31
 106 744 106 744 113 765 c 0,32,33
 123 799 123 799 143 816.5 c 128,-1,34
 163 834 163 834 190 834 c 0,35,36
 212 834 212 834 233 824 c 2,37,-1
 562 674 l 1,38,-1
 521 1030 l 2,39,40
 520 1035 520 1035 520 1045 c 0,41,42
 520 1083 520 1083 544.5 1105 c 128,-1,43
 569 1127 569 1127 614 1127 c 0,44,45
 660 1127 660 1127 684 1105 c 128,-1,46
 708 1083 708 1083 708 1044 c 2,47,-1
 707 1030 l 1,48,-1
 665 674 l 1,49,-1
 995 824 l 2,50,51
 1016 834 1016 834 1038 834 c 0,52,53
 1064 834 1064 834 1084 816.5 c 128,-1,54
 1104 799 1104 799 1115 765 c 0,55,0
 1122 741 1122 741 1122 726 c 0,1,2
EndSplineSet
EndChar

StartChar: backslash
Encoding: 92 92 291
Width: 1228
Flags: W
LayerCount: 2
Fore
SplineSet
330.5 1384 m 128,-1,1
 348 1374 348 1374 355 1358 c 2,2,-1
 1027 -285 l 2,3,4
 1030 -294 1030 -294 1030 -302 c 0,5,6
 1030 -325 1030 -325 1004 -340 c 128,-1,7
 978 -355 978 -355 938 -355 c 0,8,9
 915 -355 915 -355 897.5 -345 c 128,-1,10
 880 -335 880 -335 873 -319 c 2,11,-1
 201 1324 l 2,12,13
 198 1333 198 1333 198 1341 c 0,14,15
 198 1364 198 1364 224 1379 c 128,-1,16
 250 1394 250 1394 290 1394 c 0,17,0
 313 1394 313 1394 330.5 1384 c 128,-1,1
EndSplineSet
EndChar

StartChar: bullet
Encoding: 8226 8226 293
Width: 1228
Flags: W
LayerCount: 2
Fore
SplineSet
791.5 830 m 128,-1,1
 846 807 846 807 846 755 c 2,2,-1
 846 453 l 2,3,4
 846 401 846 401 791.5 378 c 128,-1,5
 737 355 737 355 614 355 c 256,6,7
 491 355 491 355 436.5 378 c 128,-1,8
 382 401 382 401 382 453 c 2,9,-1
 382 755 l 2,10,11
 382 807 382 807 436.5 830 c 128,-1,12
 491 853 491 853 614 853 c 256,13,0
 737 853 737 853 791.5 830 c 128,-1,1
EndSplineSet
EndChar

StartChar: colon
Encoding: 58 58 294
Width: 1228
Flags: W
LayerCount: 2
Fore
SplineSet
717.5 919.5 m 128,-1,1
 749 905 749 905 749 871 c 2,2,-1
 749 687 l 2,3,4
 749 653 749 653 717.5 638.5 c 128,-1,5
 686 624 686 624 614 624 c 256,6,7
 542 624 542 624 510.5 638.5 c 128,-1,8
 479 653 479 653 479 687 c 2,9,-1
 479 871 l 2,10,11
 479 905 479 905 510.5 919.5 c 128,-1,12
 542 934 542 934 614 934 c 256,13,0
 686 934 686 934 717.5 919.5 c 128,-1,1
717.5 285.5 m 128,-1,15
 749 271 749 271 749 237 c 2,16,-1
 749 53 l 2,17,18
 749 19 749 19 717.5 4.5 c 128,-1,19
 686 -10 686 -10 614 -10 c 256,20,21
 542 -10 542 -10 510.5 4.5 c 128,-1,22
 479 19 479 19 479 53 c 2,23,-1
 479 237 l 2,24,25
 479 271 479 271 510.5 285.5 c 128,-1,26
 542 300 542 300 614 300 c 256,27,14
 686 300 686 300 717.5 285.5 c 128,-1,15
EndSplineSet
EndChar

StartChar: comma
Encoding: 44 44 295
Width: 1228
Flags: W
LayerCount: 2
Fore
SplineSet
740 284.5 m 128,-1,1
 749 275 749 275 749 260 c 0,2,3
 749 246 749 246 742 231 c 2,4,-1
 530 -253 l 2,5,6
 512 -294 512 -294 444 -294 c 0,7,8
 372 -294 372 -294 372 -244 c 0,9,10
 372 -240 372 -240 374 -228 c 2,11,-1
 468 254 l 2,12,13
 472 273 472 273 485.5 283.5 c 128,-1,14
 499 294 499 294 520 294 c 2,15,-1
 714 294 l 2,16,0
 731 294 731 294 740 284.5 c 128,-1,1
EndSplineSet
EndChar

StartChar: ellipsis
Encoding: 8230 8230 296
Width: 1228
Flags: W
LayerCount: 2
Fore
SplineSet
294.5 217.5 m 128,-1,1
 319 205 319 205 319 177 c 2,2,-1
 319 43 l 2,3,4
 319 15 319 15 294.5 2.5 c 128,-1,5
 270 -10 270 -10 214 -10 c 256,6,7
 158 -10 158 -10 133.5 2.5 c 128,-1,8
 109 15 109 15 109 43 c 2,9,-1
 109 177 l 2,10,11
 109 205 109 205 133.5 217.5 c 128,-1,12
 158 230 158 230 214 230 c 256,13,0
 270 230 270 230 294.5 217.5 c 128,-1,1
694.5 217.5 m 128,-1,15
 719 205 719 205 719 177 c 2,16,-1
 719 43 l 2,17,18
 719 15 719 15 694.5 2.5 c 128,-1,19
 670 -10 670 -10 614 -10 c 256,20,21
 558 -10 558 -10 533.5 2.5 c 128,-1,22
 509 15 509 15 509 43 c 2,23,-1
 509 177 l 2,24,25
 509 205 509 205 533.5 217.5 c 128,-1,26
 558 230 558 230 614 230 c 256,27,14
 670 230 670 230 694.5 217.5 c 128,-1,15
1094.5 217.5 m 128,-1,29
 1119 205 1119 205 1119 177 c 2,30,-1
 1119 43 l 2,31,32
 1119 15 1119 15 1094.5 2.5 c 128,-1,33
 1070 -10 1070 -10 1014 -10 c 256,34,35
 958 -10 958 -10 933.5 2.5 c 128,-1,36
 909 15 909 15 909 43 c 2,37,-1
 909 177 l 2,38,39
 909 205 909 205 933.5 217.5 c 128,-1,40
 958 230 958 230 1014 230 c 256,41,28
 1070 230 1070 230 1094.5 217.5 c 128,-1,29
EndSplineSet
EndChar

StartChar: exclam
Encoding: 33 33 297
Width: 1228
Flags: W
LayerCount: 2
Fore
SplineSet
712 1257 m 128,-1,1
 722 1245 722 1245 720 1219 c 2,2,-1
 671 512 l 2,3,4
 669 489 669 489 654.5 476.5 c 128,-1,5
 640 464 640 464 614 464 c 256,6,7
 588 464 588 464 572.5 476.5 c 128,-1,8
 557 489 557 489 556 512 c 2,9,-1
 508 1219 l 2,10,11
 506 1245 506 1245 516 1257 c 128,-1,12
 526 1269 526 1269 549 1269 c 2,13,-1
 679 1269 l 2,14,0
 702 1269 702 1269 712 1257 c 128,-1,1
709.5 255.5 m 128,-1,16
 739 241 739 241 739 207 c 2,17,-1
 739 53 l 2,18,19
 739 19 739 19 709.5 4.5 c 128,-1,20
 680 -10 680 -10 614 -10 c 256,21,22
 548 -10 548 -10 518.5 4.5 c 128,-1,23
 489 19 489 19 489 53 c 2,24,-1
 489 207 l 2,25,26
 489 241 489 241 518.5 255.5 c 128,-1,27
 548 270 548 270 614 270 c 256,28,15
 680 270 680 270 709.5 255.5 c 128,-1,16
EndSplineSet
EndChar

StartChar: exclamdown
Encoding: 161 161 298
Width: 1228
Flags: W
LayerCount: 2
Fore
SplineSet
518.5 668.5 m 128,-1,1
 489 683 489 683 489 717 c 2,2,-1
 489 871 l 2,3,4
 489 905 489 905 518.5 919.5 c 128,-1,5
 548 934 548 934 614 934 c 256,6,7
 680 934 680 934 709.5 919.5 c 128,-1,8
 739 905 739 905 739 871 c 2,9,-1
 739 717 l 2,10,11
 739 683 739 683 709.5 668.5 c 128,-1,12
 680 654 680 654 614 654 c 256,13,0
 548 654 548 654 518.5 668.5 c 128,-1,1
516 -333 m 128,-1,15
 506 -321 506 -321 508 -295 c 2,16,-1
 557 412 l 2,17,18
 559 435 559 435 573.5 447.5 c 128,-1,19
 588 460 588 460 614 460 c 256,20,21
 640 460 640 460 655.5 447.5 c 128,-1,22
 671 435 671 435 672 412 c 2,23,-1
 720 -295 l 2,24,25
 722 -321 722 -321 712 -333 c 128,-1,26
 702 -345 702 -345 679 -345 c 2,27,-1
 549 -345 l 2,28,14
 526 -345 526 -345 516 -333 c 128,-1,15
EndSplineSet
EndChar

StartChar: numbersign
Encoding: 35 35 299
Width: 1228
Flags: W
LayerCount: 2
Fore
SplineSet
1153.5 848.5 m 128,-1,1
 1168 832 1168 832 1168 793 c 256,2,3
 1168 754 1168 754 1153.5 737.5 c 128,-1,4
 1139 721 1139 721 1105 721 c 2,5,-1
 911 721 l 1,6,-1
 847 476 l 1,7,-1
 1035 476 l 2,8,9
 1069 476 1069 476 1083.5 459.5 c 128,-1,10
 1098 443 1098 443 1098 404 c 256,11,12
 1098 365 1098 365 1083.5 348.5 c 128,-1,13
 1069 332 1069 332 1035 332 c 2,14,-1
 809 332 l 1,15,-1
 726 11 l 2,16,17
 722 -5 722 -5 706.5 -13.5 c 128,-1,18
 691 -22 691 -22 672 -22 c 0,19,20
 644 -22 644 -22 622 -7 c 128,-1,21
 600 8 600 8 600 32 c 0,22,23
 600 35 600 35 602 45 c 2,24,-1
 677 332 l 1,25,-1
 415 332 l 1,26,-1
 332 11 l 2,27,28
 328 -5 328 -5 312.5 -13.5 c 128,-1,29
 297 -22 297 -22 278 -22 c 0,30,31
 250 -22 250 -22 228 -7 c 128,-1,32
 206 8 206 8 206 32 c 0,33,34
 206 35 206 35 208 45 c 2,35,-1
 283 332 l 1,36,-1
 123 332 l 2,37,38
 89 332 89 332 74.5 348.5 c 128,-1,39
 60 365 60 365 60 404 c 256,40,41
 60 443 60 443 74.5 459.5 c 128,-1,42
 89 476 89 476 123 476 c 2,43,-1
 320 476 l 1,44,-1
 384 721 l 1,45,-1
 193 721 l 2,46,47
 159 721 159 721 144.5 737.5 c 128,-1,48
 130 754 130 754 130 793 c 256,49,50
 130 832 130 832 144.5 848.5 c 128,-1,51
 159 865 159 865 193 865 c 2,52,-1
 421 865 l 1,53,-1
 502 1176 l 2,54,55
 506 1192 506 1192 521.5 1200.5 c 128,-1,56
 537 1209 537 1209 556 1209 c 0,57,58
 584 1209 584 1209 606 1194 c 128,-1,59
 628 1179 628 1179 628 1155 c 0,60,61
 628 1152 628 1152 626 1142 c 2,62,-1
 554 865 l 1,63,-1
 815 865 l 1,64,-1
 896 1176 l 2,65,66
 900 1192 900 1192 915.5 1200.5 c 128,-1,67
 931 1209 931 1209 950 1209 c 0,68,69
 978 1209 978 1209 1000 1194 c 128,-1,70
 1022 1179 1022 1179 1022 1155 c 0,71,72
 1022 1152 1022 1152 1020 1142 c 2,73,-1
 948 865 l 1,74,-1
 1105 865 l 2,75,0
 1139 865 1139 865 1153.5 848.5 c 128,-1,1
778 721 m 1,76,-1
 517 721 l 1,77,-1
 453 476 l 1,78,-1
 714 476 l 1,79,-1
 778 721 l 1,76,-1
EndSplineSet
EndChar

StartChar: period
Encoding: 46 46 300
Width: 1228
Flags: W
LayerCount: 2
Fore
SplineSet
717.5 285.5 m 128,-1,1
 749 271 749 271 749 237 c 2,2,-1
 749 53 l 2,3,4
 749 19 749 19 717.5 4.5 c 128,-1,5
 686 -10 686 -10 614 -10 c 256,6,7
 542 -10 542 -10 510.5 4.5 c 128,-1,8
 479 19 479 19 479 53 c 2,9,-1
 479 237 l 2,10,11
 479 271 479 271 510.5 285.5 c 128,-1,12
 542 300 542 300 614 300 c 256,13,0
 686 300 686 300 717.5 285.5 c 128,-1,1
EndSplineSet
EndChar

StartChar: question
Encoding: 63 63 301
Width: 1228
Flags: W
LayerCount: 2
Fore
SplineSet
804.5 1229.5 m 128,-1,1
 883 1190 883 1190 924.5 1119.5 c 128,-1,2
 966 1049 966 1049 966 956 c 0,3,4
 966 870 966 870 931.5 808.5 c 128,-1,5
 897 747 897 747 829.5 701.5 c 128,-1,6
 762 656 762 656 653 611 c 1,7,-1
 643 440 l 2,8,9
 641 416 641 416 623 402.5 c 128,-1,10
 605 389 605 389 574 389 c 256,11,12
 543 389 543 389 525 402.5 c 128,-1,13
 507 416 507 416 505 440 c 2,14,-1
 495 665 l 2,15,16
 494 685 494 685 501 697 c 128,-1,17
 508 709 508 709 525 716 c 2,18,-1
 594 744 l 2,19,20
 674 777 674 777 720.5 806 c 128,-1,21
 767 835 767 835 789.5 871 c 128,-1,22
 812 907 812 907 812 956 c 0,23,24
 812 1031 812 1031 761.5 1076 c 128,-1,25
 711 1121 711 1121 619 1121 c 0,26,27
 486 1121 486 1121 358 1054 c 0,28,29
 343 1045 343 1045 327 1045 c 0,30,31
 294 1045 294 1045 274 1091 c 0,32,33
 262 1118 262 1118 262 1137 c 0,34,35
 262 1170 262 1170 300 1191 c 0,36,37
 444 1269 444 1269 618 1269 c 0,38,0
 726 1269 726 1269 804.5 1229.5 c 128,-1,1
662 215.5 m 128,-1,40
 689 201 689 201 689 167 c 2,41,-1
 689 53 l 2,42,43
 689 19 689 19 662 4.5 c 128,-1,44
 635 -10 635 -10 574 -10 c 256,45,46
 513 -10 513 -10 486 4.5 c 128,-1,47
 459 19 459 19 459 53 c 2,48,-1
 459 167 l 2,49,50
 459 201 459 201 486 215.5 c 128,-1,51
 513 230 513 230 574 230 c 256,52,39
 635 230 635 230 662 215.5 c 128,-1,40
EndSplineSet
EndChar

StartChar: questiondown
Encoding: 191 191 302
Width: 1228
Flags: W
LayerCount: 2
Fore
SplineSet
566 708.5 m 128,-1,1
 539 723 539 723 539 757 c 2,2,-1
 539 871 l 2,3,4
 539 905 539 905 566 919.5 c 128,-1,5
 593 934 593 934 654 934 c 256,6,7
 715 934 715 934 742 919.5 c 128,-1,8
 769 905 769 905 769 871 c 2,9,-1
 769 757 l 2,10,11
 769 723 769 723 742 708.5 c 128,-1,12
 715 694 715 694 654 694 c 256,13,0
 593 694 593 694 566 708.5 c 128,-1,1
423.5 -305.5 m 128,-1,15
 345 -266 345 -266 303.5 -195.5 c 128,-1,16
 262 -125 262 -125 262 -32 c 0,17,18
 262 54 262 54 296.5 115.5 c 128,-1,19
 331 177 331 177 398.5 222.5 c 128,-1,20
 466 268 466 268 575 313 c 1,21,-1
 585 484 l 2,22,23
 587 508 587 508 605 521.5 c 128,-1,24
 623 535 623 535 654 535 c 256,25,26
 685 535 685 535 703 521.5 c 128,-1,27
 721 508 721 508 723 484 c 2,28,-1
 733 259 l 2,29,30
 734 239 734 239 727 227 c 128,-1,31
 720 215 720 215 703 208 c 2,32,-1
 634 180 l 2,33,34
 554 147 554 147 507.5 118 c 128,-1,35
 461 89 461 89 438.5 53 c 128,-1,36
 416 17 416 17 416 -32 c 0,37,38
 416 -107 416 -107 466.5 -152 c 128,-1,39
 517 -197 517 -197 609 -197 c 0,40,41
 742 -197 742 -197 870 -130 c 0,42,43
 885 -121 885 -121 901 -121 c 0,44,45
 934 -121 934 -121 954 -167 c 0,46,47
 966 -194 966 -194 966 -213 c 0,48,49
 966 -246 966 -246 928 -267 c 0,50,51
 784 -345 784 -345 610 -345 c 0,52,14
 502 -345 502 -345 423.5 -305.5 c 128,-1,15
EndSplineSet
EndChar

StartChar: quotesingle
Encoding: 39 39 304
Width: 1228
Flags: W
LayerCount: 2
Fore
SplineSet
738 1230 m 2,1,-1
 737 1219 l 1,2,-1
 682 769 l 2,3,4
 679 743 679 743 661.5 729 c 128,-1,5
 644 715 644 715 614 715 c 0,6,7
 585 715 585 715 567 729 c 128,-1,8
 549 743 549 743 546 769 c 2,9,-1
 491 1219 l 2,10,11
 485 1269 485 1269 532 1269 c 2,12,-1
 696 1269 l 2,13,0
 738 1269 738 1269 738 1230 c 2,1,-1
EndSplineSet
EndChar

StartChar: semicolon
Encoding: 59 59 305
Width: 1228
Flags: W
LayerCount: 2
Fore
SplineSet
717.5 919.5 m 128,-1,1
 749 905 749 905 749 871 c 2,2,-1
 749 687 l 2,3,4
 749 653 749 653 717.5 638.5 c 128,-1,5
 686 624 686 624 614 624 c 256,6,7
 542 624 542 624 510.5 638.5 c 128,-1,8
 479 653 479 653 479 687 c 2,9,-1
 479 871 l 2,10,11
 479 905 479 905 510.5 919.5 c 128,-1,12
 542 934 542 934 614 934 c 256,13,0
 686 934 686 934 717.5 919.5 c 128,-1,1
760 284.5 m 128,-1,15
 769 275 769 275 769 260 c 0,16,17
 769 246 769 246 762 231 c 2,18,-1
 550 -253 l 2,19,20
 532 -294 532 -294 464 -294 c 0,21,22
 392 -294 392 -294 392 -244 c 0,23,24
 392 -240 392 -240 394 -228 c 2,25,-1
 488 254 l 2,26,27
 492 273 492 273 505.5 283.5 c 128,-1,28
 519 294 519 294 540 294 c 2,29,-1
 734 294 l 2,30,14
 751 294 751 294 760 284.5 c 128,-1,15
EndSplineSet
EndChar

StartChar: slash
Encoding: 47 47 306
Width: 1228
Flags: W
LayerCount: 2
Fore
SplineSet
1004 1379 m 128,-1,1
 1030 1364 1030 1364 1030 1341 c 0,2,3
 1030 1333 1030 1333 1027 1324 c 2,4,-1
 355 -319 l 2,5,6
 348 -335 348 -335 330.5 -345 c 128,-1,7
 313 -355 313 -355 290 -355 c 0,8,9
 250 -355 250 -355 224 -340 c 128,-1,10
 198 -325 198 -325 198 -302 c 0,11,12
 198 -294 198 -294 201 -285 c 2,13,-1
 873 1358 l 2,14,15
 880 1374 880 1374 897.5 1384 c 128,-1,16
 915 1394 915 1394 938 1394 c 0,17,0
 978 1394 978 1394 1004 1379 c 128,-1,1
EndSplineSet
EndChar

StartChar: underscore
Encoding: 95 95 307
Width: 1228
Flags: W
LayerCount: 2
Fore
SplineSet
1143.5 -265.5 m 128,-1,1
 1158 -282 1158 -282 1158 -321 c 256,2,3
 1158 -360 1158 -360 1143.5 -376.5 c 128,-1,4
 1129 -393 1129 -393 1095 -393 c 2,5,-1
 133 -393 l 2,6,7
 99 -393 99 -393 84.5 -376.5 c 128,-1,8
 70 -360 70 -360 70 -321 c 256,9,10
 70 -282 70 -282 84.5 -265.5 c 128,-1,11
 99 -249 99 -249 133 -249 c 2,12,-1
 1095 -249 l 2,13,0
 1129 -249 1129 -249 1143.5 -265.5 c 128,-1,1
EndSplineSet
EndChar

StartChar: braceleft
Encoding: 123 123 308
Width: 1228
Flags: W
LayerCount: 2
Fore
SplineSet
975.5 1355.5 m 128,-1,1
 990 1339 990 1339 990 1300 c 256,2,3
 990 1261 990 1261 975.5 1244.5 c 128,-1,4
 961 1228 961 1228 927 1228 c 0,5,6
 827 1228 827 1228 767 1202 c 128,-1,7
 707 1176 707 1176 680.5 1121 c 128,-1,8
 654 1066 654 1066 654 976 c 2,9,-1
 655 947 l 1,10,-1
 658 875 l 2,11,12
 663 755 663 755 607.5 676.5 c 128,-1,13
 552 598 552 598 425 546 c 1,14,-1
 425 536 l 1,15,16
 551 499 551 499 607.5 427.5 c 128,-1,17
 664 356 664 356 664 246 c 0,18,19
 664 224 664 224 663 213 c 2,20,-1
 655 92 l 2,21,22
 654 79 654 79 654 54 c 0,23,24
 654 -73 654 -73 719.5 -131 c 128,-1,25
 785 -189 785 -189 927 -189 c 0,26,27
 961 -189 961 -189 975.5 -205.5 c 128,-1,28
 990 -222 990 -222 990 -261 c 256,29,30
 990 -300 990 -300 975.5 -316.5 c 128,-1,31
 961 -333 961 -333 927 -333 c 0,32,33
 726 -333 726 -333 614.5 -243 c 128,-1,34
 503 -153 503 -153 503 27 c 0,35,36
 503 62 503 62 505 80 c 2,37,-1
 516 203 l 2,38,39
 518 231 518 231 518 243 c 0,40,41
 518 356 518 356 451 412.5 c 128,-1,42
 384 469 384 469 240 469 c 0,43,44
 206 469 206 469 191.5 485.5 c 128,-1,45
 177 502 177 502 177 541 c 256,46,47
 177 580 177 580 191.5 596.5 c 128,-1,48
 206 613 206 613 240 613 c 0,49,50
 379 613 379 613 445 676 c 128,-1,51
 511 739 511 739 511 855 c 0,52,53
 511 875 511 875 510 885 c 2,54,-1
 505 959 l 2,55,56
 503 989 503 989 503 1002 c 0,57,58
 503 1187 503 1187 613.5 1279.5 c 128,-1,59
 724 1372 724 1372 927 1372 c 0,60,0
 961 1372 961 1372 975.5 1355.5 c 128,-1,1
EndSplineSet
EndChar

StartChar: braceright
Encoding: 125 125 309
Width: 1228
Flags: W
LayerCount: 2
Fore
SplineSet
614.5 1279.5 m 128,-1,1
 725 1187 725 1187 725 1002 c 0,2,3
 725 989 725 989 723 959 c 2,4,-1
 718 885 l 2,5,6
 717 875 717 875 717 855 c 0,7,8
 717 739 717 739 783 676 c 128,-1,9
 849 613 849 613 988 613 c 0,10,11
 1022 613 1022 613 1036.5 596.5 c 128,-1,12
 1051 580 1051 580 1051 541 c 256,13,14
 1051 502 1051 502 1036.5 485.5 c 128,-1,15
 1022 469 1022 469 988 469 c 0,16,17
 844 469 844 469 777 412.5 c 128,-1,18
 710 356 710 356 710 243 c 0,19,20
 710 231 710 231 712 203 c 2,21,-1
 723 80 l 2,22,23
 725 62 725 62 725 27 c 0,24,25
 725 -153 725 -153 613.5 -243 c 128,-1,26
 502 -333 502 -333 301 -333 c 0,27,28
 267 -333 267 -333 252.5 -316.5 c 128,-1,29
 238 -300 238 -300 238 -261 c 256,30,31
 238 -222 238 -222 252.5 -205.5 c 128,-1,32
 267 -189 267 -189 301 -189 c 0,33,34
 443 -189 443 -189 508.5 -131 c 128,-1,35
 574 -73 574 -73 574 54 c 0,36,37
 574 79 574 79 573 92 c 2,38,-1
 565 213 l 2,39,40
 564 224 564 224 564 246 c 0,41,42
 564 356 564 356 620.5 427.5 c 128,-1,43
 677 499 677 499 803 536 c 1,44,-1
 803 546 l 1,45,46
 676 598 676 598 620.5 676.5 c 128,-1,47
 565 755 565 755 570 875 c 2,48,-1
 573 947 l 2,49,50
 577 1047 577 1047 552.5 1108.5 c 128,-1,51
 528 1170 528 1170 467.5 1199 c 128,-1,52
 407 1228 407 1228 301 1228 c 0,53,54
 267 1228 267 1228 252.5 1244.5 c 128,-1,55
 238 1261 238 1261 238 1300 c 256,56,57
 238 1339 238 1339 252.5 1355.5 c 128,-1,58
 267 1372 267 1372 301 1372 c 0,59,0
 504 1372 504 1372 614.5 1279.5 c 128,-1,1
EndSplineSet
EndChar

StartChar: bracketleft
Encoding: 91 91 310
Width: 1228
Flags: W
LayerCount: 2
Fore
SplineSet
855.5 -205.5 m 128,-1,1
 870 -222 870 -222 870 -261 c 256,2,3
 870 -300 870 -300 855.5 -316.5 c 128,-1,4
 841 -333 841 -333 807 -333 c 2,5,-1
 455 -333 l 1,6,-1
 393 -333 l 2,7,8
 359 -333 359 -333 344.5 -317.5 c 128,-1,9
 330 -302 330 -302 330 -265 c 2,10,-1
 330 1304 l 2,11,12
 330 1341 330 1341 344.5 1356.5 c 128,-1,13
 359 1372 359 1372 393 1372 c 2,14,-1
 480 1372 l 1,15,-1
 807 1372 l 2,16,17
 841 1372 841 1372 855.5 1355.5 c 128,-1,18
 870 1339 870 1339 870 1300 c 256,19,20
 870 1261 870 1261 855.5 1244.5 c 128,-1,21
 841 1228 841 1228 807 1228 c 2,22,-1
 480 1228 l 1,23,-1
 480 -189 l 1,24,-1
 807 -189 l 2,25,0
 841 -189 841 -189 855.5 -205.5 c 128,-1,1
EndSplineSet
EndChar

StartChar: bracketright
Encoding: 93 93 311
Width: 1228
Flags: W
LayerCount: 2
Fore
SplineSet
883.5 1356.5 m 128,-1,1
 898 1341 898 1341 898 1304 c 2,2,-1
 898 -265 l 2,3,4
 898 -302 898 -302 883.5 -317.5 c 128,-1,5
 869 -333 869 -333 835 -333 c 2,6,-1
 748 -333 l 1,7,-1
 421 -333 l 2,8,9
 387 -333 387 -333 372.5 -316.5 c 128,-1,10
 358 -300 358 -300 358 -261 c 256,11,12
 358 -222 358 -222 372.5 -205.5 c 128,-1,13
 387 -189 387 -189 421 -189 c 2,14,-1
 748 -189 l 1,15,-1
 748 1228 l 1,16,-1
 421 1228 l 2,17,18
 387 1228 387 1228 372.5 1244.5 c 128,-1,19
 358 1261 358 1261 358 1300 c 256,20,21
 358 1339 358 1339 372.5 1355.5 c 128,-1,22
 387 1372 387 1372 421 1372 c 2,23,-1
 773 1372 l 1,24,-1
 835 1372 l 2,25,0
 869 1372 869 1372 883.5 1356.5 c 128,-1,1
EndSplineSet
EndChar

StartChar: parenleft
Encoding: 40 40 312
Width: 1228
Flags: W
LayerCount: 2
Fore
SplineSet
792 1381 m 0,1,2
 808 1381 808 1381 822.5 1370 c 128,-1,3
 837 1359 837 1359 848 1341 c 0,4,5
 865 1312 865 1312 865 1287 c 0,6,7
 865 1267 865 1267 852 1258 c 0,8,9
 679 1144 679 1144 562 958 c 128,-1,10
 445 772 445 772 445 517 c 256,11,12
 445 262 445 262 561.5 78 c 128,-1,13
 678 -106 678 -106 852 -220 c 0,14,15
 865 -229 865 -229 865 -249 c 0,16,17
 865 -274 865 -274 848 -303 c 0,18,19
 837 -321 837 -321 822.5 -332 c 128,-1,20
 808 -343 808 -343 792 -343 c 0,21,22
 782 -343 782 -343 771 -337 c 0,23,24
 649 -264 649 -264 541.5 -142.5 c 128,-1,25
 434 -21 434 -21 365.5 148 c 128,-1,26
 297 317 297 317 297 517 c 256,27,28
 297 717 297 717 365.5 887 c 128,-1,29
 434 1057 434 1057 542 1179.5 c 128,-1,30
 650 1302 650 1302 771 1375 c 0,31,0
 782 1381 782 1381 792 1381 c 0,1,2
EndSplineSet
EndChar

StartChar: parenright
Encoding: 41 41 313
Width: 1228
Flags: W
LayerCount: 2
Fore
SplineSet
686 1179.5 m 128,-1,1
 794 1057 794 1057 862.5 887 c 128,-1,2
 931 717 931 717 931 517 c 256,3,4
 931 317 931 317 862.5 148 c 128,-1,5
 794 -21 794 -21 686.5 -142.5 c 128,-1,6
 579 -264 579 -264 457 -337 c 0,7,8
 446 -343 446 -343 436 -343 c 0,9,10
 420 -343 420 -343 405.5 -332 c 128,-1,11
 391 -321 391 -321 380 -303 c 0,12,13
 363 -274 363 -274 363 -249 c 0,14,15
 363 -229 363 -229 376 -220 c 0,16,17
 550 -106 550 -106 666.5 78 c 128,-1,18
 783 262 783 262 783 517 c 256,19,20
 783 772 783 772 666 958 c 128,-1,21
 549 1144 549 1144 376 1258 c 0,22,23
 363 1267 363 1267 363 1287 c 0,24,25
 363 1312 363 1312 380 1341 c 0,26,27
 391 1359 391 1359 405.5 1370 c 128,-1,28
 420 1381 420 1381 436 1381 c 0,29,30
 446 1381 446 1381 457 1375 c 0,31,0
 578 1302 578 1302 686 1179.5 c 128,-1,1
EndSplineSet
EndChar

StartChar: hyphen.alt
Encoding: 65547 -1 314
Width: 1228
Flags: W
LayerCount: 2
Fore
SplineSet
943.5 643 m 128,-1,1
 958 626 958 626 958 582 c 256,2,3
 958 538 958 538 943.5 521 c 128,-1,4
 929 504 929 504 895 504 c 2,5,-1
 333 504 l 2,6,7
 299 504 299 504 284.5 521 c 128,-1,8
 270 538 270 538 270 582 c 256,9,10
 270 626 270 626 284.5 643 c 128,-1,11
 299 660 299 660 333 660 c 2,12,-1
 895 660 l 2,13,0
 929 660 929 660 943.5 643 c 128,-1,1
EndSplineSet
EndChar

StartChar: emdash.alt1
Encoding: 65548 -1 315
Width: 1228
Flags: W
LayerCount: 2
Fore
SplineSet
1643.5 637.5 m 128,-1,1
 1658 621 1658 621 1658 582 c 256,2,3
 1658 543 1658 543 1643.5 526.5 c 128,-1,4
 1629 510 1629 510 1595 510 c 2,5,-1
 -367 510 l 2,6,7
 -401 510 -401 510 -415.5 526.5 c 128,-1,8
 -430 543 -430 543 -430 582 c 256,9,10
 -430 621 -430 621 -415.5 637.5 c 128,-1,11
 -401 654 -401 654 -367 654 c 2,12,-1
 1595 654 l 2,13,0
 1629 654 1629 654 1643.5 637.5 c 128,-1,1
EndSplineSet
EndChar

StartChar: emdash.alt2
Encoding: 65549 -1 316
Width: 2456
Flags: W
LayerCount: 2
Fore
SplineSet
2457.5 637.5 m 128,-1,1
 2472 621 2472 621 2472 582 c 256,2,3
 2472 543 2472 543 2457.5 526.5 c 128,-1,4
 2443 510 2443 510 2409 510 c 2,5,-1
 47 510 l 2,6,7
 13 510 13 510 -1.5 526.5 c 128,-1,8
 -16 543 -16 543 -16 582 c 256,9,10
 -16 621 -16 621 -1.5 637.5 c 128,-1,11
 13 654 13 654 47 654 c 2,12,-1
 2409 654 l 2,13,0
 2443 654 2443 654 2457.5 637.5 c 128,-1,1
EndSplineSet
EndChar

StartChar: emdash.alt3
Encoding: 65550 -1 317
Width: 2456
Flags: W
LayerCount: 2
Fore
SplineSet
2157.5 637.5 m 128,-1,1
 2172 621 2172 621 2172 582 c 256,2,3
 2172 543 2172 543 2157.5 526.5 c 128,-1,4
 2143 510 2143 510 2109 510 c 2,5,-1
 347 510 l 2,6,7
 313 510 313 510 298.5 526.5 c 128,-1,8
 284 543 284 543 284 582 c 256,9,10
 284 621 284 621 298.5 637.5 c 128,-1,11
 313 654 313 654 347 654 c 2,12,-1
 2109 654 l 2,13,0
 2143 654 2143 654 2157.5 637.5 c 128,-1,1
EndSplineSet
EndChar

StartChar: emdash.alt4
Encoding: 65551 -1 318
Width: 1228
Flags: W
LayerCount: 2
Fore
SplineSet
1443.5 637.5 m 128,-1,1
 1458 621 1458 621 1458 582 c 256,2,3
 1458 543 1458 543 1443.5 526.5 c 128,-1,4
 1429 510 1429 510 1395 510 c 2,5,-1
 -167 510 l 2,6,7
 -201 510 -201 510 -215.5 526.5 c 128,-1,8
 -230 543 -230 543 -230 582 c 256,9,10
 -230 621 -230 621 -215.5 637.5 c 128,-1,11
 -201 654 -201 654 -167 654 c 2,12,-1
 1395 654 l 2,13,0
 1429 654 1429 654 1443.5 637.5 c 128,-1,1
EndSplineSet
EndChar

StartChar: emdash
Encoding: 8212 8212 319
Width: 1228
Flags: W
LayerCount: 2
Fore
SplineSet
1243.5 637.5 m 128,-1,1
 1258 621 1258 621 1258 582 c 256,2,3
 1258 543 1258 543 1243.5 526.5 c 128,-1,4
 1229 510 1229 510 1195 510 c 2,5,-1
 33 510 l 2,6,7
 -1 510 -1 510 -15.5 526.5 c 128,-1,8
 -30 543 -30 543 -30 582 c 256,9,10
 -30 621 -30 621 -15.5 637.5 c 128,-1,11
 -1 654 -1 654 33 654 c 2,12,-1
 1195 654 l 2,13,0
 1229 654 1229 654 1243.5 637.5 c 128,-1,1
EndSplineSet
EndChar

StartChar: endash
Encoding: 8211 8211 320
Width: 1228
Flags: W
LayerCount: 2
Fore
SplineSet
1043.5 637.5 m 128,-1,1
 1058 621 1058 621 1058 582 c 256,2,3
 1058 543 1058 543 1043.5 526.5 c 128,-1,4
 1029 510 1029 510 995 510 c 2,5,-1
 233 510 l 2,6,7
 199 510 199 510 184.5 526.5 c 128,-1,8
 170 543 170 543 170 582 c 256,9,10
 170 621 170 621 184.5 637.5 c 128,-1,11
 199 654 199 654 233 654 c 2,12,-1
 995 654 l 2,13,0
 1029 654 1029 654 1043.5 637.5 c 128,-1,1
EndSplineSet
EndChar

StartChar: hyphen
Encoding: 45 45 321
Width: 1228
Flags: W
LayerCount: 2
Fore
SplineSet
1043.5 637.5 m 128,-1,1
 1058 621 1058 621 1058 582 c 256,2,3
 1058 543 1058 543 1043.5 526.5 c 128,-1,4
 1029 510 1029 510 995 510 c 2,5,-1
 233 510 l 2,6,7
 199 510 199 510 184.5 526.5 c 128,-1,8
 170 543 170 543 170 582 c 256,9,10
 170 621 170 621 184.5 637.5 c 128,-1,11
 199 654 199 654 233 654 c 2,12,-1
 995 654 l 2,13,0
 1029 654 1029 654 1043.5 637.5 c 128,-1,1
EndSplineSet
EndChar

StartChar: guilsinglleft
Encoding: 8249 8249 326
Width: 1228
Flags: W
LayerCount: 2
Fore
SplineSet
831 867 m 0,1,2
 831 851 831 851 817 835 c 2,3,-1
 571 564 l 1,4,-1
 817 293 l 2,5,6
 831 277 831 277 831 261 c 0,7,8
 831 237 831 237 800 210 c 0,9,10
 768 182 768 182 740 182 c 0,11,12
 720 182 720 182 708 197 c 2,13,-1
 402 540 l 2,14,15
 393 551 393 551 393 564 c 0,16,17
 393 579 393 579 402 588 c 2,18,-1
 708 931 l 2,19,20
 720 946 720 946 740 946 c 0,21,22
 768 946 768 946 800 918 c 0,23,0
 831 891 831 891 831 867 c 0,1,2
EndSplineSet
EndChar

StartChar: guilsinglright
Encoding: 8250 8250 327
Width: 1228
Flags: W
LayerCount: 2
Fore
SplineSet
488 946 m 0,1,2
 508 946 508 946 520 931 c 2,3,-1
 826 588 l 2,4,5
 835 579 835 579 835 564 c 0,6,7
 835 551 835 551 826 540 c 2,8,-1
 520 197 l 2,9,10
 508 182 508 182 488 182 c 0,11,12
 460 182 460 182 428 210 c 0,13,14
 397 237 397 237 397 261 c 0,15,16
 397 277 397 277 411 293 c 2,17,-1
 657 564 l 1,18,-1
 411 835 l 2,19,20
 397 851 397 851 397 867 c 0,21,22
 397 891 397 891 428 918 c 0,23,0
 460 946 460 946 488 946 c 0,1,2
EndSplineSet
EndChar

StartChar: quoteleft
Encoding: 8216 8216 331
Width: 1228
Flags: W
LayerCount: 2
Fore
SplineSet
431.5 761 m 128,-1,1
 422 770 422 770 422 785 c 0,2,3
 422 797 422 797 430 815 c 2,4,-1
 650 1264 l 2,5,6
 672 1307 672 1307 724 1307 c 0,7,8
 753 1307 753 1307 770.5 1293 c 128,-1,9
 788 1279 788 1279 788 1255 c 0,10,11
 788 1250 788 1250 786 1238 c 2,12,-1
 685 792 l 2,13,14
 676 752 676 752 633 752 c 2,15,-1
 458 752 l 2,16,0
 441 752 441 752 431.5 761 c 128,-1,1
EndSplineSet
EndChar

StartChar: quoteright
Encoding: 8217 8217 332
Width: 1228
Flags: W
LayerCount: 2
Fore
SplineSet
793.5 1260 m 128,-1,1
 803 1251 803 1251 803 1236 c 0,2,3
 803 1224 803 1224 795 1206 c 2,4,-1
 575 757 l 2,5,6
 554 714 554 714 501 714 c 0,7,8
 472 714 472 714 454.5 728 c 128,-1,9
 437 742 437 742 437 766 c 0,10,11
 437 771 437 771 439 783 c 2,12,-1
 540 1229 l 2,13,14
 549 1269 549 1269 592 1269 c 2,15,-1
 767 1269 l 2,16,0
 784 1269 784 1269 793.5 1260 c 128,-1,1
EndSplineSet
EndChar

StartChar: quotesinglbase
Encoding: 8218 8218 333
Width: 1228
Flags: W
LayerCount: 2
Fore
SplineSet
793.5 285 m 128,-1,1
 803 276 803 276 803 261 c 0,2,3
 803 249 803 249 795 231 c 2,4,-1
 575 -218 l 2,5,6
 554 -261 554 -261 501 -261 c 0,7,8
 472 -261 472 -261 454.5 -247 c 128,-1,9
 437 -233 437 -233 437 -209 c 0,10,11
 437 -204 437 -204 439 -192 c 2,12,-1
 540 254 l 2,13,14
 549 294 549 294 592 294 c 2,15,-1
 767 294 l 2,16,0
 784 294 784 294 793.5 285 c 128,-1,1
EndSplineSet
EndChar

StartChar: cent
Encoding: 162 162 335
Width: 1228
Flags: W
LayerCount: 2
Fore
SplineSet
1073 302 m 0,1,2
 1073 269 1073 269 1041 246 c 0,3,4
 974 198 974 198 889.5 165.5 c 128,-1,5
 805 133 805 133 714 123 c 1,6,-1
 714 -60 l 2,7,8
 714 -94 714 -94 697.5 -109.5 c 128,-1,9
 681 -125 681 -125 644 -125 c 256,10,11
 607 -125 607 -125 590.5 -109.5 c 128,-1,12
 574 -94 574 -94 574 -60 c 2,13,-1
 574 121 l 1,14,15
 446 133 446 133 349 198 c 128,-1,16
 252 263 252 263 199.5 368 c 128,-1,17
 147 473 147 473 147 602 c 256,18,19
 147 731 147 731 199.5 836 c 128,-1,20
 252 941 252 941 349 1006 c 128,-1,21
 446 1071 446 1071 574 1083 c 1,22,-1
 574 1247 l 2,23,24
 574 1281 574 1281 590.5 1296.5 c 128,-1,25
 607 1312 607 1312 644 1312 c 256,26,27
 681 1312 681 1312 697.5 1296.5 c 128,-1,28
 714 1281 714 1281 714 1247 c 2,29,-1
 714 1081 l 1,30,31
 882 1064 882 1064 1017 976 c 0,32,33
 1052 954 1052 954 1052 919 c 0,34,35
 1052 896 1052 896 1037 869 c 0,36,37
 1017 828 1017 828 985 828 c 0,38,39
 966 828 966 828 948 841 c 0,40,41
 841 915 841 915 714 932 c 1,42,-1
 714 272 l 1,43,44
 857 294 857 294 965 377 c 0,45,46
 985 392 985 392 1003 392 c 0,47,48
 1034 392 1034 392 1056 354 c 0,49,0
 1073 325 1073 325 1073 302 c 0,1,2
338 443.5 m 128,-1,51
 371 372 371 372 432 327 c 128,-1,52
 493 282 493 282 574 270 c 1,53,-1
 574 934 l 1,54,55
 493 922 493 922 432 877 c 128,-1,56
 371 832 371 832 338 760.5 c 128,-1,57
 305 689 305 689 305 602 c 256,58,50
 305 515 305 515 338 443.5 c 128,-1,51
EndSplineSet
EndChar

StartChar: currency
Encoding: 164 164 336
Width: 1228
Flags: W
LayerCount: 2
Fore
SplineSet
1094 224 m 2,0,1
 1117 201 1117 201 1117 180 c 0,2,3
 1117 157 1117 157 1088 128 c 256,4,5
 1059 99 1059 99 1036 99 c 0,6,7
 1015 99 1015 99 992 122 c 2,8,-1
 849 265 l 1,9,10
 746 198 746 198 614 198 c 256,11,12
 482 198 482 198 379 265 c 1,13,-1
 236 122 l 2,14,15
 213 99 213 99 192 99 c 0,16,17
 169 99 169 99 140 128 c 256,18,19
 111 157 111 157 111 180 c 0,20,21
 111 201 111 201 134 224 c 2,22,-1
 276 366 l 1,23,24
 204 468 204 468 204 602 c 256,25,26
 204 736 204 736 276 838 c 1,27,-1
 134 980 l 2,28,29
 111 1003 111 1003 111 1024 c 0,30,31
 111 1047 111 1047 140 1076 c 256,32,33
 169 1105 169 1105 192 1105 c 0,34,35
 213 1105 213 1105 236 1082 c 2,36,-1
 379 939 l 1,37,38
 482 1006 482 1006 614 1006 c 256,39,40
 746 1006 746 1006 849 939 c 1,41,-1
 992 1082 l 2,42,43
 1015 1105 1015 1105 1036 1105 c 0,44,45
 1059 1105 1059 1105 1088 1076 c 256,46,47
 1117 1047 1117 1047 1117 1024 c 0,48,49
 1117 1003 1117 1003 1094 980 c 2,50,-1
 952 838 l 1,51,52
 1024 736 1024 736 1024 602 c 256,53,54
 1024 468 1024 468 952 366 c 1,55,-1
 1094 224 l 2,0,1
385 467 m 128,-1,57
 418 407 418 407 477.5 373.5 c 128,-1,58
 537 340 537 340 614 340 c 256,59,60
 691 340 691 340 750.5 373.5 c 128,-1,61
 810 407 810 407 843 467 c 128,-1,62
 876 527 876 527 876 602 c 256,63,64
 876 677 876 677 843 737 c 128,-1,65
 810 797 810 797 750.5 830.5 c 128,-1,66
 691 864 691 864 614 864 c 256,67,68
 537 864 537 864 477.5 830.5 c 128,-1,69
 418 797 418 797 385 737 c 128,-1,70
 352 677 352 677 352 602 c 256,71,56
 352 527 352 527 385 467 c 128,-1,57
EndSplineSet
EndChar

StartChar: dollar
Encoding: 36 36 337
Width: 1228
Flags: W
LayerCount: 2
Fore
SplineSet
1009.5 229 m 128,-1,1
 967 160 967 160 883.5 120 c 128,-1,2
 800 80 800 80 678 75 c 1,3,-1
 678 -160 l 2,4,5
 678 -194 678 -194 661.5 -209.5 c 128,-1,6
 645 -225 645 -225 608 -225 c 256,7,8
 571 -225 571 -225 554.5 -209.5 c 128,-1,9
 538 -194 538 -194 538 -160 c 2,10,-1
 538 79 l 1,11,12
 356 97 356 97 212 179 c 0,13,14
 174 200 174 200 174 235 c 0,15,16
 174 255 174 255 187 281 c 0,17,18
 211 327 211 327 242 327 c 0,19,20
 256 327 256 327 273 317 c 0,21,22
 353 271 353 271 446.5 245.5 c 128,-1,23
 540 220 540 220 637 220 c 0,24,25
 766 220 766 220 832 265.5 c 128,-1,26
 898 311 898 311 898 388 c 0,27,28
 898 430 898 430 874 456.5 c 128,-1,29
 850 483 850 483 805 500 c 0,30,31
 770 513 770 513 726.5 520.5 c 128,-1,32
 683 528 683 528 605 537 c 0,33,34
 514 548 514 548 452.5 559.5 c 128,-1,35
 391 571 391 571 339 592 c 0,36,37
 266 622 266 622 225.5 676 c 128,-1,38
 185 730 185 730 185 817 c 0,39,40
 185 909 185 909 230 975.5 c 128,-1,41
 275 1042 275 1042 354.5 1078.5 c 128,-1,42
 434 1115 434 1115 538 1120 c 1,43,-1
 538 1347 l 2,44,45
 538 1381 538 1381 554.5 1396.5 c 128,-1,46
 571 1412 571 1412 608 1412 c 256,47,48
 645 1412 645 1412 661.5 1396.5 c 128,-1,49
 678 1381 678 1381 678 1347 c 2,50,-1
 678 1115 l 1,51,52
 843 1098 843 1098 973 1030 c 0,53,54
 1012 1010 1012 1010 1012 973 c 0,55,56
 1012 954 1012 954 1000 928 c 0,57,58
 979 880 979 880 946 880 c 0,59,60
 931 880 931 880 915 889 c 0,61,62
 754 975 754 975 572 975 c 0,63,64
 462 975 462 975 400.5 934 c 128,-1,65
 339 893 339 893 339 817 c 0,66,67
 339 783 339 783 358.5 761 c 128,-1,68
 378 739 378 739 416 725 c 0,69,70
 449 712 449 712 492.5 705 c 128,-1,71
 536 698 536 698 612 689 c 0,72,73
 702 679 702 679 762.5 668.5 c 128,-1,74
 823 658 823 658 876 638 c 0,75,76
 959 606 959 606 1005.5 546.5 c 128,-1,77
 1052 487 1052 487 1052 388 c 0,78,0
 1052 298 1052 298 1009.5 229 c 128,-1,1
EndSplineSet
EndChar

StartChar: Euro
Encoding: 8364 8364 338
Width: 1228
Flags: W
LayerCount: 2
Fore
SplineSet
1048 222 m 0,1,2
 1080 222 1080 222 1101 178 c 0,3,4
 1114 149 1114 149 1114 130 c 0,5,6
 1114 96 1114 96 1077 74 c 0,7,8
 987 23 987 23 901 0.5 c 128,-1,9
 815 -22 815 -22 714 -22 c 0,10,11
 536 -22 536 -22 417.5 81.5 c 128,-1,12
 299 185 299 185 255 370 c 1,13,-1
 153 370 l 2,14,15
 119 370 119 370 104.5 386.5 c 128,-1,16
 90 403 90 403 90 442 c 256,17,18
 90 481 90 481 104.5 497.5 c 128,-1,19
 119 514 119 514 153 514 c 2,20,-1
 233 514 l 1,21,22
 230 553 230 553 230 594 c 0,23,24
 230 638 230 638 233 680 c 1,25,-1
 153 680 l 2,26,27
 119 680 119 680 104.5 696.5 c 128,-1,28
 90 713 90 713 90 752 c 256,29,30
 90 791 90 791 104.5 807.5 c 128,-1,31
 119 824 119 824 153 824 c 2,32,-1
 256 824 l 1,33,34
 302 1006 302 1006 420 1107.5 c 128,-1,35
 538 1209 538 1209 714 1209 c 0,36,37
 815 1209 815 1209 901 1186.5 c 128,-1,38
 987 1164 987 1164 1077 1113 c 0,39,40
 1114 1091 1114 1091 1114 1057 c 0,41,42
 1114 1038 1114 1038 1101 1009 c 0,43,44
 1080 965 1080 965 1048 965 c 0,45,46
 1034 965 1034 965 1014 976 c 0,47,48
 941 1020 941 1020 869 1040.5 c 128,-1,49
 797 1061 797 1061 714 1061 c 0,50,51
 602 1061 602 1061 526.5 999.5 c 128,-1,52
 451 938 451 938 415 824 c 1,53,-1
 765 824 l 2,54,55
 799 824 799 824 813.5 807.5 c 128,-1,56
 828 791 828 791 828 752 c 256,57,58
 828 713 828 713 813.5 696.5 c 128,-1,59
 799 680 799 680 765 680 c 2,60,-1
 388 680 l 1,61,62
 384 644 384 644 384 594 c 0,63,64
 384 553 384 553 387 514 c 1,65,-1
 765 514 l 2,66,67
 799 514 799 514 813.5 497.5 c 128,-1,68
 828 481 828 481 828 442 c 256,69,70
 828 403 828 403 813.5 386.5 c 128,-1,71
 799 370 799 370 765 370 c 2,72,-1
 413 370 l 1,73,74
 448 253 448 253 524.5 189.5 c 128,-1,75
 601 126 601 126 714 126 c 0,76,77
 797 126 797 126 869 146.5 c 128,-1,78
 941 167 941 167 1014 211 c 0,79,0
 1034 222 1034 222 1048 222 c 0,1,2
EndSplineSet
EndChar

StartChar: florin
Encoding: 402 402 339
Width: 1228
Flags: W
LayerCount: 2
Fore
SplineSet
1152 1235 m 0,1,2
 1152 1218 1152 1218 1146 1197 c 0,3,4
 1130 1138 1130 1138 1089 1138 c 0,5,6
 1078 1138 1078 1138 1067 1142 c 0,7,8
 976 1171 976 1171 895 1171 c 0,9,10
 818 1171 818 1171 771 1124.5 c 128,-1,11
 724 1078 724 1078 714 984 c 2,12,-1
 700 848 l 1,13,-1
 934 848 l 2,14,15
 968 848 968 848 982.5 831.5 c 128,-1,16
 997 815 997 815 997 776 c 256,17,18
 997 737 997 737 982.5 720.5 c 128,-1,19
 968 704 968 704 934 704 c 2,20,-1
 686 704 l 1,21,-1
 619 41 l 2,22,23
 603 -112 603 -112 515 -195.5 c 128,-1,24
 427 -279 427 -279 285 -279 c 0,25,26
 171 -279 171 -279 74 -248 c 0,27,28
 33 -235 33 -235 33 -197 c 0,29,30
 33 -180 33 -180 39 -159 c 0,31,32
 55 -100 55 -100 96 -100 c 0,33,34
 107 -100 107 -100 118 -104 c 0,35,36
 209 -133 209 -133 290 -133 c 0,37,38
 367 -133 367 -133 414 -86.5 c 128,-1,39
 461 -40 461 -40 471 54 c 2,40,-1
 536 704 l 1,41,-1
 340 704 l 2,42,43
 306 704 306 704 291.5 720.5 c 128,-1,44
 277 737 277 737 277 776 c 256,45,46
 277 815 277 815 291.5 831.5 c 128,-1,47
 306 848 306 848 340 848 c 2,48,-1
 551 848 l 1,49,-1
 566 997 l 2,50,51
 582 1150 582 1150 670 1233.5 c 128,-1,52
 758 1317 758 1317 900 1317 c 0,53,54
 1014 1317 1014 1317 1111 1286 c 0,55,0
 1152 1273 1152 1273 1152 1235 c 0,1,2
EndSplineSet
EndChar

StartChar: franc
Encoding: 8355 8355 340
Width: 1228
Flags: W
LayerCount: 2
Fore
SplineSet
1025.5 1170.5 m 128,-1,1
 1040 1154 1040 1154 1040 1115 c 256,2,3
 1040 1076 1040 1076 1025.5 1059.5 c 128,-1,4
 1011 1043 1011 1043 977 1043 c 2,5,-1
 395 1043 l 1,6,-1
 395 704 l 1,7,-1
 862 704 l 2,8,9
 896 704 896 704 910.5 687.5 c 128,-1,10
 925 671 925 671 925 632 c 256,11,12
 925 593 925 593 910.5 576.5 c 128,-1,13
 896 560 896 560 862 560 c 2,14,-1
 395 560 l 1,15,-1
 395 374 l 1,16,-1
 685 374 l 2,17,18
 719 374 719 374 733.5 357.5 c 128,-1,19
 748 341 748 341 748 302 c 256,20,21
 748 263 748 263 733.5 246.5 c 128,-1,22
 719 230 719 230 685 230 c 2,23,-1
 395 230 l 1,24,-1
 395 55 l 2,25,26
 395 20 395 20 378.5 5 c 128,-1,27
 362 -10 362 -10 321 -10 c 2,28,-1
 319 -10 l 2,29,30
 278 -10 278 -10 261.5 5 c 128,-1,31
 245 20 245 20 245 55 c 2,32,-1
 245 230 l 1,33,-1
 113 230 l 2,34,35
 79 230 79 230 64.5 246.5 c 128,-1,36
 50 263 50 263 50 302 c 256,37,38
 50 341 50 341 64.5 357.5 c 128,-1,39
 79 374 79 374 113 374 c 2,40,-1
 245 374 l 1,41,-1
 245 1119 l 2,42,43
 245 1156 245 1156 260.5 1171.5 c 128,-1,44
 276 1187 276 1187 308 1187 c 2,45,-1
 395 1187 l 1,46,-1
 977 1187 l 2,47,0
 1011 1187 1011 1187 1025.5 1170.5 c 128,-1,1
EndSplineSet
EndChar

StartChar: sterling
Encoding: 163 163 341
Width: 1228
Flags: W
LayerCount: 2
Fore
SplineSet
963.5 127.5 m 128,-1,1
 978 111 978 111 978 72 c 256,2,3
 978 33 978 33 963.5 16.5 c 128,-1,4
 949 0 949 0 915 0 c 2,5,-1
 308 0 l 2,6,7
 286 0 286 0 270 30.5 c 128,-1,8
 254 61 254 61 254 95 c 0,9,10
 254 108 254 108 258.5 118 c 128,-1,11
 263 128 263 128 273 138 c 0,12,13
 359 223 359 223 394 294 c 128,-1,14
 429 365 429 365 429 445 c 0,15,16
 429 476 429 476 423 504 c 1,17,-1
 283 504 l 2,18,19
 249 504 249 504 234.5 520.5 c 128,-1,20
 220 537 220 537 220 576 c 256,21,22
 220 615 220 615 234.5 631.5 c 128,-1,23
 249 648 249 648 283 648 c 2,24,-1
 365 648 l 1,25,26
 326 725 326 725 308 774.5 c 128,-1,27
 290 824 290 824 290 884 c 0,28,29
 290 976 290 976 332 1050 c 128,-1,30
 374 1124 374 1124 451 1166.5 c 128,-1,31
 528 1209 528 1209 628 1209 c 0,32,33
 786 1209 786 1209 925 1122 c 0,34,35
 959 1101 959 1101 959 1071 c 0,36,37
 959 1050 959 1050 943 1021 c 0,38,39
 919 978 919 978 890 978 c 0,40,41
 875 978 875 978 856 990 c 0,42,43
 749 1061 749 1061 627 1061 c 0,44,45
 572 1061 572 1061 530 1037.5 c 128,-1,46
 488 1014 488 1014 466 973.5 c 128,-1,47
 444 933 444 933 444 884 c 0,48,49
 444 842 444 842 459 802.5 c 128,-1,50
 474 763 474 763 504 706 c 2,51,-1
 533 648 l 1,52,-1
 815 648 l 2,53,54
 849 648 849 648 863.5 631.5 c 128,-1,55
 878 615 878 615 878 576 c 256,56,57
 878 537 878 537 863.5 520.5 c 128,-1,58
 849 504 849 504 815 504 c 2,59,-1
 577 504 l 1,60,61
 581 480 581 480 581 446 c 0,62,63
 581 286 581 286 456 144 c 1,64,-1
 915 144 l 2,65,0
 949 144 949 144 963.5 127.5 c 128,-1,1
EndSplineSet
EndChar

StartChar: uni20A9
Encoding: 8361 8361 342
Width: 1228
Flags: W
LayerCount: 2
Fore
SplineSet
1243.5 737.5 m 128,-1,1
 1258 721 1258 721 1258 682 c 256,2,3
 1258 643 1258 643 1243.5 626.5 c 128,-1,4
 1229 610 1229 610 1195 610 c 2,5,-1
 1081 610 l 1,6,-1
 1003 43 l 2,7,8
 998 7 998 7 977.5 -7.5 c 128,-1,9
 957 -22 957 -22 917 -22 c 0,10,11
 840 -22 840 -22 817 43 c 2,12,-1
 610 629 l 1,13,-1
 403 43 l 2,14,15
 380 -22 380 -22 303 -22 c 0,16,17
 263 -22 263 -22 242.5 -7.5 c 128,-1,18
 222 7 222 7 217 43 c 2,19,-1
 139 610 l 1,20,-1
 33 610 l 2,21,22
 -1 610 -1 610 -15.5 626.5 c 128,-1,23
 -30 643 -30 643 -30 682 c 256,24,25
 -30 721 -30 721 -15.5 737.5 c 128,-1,26
 -1 754 -1 754 33 754 c 2,27,-1
 119 754 l 1,28,-1
 68 1122 l 2,29,30
 67 1128 67 1128 67 1140 c 0,31,32
 67 1165 67 1165 83 1178 c 128,-1,33
 99 1191 99 1191 135 1196 c 0,34,35
 142 1197 142 1197 155 1197 c 0,36,37
 185 1197 185 1197 199 1183.5 c 128,-1,38
 213 1170 213 1170 217 1139 c 2,39,-1
 266 754 l 1,40,-1
 504 754 l 1,41,-1
 536 845 l 2,42,43
 543 865 543 865 560.5 875 c 128,-1,44
 578 885 578 885 610 885 c 256,45,46
 642 885 642 885 659.5 875 c 128,-1,47
 677 865 677 865 684 845 c 2,48,-1
 716 754 l 1,49,-1
 954 754 l 1,50,-1
 1003 1139 l 2,51,52
 1007 1170 1007 1170 1021 1183.5 c 128,-1,53
 1035 1197 1035 1197 1065 1197 c 0,54,55
 1078 1197 1078 1197 1085 1196 c 0,56,57
 1121 1191 1121 1191 1137 1178 c 128,-1,58
 1153 1165 1153 1165 1153 1140 c 0,59,60
 1153 1128 1153 1128 1152 1122 c 2,61,-1
 1101 754 l 1,62,-1
 1195 754 l 2,63,0
 1229 754 1229 754 1243.5 737.5 c 128,-1,1
453 610 m 1,64,-1
 284 610 l 1,65,-1
 329 258 l 1,66,-1
 453 610 l 1,64,-1
936 610 m 1,67,-1
 767 610 l 1,68,-1
 891 258 l 1,69,-1
 936 610 l 1,67,-1
EndSplineSet
EndChar

